<?xml version="1.0" encoding="utf-8"?>
<!-- Generator: Adobe Illustrator 25.2.1, SVG Export Plug-In . SVG Version: 6.00 Build 0)  -->
<svg version="1.1" id="Laag_1" xmlns="http://www.w3.org/2000/svg" xmlns:xlink="http://www.w3.org/1999/xlink" x="0px" y="0px"
	 viewBox="0 0 932.4 1350.9" style="enable-background:new 0 0 932.4 1350.9;" xml:space="preserve">
<style type="text/css">
	.st0{fill:#FEA4FD;}
	.st1{fill:#FEFEFE;}
	.st2{fill:#FEA6FD;}
	.st3{fill:#FEA5FD;}
</style>
<g>
	<path class="st0" d="M0.9,1166c0-329.7,0-659.4,0-989.1c1.3,0.2,2.9-0.4,3.7,0.9c1.2,2,3.9,2.2,4.6,3.1c2.4,2.6,5.7,1.5,8.3,3.3
		c4.6,3.2,9.9,5.8,15.8,6.4c2.1,0.2,4.2,0.7,5.9,2.2c6.5,5.3,13.4,5.3,20.9,2.4c2.2-0.9,4.9-0.6,6.6,2.1c2.5,4.1,6.4,4.5,10.3,2.9
		c3.6-1.5,6.3-2,7.7,3.2c1.7-3.7,4.2-4.3,6.9-4.5c1.5-0.1,3.3,0.3,4.4-0.5c6.8-4.9,14.6-6.6,22.7-7.8c2.2-0.3,6.2-1,5.3-5.4
		c-0.2-1,0.2-2.3,1.4-2.2c3.4,0.6,5.9-2.1,9-2.3c-0.8-2.1-5.8-3.4-2.2-5.5c3.6-2.1,2.7-3.9,1.6-6.3c-1.5-3.4-3.2-6.7-3.6-10.6
		c-0.4-4,1.7-6.8,5.5-6.4c6,0.7,11.6,0.2,16.2-4.6c3-3.2,6.6-5.9,10.2-8.4c1.9-1.3,1.9-2.8,1.4-4.2c-2.2-5.4-0.8-9.5,3.9-12.7
		c0.8-0.5,0.9-2.1,1.4-3.1c0.5-0.2,1.3,0,1.3-0.8c0-0.2-0.4-0.6-0.6-0.6c-0.8-0.1-0.8,0.6-0.9,1.2c-1.5-0.2-3.7,1.1-4.5-0.9
		c-0.7-2.1,2.3-0.4,2.6-1.9c0.2-0.6,0.8-1.2,0.8-1.8c-0.5-5.6,2.9-7.8,7.6-9.2c1-0.3,2.1-1.2,2.7-2.1c2.8-4.6,5.9-8.7,11-11.1
		c1.4-0.7,3.1-2.3,2.6-3.9c-1.1-4,1.2-3.1,3.4-2.9c2,0.2,4-0.1,6,0.1c3.1,0.3,7.1-1.7,8.6,3.3c0.4,1.1,3.2,1.1,3.6,0.4
		c1.9-3.4,7-3.4,8-6.2c2.5-7,5.3-1.5,6.6-0.1c1.8,2.1,3.1,2.2,5.8,2c5.3-0.4,10.6,1.5,15.8,1.6c6.1,0.1,10.7,7,17.3,3.1
		c0.4-0.2,1.3,0.2,1.9,0.4c7.9,3.3,14,9.2,17.7,16.4c2.4,4.7,3.8,3.5,6.7,2c4.2-2.2,15,2.3,15.8,6.9c1.6,9.8,9.2,16.7,12.2,25.8
		c2.3,6.8,7.4,12.6,6.9,20.4c-0.2,2.6,0.5,4.7,2.9,6.4c6.7,4.9,9,11,4.5,18.6c-0.2,0.3-0.2,0.6-0.3,0.9c-1,2.3-0.7,4.2,1.2,6.2
		c1.5,1.7,3.9,3,4.1,5.9c0.5,7.4,1.1,14.8,1.7,22.2c0.2,2.5,0.9,5.5,2.8,6.4c7.6,3.6,8,3.7,9.7,10.4c0.1,0.3,0.5,0.4,0.7,0.7
		c1.6,3.2,4.9,4.7,7.1,7.4c1.2,1.5,4.2,3.5,7.8,1.1c2.6-1.7,8.4-2.3,10.1,0.5c2.1,3.4,4.5,2.4,7,2.9c7.7,1.8,16.7-4.2,23.4,3.8
		c0.1,0.1,0.3,0.1,0.5,0.1c5,0.9,9.5,5.1,15.1,2.1c0.6-0.3,1.8-0.1,2.4,0.3c2.7,1.7,5.2,0.3,7.4-0.8c2.1-1.1,3.6-2.1,5.6-0.1
		c0.8,0.8,2.3,0.8,3-0.5c0.6-1.1,0.4-2.3-1-2.9c-0.8-0.3-2.2,0-1.8-1.7c4.4-1.7,7.9,0.8,11.4,2.8c1.4,0.8,2.9,1.3,3.5-0.8
		c0.5-1.7-0.6-2.4-2.2-2.5c-1.6-0.1-3.2-0.4-4.3-2c3.4,2.4,10-4.6,11.5,5.2c0.8,4.9,8.6,6.4,12.4,10.5c0.6,0.7,2.3,0.4,2.4-0.8
		c0.3-3.3,3.5-3.2,5.4-4.5c2.9-2,7.4-1.9,7.3-7.1c0-1.4,1.7-1.2,2.9-1.3c4.8-0.5,9.4-3,14.4-2.1c1.3,0.2,2.1-0.6,2.4-2
		c0.2-1.1,0.9-1.9,2-1.8c6.2,0.7,12.8-2.3,18.8,1.5c1.2,0.8,3.4,1,4.3-0.1c4.1-5.2,9.7-3.1,14.7-3.5c1.4-0.1,3.8,0.7,3.7-1.3
		c-0.1-4,2.6-2.3,4.3-2.7l0,0c-0.1,2.3,0.6,4,3.2,4c3.8,0,7.4,3.1,11.5,0.2c1.2-0.9,3.4-0.1,5.1,1c2.2,1.5,5.5,1.7,7,0.3
		c2-1.8,3.7-1.4,5.7-1.5c1.3-0.1,2.8,0.4,3.3-1.4c0.4-1.7-0.6-2.3-2.1-2.7c-2-0.6-2.3-2.5-0.8-3.2c2.1-1,4.8-1.6,6.8,0.7
		c1.9,2.2,11,4.4,12.1,2.3c2.4-4.7,3.5-1,5.1,0.3c1.1,0.9,2.4,1.5,3.3,2.9c1.4,2.3,3.9,1.2,5.9,1.1c2.5-0.1,1.7-2.4,1.9-3.9
		l-0.1,0.1c4,0.6,4-1.9,4.1-4.9c0.1-2.3-1.4-5.2,1.3-6.8c3.1-1.8,9.7,1.4,10.5,4.9c0.3,1.1,0.1,2.4,1.7,2.6c1.4,0.2,1.9-0.7,2.4-1.9
		c1.2-2.9,2.6-2.8,3.9,0.1c1.2,2.9,2.6,2.9,4,0.2c1.5-2.9,2.6-2.9,4.1,0c1.1,2.2,4.4,2.5,5,5.4c0,0.2,3,1.5,3.1-1.2
		c0.1-1.3,0.1-2.3,1.7-2.4c1.5,0,1.5,1.8,2.2,2.1c3,1.5,3.5,6.3,7.9,5.7c0.2,1.5-0.7,3.7,1.7,3.8c2.9,0.2,2-2.2,2.2-3.8
		c4,0,8,0,12,0.1c3.1,0.1,7.6,4.6,8.1,7.7c0.4,2.4-1.7,7.4,4.4,5.2c0.2-0.1,1,1.2,1.4,1.9c1,1.6,2,3.2,3.7,5.9
		c0.2-3.9,1.7-5.8,4.4-4.3c2.3,1.3,0.3,3-0.9,4.3c4.1,1.1,6.3,0.1,5.9-5c0.7,5.6,3.1,6.3,7.6,5.3c1.6-0.4,5.1,0.3,5.5,4
		c0.4,3.6,4.7,5.3,8.3,3.7c4.6-2.1,6.5-0.6,7.8,4c1,3.6,4.7,6.4,4.6,10.7c0,0.2,0.8,0.4,1.3,0.5c5.7,1.6,6.6,2.9,6,9.3
		c-0.2,2.4,1.1,4.1,2.9,4.7c0.7,0.2,2.4-1.9,3.3-3.2c0.4-0.6-0.7-2,1.2-2.2c1.2,2.1-0.3,4.9,1.1,6.9c1.2-0.1,1.1-4,3.4-0.4
		c1.3,2.1,4.4,5.9,8.2,4.7c2.7-0.9,4.5,0.3,6.7,0.8c4.1,0.9,5.9,6.7,11.2,5.1c0.6-0.2,1.6,0.7,1.6,1.6c-0.1,2.8,2,3.7,3.5,5.5
		c5.3,6,9.6,12.8,14.3,19.3c2,2.8,3.8,5.9,7.1,7.3c3.3,1.3,4.5,4.6,7.2,6.3c4.4,2.9,4.8,8.5,8.3,12c3.2,3.2,8.1,4.7,9.2,10.5
		c0.4,2.1,1.5,3-0.8,4.3c-2.4,1.3-2.1,3.2,0,4.1c3.4,1.4,4.6,3.3,3.4,6.8c-0.2,0.5,0.1,1.4,0.5,1.8c2.9,3.1,4.7,6.3,0.8,10
		c-0.5,0.5-0.4,1.6-0.5,2.4c-1,0.2-1.9,0.6-1.6,1.9c0.1,0.3,0.7,0.8,0.9,0.8c1.2-0.4,0.8-1.5,1-2.4c4.3,0.6,4.8,5.2,7.6,7.4
		c1.7,1.3-1.7,1.6-2.2,2.8c-0.2,0.5-0.1,1.3,0.1,1.9c2.8,6.2,4.9,12.5,6.4,19.2c0.8,3.6,3.7,6.9,4.3,11c0.1,0.4,0.3,2.5,1.6,1.1
		c0.9-1,1.6-2,2.6-0.7c0.9,1.1,0.5,2.6-0.6,3.6c-1.8,1.5-2.3,3.2-0.9,5.1c1.8,2.4,5.1,4.3,2.1,8.2c-0.7,0.8,0.3,2,1.8,2.3
		c2.9,0.7,3.4,5.5,7.4,4.5c0,0.5,0.1,0.9,0.1,1.4c0.1,1.8-0.3,4.4,2.1,0.8c0.8-1.2,1.4,0.7,1.9,1.3c3.7,3.9,4.1,9.9,8.7,13.7
		c0.9-1.2,1.7-2.3,2.7-3.6c1.8,3.9,4.8,5.6,8.4,5.8c5.6,0.3,11.3,0.1,17,0.1c1.1,0,2.8,0.3,3.1-0.9c0.7-2.7,2.3-3.7,4.7-2.9
		c3,0.9,1.7,3.7,1.7,5.6c0.1,223,0.1,446,0,669c0,1.5,0.6,3.2-0.6,4.7c-0.4-0.2-0.9-0.3-0.9-0.5c-2.6-11.4-7.1-22.2-10.9-33.2
		c-1.2-3.5-1.1-7.8-2.3-10.6c-4.2-10-4.4-20.3-5-30.6c-0.4-7.7-3.1-13.4-8.4-18.6c-2.1-2.1-4.6-2.3-6.8-3.6
		c-0.9-0.5-1.7-1.1-1.9-2.2c-0.1-0.8,0.4-0.9,1.1-1.1c2.2-0.8,2.1-0.9-0.3-2.6c-0.4-2.8-2.1-4.1-4.9-4c-0.1-0.3-0.1-0.6-0.2-0.9
		c0-0.4,0-0.7,0-1.1c-0.9-3.2-2.6-6.7-5.2-8c-5.3-2.7-6.4-3.7-4.8-8.9c0.2,1.1-0.2,2.4,1.4,2.7c0.7,0.1,1.4-0.2,1.3-1
		c-0.2-1.3-1.3-1.8-2.5-1.9c0.9-3.4-3.8-2-4-4.7c1.1-1.1,2.7,1.3,3.7-0.8c2.2-4.5,5.8-3.3,9.3-1.8c2.1,1,4.1,2.2,6.3,3
		c1.7,0.6,3.5,3.2,5.1,1.2c1.4-1.8-0.1-4.1-1.2-6c-0.5-0.8-1.2-1.5-1.9-2.2c-5.5-5.2-12.5-6.4-19.5-7.8c-5.5-1.1-11.3-1.2-16.8-4.2
		c7-3,18.5-0.3,37.5,8.4c1-1.8,0.2-3.8-0.9-4.5c-5.4-3.6-11.1-6.8-17.6-8.1c-4.5-0.9-8.9,1.9-13.4,0.5c-1-0.3-2-0.5-1.9-1.8
		c0.1-1,0.6-2,1.9-2c2.8-0.1,6,0.3,7.4-2.8c1.4-3.1-1.7-5-2.6-7.6c-0.1-0.2,0.1-0.6,0.2-1c9.1,2.4,15.3,9.9,23.5,14
		c-3.6-9-12-14.8-14.8-24.8c5.7,2,7.2,8.4,12.7,10.5c0-6.2-2.6-11.6-3-17.4c0,0-0.1,0-0.1,0c1-0.6,1.3-1.7,1-2.6
		c-1.9-6.2-0.3-11.6,2.4-17.4c4-8.5,6.8-17.6,9.1-26.8c3.7-14.8,8.3-29.2,5-45.3c-3.7-17.9-6.1-36.1-9.9-54
		c-2.4-11.4-8.6-21.1-13.6-31.2c-1.8-3.7-3.2-8.1-6.7-10.2c-8-4.8-16.4-8.5-26.2-8.4c-7.3,0.1-14.5,0.2-21.6,1.4
		c-6.3,1-12.2,3.1-17.7,7c-4.6,3.2-8.5,7.1-12.9,10.4c-4.6,3.4-7.3,8.9-13,11c-0.3,0.1-0.5,1-0.4,1.3c1.7,3.5-0.7,4.8-2.7,7.4
		c-5.2,6.3-10.3,12.7-15.2,19.3c-2.7,3.7-5.9,6.9-8.3,11.2c-2.6,4.8-6.8,10.3-14,10.1c-0.6-2.9,3-3.6,2.5-5.9
		c-1.1-4.7,1.8-4.9,5.1-4.9c1.2,0,2.6,0.1,2.8-1.4c0.3-1.3-1.6-1.8-1.8-2.3c-1.7-5.2-6.1-4-9.8-4.5c-1.9-0.2-4,0.1-5.9,0.4
		c-1.4,0.2-2.3,0.1-2.6-1.4c-0.2-0.9,4.2-7.1,5-7.2c1.4-0.2,1.3,0.3,1.3,1.6c-0.1,3.7,1.7,5.6,5.7,4.2c0.9-0.3,2.1-0.6,2.9-0.2
		c3.5,1.4,4.9-1.4,5.1-3.4c0.4-3.5-3-1-4.4-1.8c-0.2-0.1-0.5-0.3-0.8-0.5c2.9-1.2,4.5-4.2,8.8-3.3c4.6,1,6.7-2.3,6.4-7.1
		c-0.1-0.9,0.3-1.5,0.9-2.2c1-1,2.4-2.2,1.2-3.8c-1-1.4-2.1-0.1-3.1,0.3c-1.6,0.6-1.4-0.1-1.4-1.3c0.1-2.1-1.9-4.4-2.9-3.5
		c-2.1,1.8-4-0.9-5.8,0.4c3.1,6.2,2.7,7.5-2,8.1c0.1-0.7,0.9-1.6-0.5-1.8c-0.4-0.1-1.1,0.3-1.1,0.6c-0.2,1,0.6,1.3,1.4,1.4
		c-0.2,2.4-1.7,3.2-3.8,2.6c-2-0.6-3-2.4-2.7-4.3c0.5-2.8,0.8-5.8,4.7-6.8c3.6-0.9,3.7-3.5,2-6.6c-2-3.6-4.5-1.5-6.2-0.3
		c-2.6,1.9-5.7,0.4-8.3,1.8c-0.2,0.1-0.2-2.5,0.1-3.6c0.6-2,1.5-5.5,3-5.2c7.1,1.5,7.6-4.6,10.4-8.1c0.9-1.1,1-2.1-0.1-3.1
		c-1.2-1.1-2.2-0.3-2.9,0.7c-1.6,2.4-3.4,0.6-4.8,0c-2-0.9-1.3-2.7-0.6-4.3c0.7-1.5,1.2-3.1,1.9-4.6c1.3-2.7,0-4.2-2.4-3.5
		c-4.8,1.5-9.9,2.8-12.3,8.1c-1,2.2-1.5,5.5-3.2,6.3c-4.6,2.2-5.2,6.4-6.8,10.2c-0.4,0.9-0.2,2.1-1.7,1.7c-3.3-0.9-3.7,2-4.9,3.8
		c-2.7,3.9-0.8,8.4-1.8,12.7c-1.6,6.7-2.7,8.7-9.8,7.7c-1.2-0.2-2.2-0.7-3.2,0.4c-2.9,3.4-2.6,7.8,0.8,11.4c0.8,0.9,1.8,1.8,1,2.9
		c-0.6,0.8-2.1,0.8-2.7,0.1c-2.5-2.7-6.5-2.3-8.7-5c-2.7,2.7-2.4,5.6-0.9,8.6c1.3,2.8,1.1,5.6,0.2,8.5c-4.9-2.4-4.9-2.4-6.3,2.8
		c-0.2,0.9-1.1,1.6-1.4,2.5c-2,5.3-4.4,10.6-2.8,16.6c0.8,2.8-0.4,3.7-3.2,3.1c-1.6-0.4-2.9-2.2-5.2-1c1.2,1.9,1.3,4.4,3.8,5.2
		c1.5,0.5,1.8,1.2,1.2,2.6c-0.4,0.9-0.6,2.2-1.2,2.6c-1.3,0.6-1.8-1-2.6-1.7c-0.7-0.6-0.4-2.7-2.2-1.7c-1.4,0.8-1.1,2.1-0.6,3.5
		c0.7,1.7,2.2,3.2,1.9,5.5c-1.7-0.2-2.6-1.2-3.2-2.4c-0.7-1.4-1.6-2.7-3-3.2c-3.5-1.2-2.9-3.2-1.7-5.8c2.2-4.6-0.3-8.7-5.2-8.6
		c0.9,2,3.8,2.9,2.9,6.3c-5-3.5-5.2-12.4-13.6-11.8c2.7,2,2,6.1,5.5,7.5c0.5,0.2,1.1,3.1-1,4.4c-3.4,2-1.9,3.2,1,3.8
		c1.4,0.3,3.9,1.6,3.3,2c-2.4,1.6-2.3,5.2-4.9,6.1c-3.3,1.2-2.6,2.7-1.2,4.8c0.6,0.9,1.8,1.9,0.5,3c-0.9,0.8-1.8,1.1-3-0.1
		c-1.1-1.1-2.8-1.2-2.2,1c1.1,5-3.2,6.6-5.2,9.7c-3.3,5.1-6.3,3.2-9.9,0.8c-1.1-0.7-2.8-0.7-3.5,0.7c-0.8,1.4,0.7,2.2,1.6,2.6
		c5.2,2.6,7.8,8.7,13.8,10c0.5,0.1,0.9,0.4,1.3,0.7c0.7,0.5,1.3,1.1,1,2.1c-0.3,0.9-1,1.4-1.9,1.2c-4.1-0.6-8.3-1-12.4-2
		c-1.6-0.4-3-0.6-4.1,0.4c-2,1.8,0.9,1.9,1.1,2.9c0.5,2.9,4.7,6.7,0.6,8.5c-3,1.3-5.2,3.4-7.9,4.9c-4.4,2.5-4.9,4.6-1.8,8.5
		c0.4,0.6,0.8,1,1.6,0.9c1.2-0.3,0.8-1,0.8-1.9c-0.1-2.4-2.2-5.3,3.3-5.4c4.3,0,4.3-1.3,4.8,3.6c-1.7-1-3.2-2.1-5.4-1.4
		c0.3,1,0.3,2,0.8,2.5c2.6,2.9,4,5.8,0.5,9c-0.2,0.2-0.1,0.9,0,1.4c0.2,0.8,1.8,1.6,0.4,2.5c-1.1,0.7-2.3-0.2-3-1.1
		c-0.8-1-1.1-2.4-1.9-3.5c-1.3-1.7-3.6-3.7-5.2-2.7c-1.7,1.1-3.7,1.8-6.6,3.3c11.1,0.6-1.6,5.3,3,7.3c3.1-3.6,6-4.3,8.3,1.3
		c0.6,1.5,2.3,2.2,4.2,2.2c1.4,0,2.7,0.2,2.9,2.5c-4.4-1.5-8.4,2.5-12.8,0.3c-3.9-2-7.3-4.2-9.2,2.8c-1.1,4-1.5,5.8,2.5,6
		c3.4,0.2,3.8,1.8,3.9,4.4l0,0c-3.1,0.3-6,1.3-9.2,0.1c-1.7-0.7-3.8-0.9-4.9,1.7c-0.7,1.7-2.3,0.8-2.2-0.5c0.2-2.6-0.8-3.6-3.2-3.9
		c-1.1-0.2-1.7-1.4-0.8-2.3c2-2.1,0.9-4.2,0.6-6.5c-0.3-2.4-1.3-5.5,2.4-6.7c1.8-0.6,1-2.2,0.3-2.8c-4.2-3.4-2.4-8.3-3.6-12.5
		c-0.8-2.9,1.4-3.8,3.5-3c3.6,1.3,5.9-1,7.9-2.9c1.9-1.8,1.3-4.9,0.2-7c-1-2-3.1-3.9-5.7-1.9c-1,0.8-2,1.7-2.8,0.3
		c-0.8-1.3-0.3-2.5,1.2-3.3c2.2-1.2,4.3-2.5,6.5-3.6c0.7-0.4,1.7-0.5,1.5-1.6c-0.2-0.8-1-1.6-1.9-1.4c-3.2,0.7-6.1-1.9-9.6-0.1
		c-2,1-5.9-0.4-5.6-3.3c0.3-3.1-0.6-6-0.4-8.7c0.2-4.1-1.6-5.2-4.4-5.2c-4.2-0.1-3-7.4-8.2-5.7c1.9-3.2-3.4-5.9-0.5-9.4
		c-2.7,1.4-5.1,0.6-7.8-0.5c0.3,1.3,0.6,1.9,0.7,2.5c0.2,1.6,1,3.7-0.5,4.7c-1.3,0.9-3.4-0.4-3.6-1.6c-0.3-1.9-4.8-2.4-1.6-5.5
		c1.5-1.5,3.6-4.3,2.5-6c-1.3-2-4.1,0.2-6.2,0.6c-1.3,0.2-2.7,0.4-3.6-0.9c-0.9-1.2,0-2.3,0.6-3.2c2.7-4.3,5.2-8.8,8.5-12.6
		c3.2-3.6,4.5-8.8,8-11.7c7-5.9,13.5-12.2,20-18.6c4.6-4.5,9.9-8,14.9-11.9c6.1-4.8,14.5-4.8,19.9-10.6c0.8-0.8,2.2-1,2.7,0.6
		c1,3,3.6,2.8,6,3.5c2.9,0.8,5.2,0.3,6.3-2.2c1.1-2.4,0.2-5-2-6.6c-1.6-1.1-3.6-3.5-5.1,0.4c-0.5,1.2-1.9,0.7-3.1,0.4
		c-3.8-1-1.9-4-2.3-6.2c-0.2-1.2,1.3-2.8-0.5-3.5c-1.8-0.7-1.3,1.5-2.1,2.1c-1.6,1.3-3.3,1-4.4-0.4c-1.7-2.1,0.6-2.5,1.8-2.9
		c3.4-1.2,2.1-4.6,4.4-6.9c-4.8,0.1-7.1,3.3-10.2,5c-2.5,1.3-7.6-0.4-7.4,4.9c-5.4,0.3-8.4,4.9-12.9,6.9c-2,0.9-3.5,1.8-3.3,4.7
		c0.1,2.8-2.3,4.7-5.4,5.8c-0.9,0.3-1.7,1-2.5,1.6c-1.3,1-2.5,2.3-3.9,3c-5.7,2.9-6.5,5.3-3.5,10.7c-2.2-0.1-3,2.5-5.1,2.7
		c-1.2,0.1-0.8,1.2-0.7,2c0.1,0.8,0.9,1.2,1.4,0.7c1.4-1.8,4.9-1.9,4.6-5.2c3.5,0.4,6.2-1.7,7.4-4.1c1.8-3.5,5.5-5,7.7-8.1
		c1.5-2,4.8-5.2,8.9-3.9c1.3,0.4,2.9,0.5,3.3,1.8c0.4,1.5-1,2.4-2.2,2.9c-1.3,0.5-2.4,1-3.4,1.9c-9.9,9.3-20.9,17.3-30.3,27.1
		c-3.8,4-8.1,7.6-11.3,12c-4.8,6.5-10.4,12.4-14.5,19.4c-4.2,7.1-9.9,13.2-14,20.6c-1.7,3-3.3,6.4-5.9,9c-0.8,0.7-1.6,1.4-2.7,0.8
		c-1.3-0.7-1.3-2.5-0.5-3c3.6-2.4,2.9-7.4,6.5-10.1c1.8-1.3,3.5-4.1,4.7-6.4c4.3-8.3,10.3-15.3,15.4-22.9c3.2-4.8,7.9-8.6,10-14.8
		c-3,1.2-5.2,0.7-7.1-1.1c-1.4-1.3-3.1-0.6-2.4,0.9c2.1,4.6-0.7,4.5-3.8,4.9c-2.1,0.2-3.9,1.7-4.1,3.7c-0.2,2.3,2.7-0.2,3.4,1.9
		c-1.1,2-3.2,2.9-5.3,3.9c-1,0.5-2,0.6-2.7,1.9c-1.7,3.5-3.5,7.1-7.8,8.2c-0.9,0.2-2.3,0.6-2,1.8c1.1,4.1-2.4,5.1-4.4,7.1
		c-2.1,2.3-4.7,4.2-5.1,7.6c-0.1,1-0.1,1.3-1.4,1.1c-3.5-0.4-3.8,2.8-4.9,5c-0.4,0.7,2.1,1.9-0.2,2.5c-0.7,0.2-1.8,0.1-2.3-0.4
		c-1.2-1.1,0.2-2.1,0.4-3.1c0.8-3.9,4.6-7.8,2.3-11.8c-3.4-5.7-4.2-12-5.8-18.2c-2.6-10-5.1-20.1-7.8-30.1
		c-2.3-8.3-3.6-16.8-6.8-24.9c-2.5-6.4-6.2-12-9.7-17.8c-3.7-6.1-3-8.6,3.6-11.5c3.5-1.5,6.8-3.3,10-5.4c2.8-1.8,5.7-2.4,8.3,1
		c1.2,1.6,2.4,3.1,3.5,4.8c3.2,4.8,4.4,11.5,11.9,12.2c0.6-3.1,1.6-6.4,1.3-9.9c-0.2-2.3,0.9-3.9,3-4.6c2.3-0.7,4.3,0.1,5.6,2.2
		c1.1,1.7,2.2,3.3,3.1,5.1c1.4,3,3.2,3.9,6.3,2.1c4-2.4,8.1-4.6,12.3-6.6c6.2-2.9,10.8-0.2,11.8,6.4c1,7.1,2.3,14.1,3.5,21.4
		c2.7-1.7,2.3-4,2.4-6c0.5-10.6-2.4-20.6-5.2-30.7c-0.4-1.5-1.7-3.4,0.1-4.5c1.9-1.2,3.6,0,5.4,1.2c5.3,3.4,10.6,7,16.3,9.4
		c7.7,3.3,15.9,5.1,23.8-0.1c0.9-0.6,2.5-0.8,2.2-2.3c-0.3-1.7-1.8-0.8-2.9-0.9c-1.9-0.3-3.8-0.6-6.2-1.1c2.3-1.3,5.1,0.3,6.4-2.4
		c-7.4-1.2-14.7-2.5-22.1-1.3c-2.3,0.4-4.7,0.1-6.6-1.5c-1-0.9-3-1.6-2.2-3.4c0.6-1.5,2.3-1,3.6-1c10,0.1,20.1,0.2,30.1,0.3
		c1.8,0,3.6,0.4,4-2.3c0.1-0.8-0.3-2.5,1.7-2.4c1.7,0,2.9,1.3,3,2.1c0.3,5.3,4.2,3.5,6.6,3c8.3-1.6,16.3-3.9,23.4-8.8
		c1.7-1.1,0.9-2,1-3.3c0.3-2.2-0.3-2.7-2.2-2.7c-1.4,0-2.7-0.4-3.1-2c-1.1-5.2-7.7-5.4-8.7-4.6c-3.4,2.9-6.9,1.3-10.2,1.8
		c-2.1,0.3-4.2-1-4.2-3.6c0-2.3-0.1-4.8,3.7-4.3c3.8,0.6,7.1-0.8,9.5-4.2c1.3-1.9,2.5-3.8,5.8-2.6c1.1,0.4,3.5-0.6,4.9-2.6
		c1.5-2.2,4.4-1.6,6.5-0.4c1.1,0.6,3.1,0.9,2.8,2.9c-0.3,2.2-0.2,2.5,1.6,1.5c1.5-0.9,2.1,0,3,0.6c4.8,2.9,9.6,5.7,14.4,8.6
		c3.8,2.4,6,1.4,6.6-3c0.1-0.9-0.3-2.2,1-2.5c1.2-0.3,1.5,1,2.1,1.7c1.2,1.2,1.5,4.2,3.7,3.1c3.7-1.9,7.8-1.5,11.4-2.9
		c17.3-6.7,35.5-6.5,53.6-7.3c2.3-0.1,4.6,0.2,6.9,0.7c10.7,2.3,17.5-1.1,20.8-10.3c1.2-3.4,3.3-6.5,4.7-9.8
		c2.6-5.9,8-10.4,8.8-17.4c0.2-1.7,1.8-3,3.1-4.4c2.8-2.8,3.6-5.9,3-10.3c-0.8-5.9-3.5-11.5-2.5-17.8c0.4-2.5,2.9-6.8-2.6-8.4
		c-1.2-0.4,0.3-4.2-1.2-5.9c-3.1-3.4-4.4-7.1-5.2-11.7c-0.8-4.6-3.4-9.1-5.9-13.4c-5-8.6-9.2-17.6-18.3-22.9c-0.8-0.5-1.7-2-2.4-1.2
		c-3,3.9-3.3,0.3-4.9-1.3c-1.9-1.9-2.9-4.1-4.2-6.4c-1.2-2.2-3.7-3.7-5.7-5.4c-0.5-0.4-1.2-1.1-2.2,0.4c-1.7,2.9-2.7,2.7-5,0.3
		c-2.4-2.6-4.7-5.3-7.2-7.8c-1.6-1.5-3.8-2.1-6.1-1.6c1.6,4.5-2.7,1.2-3.7,2.9c2.5,3.2,5.4,6.3,6.5,10.5c1,4.3,1,4.6-3.2,3.8
		c-0.9-0.2-1,0-1.3,0.7c-2,5.2-6.1,1.8-7,0.4c-3.3-5.5-9.7-5.5-14.2-9.1c-12.8-9.9-26.7-18.4-40.1-27.6c-8.7-6-17.2-12.5-26.7-17.3
		c-5.2-2.6-8-1.7-10.3,3.9c-1.5,3.6-6.1,4.4-6.9,8.4c-3-0.8-4.1,1.4-4.3,3.5c-0.3,3.1-1.9,5.3-3.6,7.5c-6.1,7.9-10.7,16.7-15.2,25.5
		c-1.9,3.7-3.5,4-6.8,1.5c-5-3.8-11.2-5-16.9-3c-3.5,1.3-4.6,0.5-6.1-2.1c-1.8-2.9-10.8-5.2-14.1-4c-4,1.5-7.8,0.2-11.7-0.7
		c-0.8-0.2-1.6-0.9-1.2-1.8c0.2-0.4,1-0.8,1.6-0.8c7.8-0.6,15.7-3.2,23.3,2c0.8-3,0.2-4.9-2.1-6.4c-0.8-0.5-3.1-0.6-1.5-2.6
		c0.4,0.2,0.7,0.5,1.1,0.7c0,0,0.2-0.2,0.3-0.3c-0.4-0.2-0.8-0.4-1.2-0.5c-0.2-1.2,0.2-2.9-2.1-2.5c-1.2,0.2-2.5,0.4-2.5,1.8
		c0.2,4.7-1.7,2.7-3.7,1.3c-1.2-0.9-2.5-1.9-3.8-2.2c-4-1.1-7.7-2.5-11.4-4.4c-2.8-1.4-7.4-5.2-10.4,0.8c-0.4,0.8-2.3,0.7-3.1-0.3
		c-1.2-1.6,0.5-1.9,1.4-2.4c2.9-1.6,5.8-3.2,9.4-2.9c3,0.2,6,0.1,9,0.1c-4.7-2-9.5-3.7-14.2-3.5c-4.8,0.2-9.5,1.4-14.4-0.4
		c-1.7-0.6-3.7-1.1-3.7-2.7c0.1-2.3,2.5-2.3,4.2-2.3c4.2-0.1,8.3,0,12.5-0.1c1.6,0,3.1-0.2,3.4-2.1c0.3-1.8-1.4-2-2.4-2.7
		c-2.8-2-6.3-0.3-9.2-2.1c-3-1.8-6.5-2-10.1-2.2c-6.1-0.3-11.7,0.8-17.2,3.6c1.3-1.4,2.7-2.5,4.3-2.9c3.7-1,2.6-2.3,0.8-4.3
		c-3.1-3.2-6.1-6.6-9-10c-12.6-14.7-25.4-29.3-38.5-43.5c-7.7-8.4-15-17.2-22.3-26c-1.7-2-3.1-2.9-5.9-2c-1.6,0.5-3.8,2.2-5.7-0.6
		c-2.1-3-4.9-5.5-7.3-8.3c-2-2.3-2.9-4.2,1.4-5c3.1-0.5,3.4-3,1.1-4.6c-3.5-2.4-5.9-5.7-8.7-8.8c-1.1-1.2-3.1-2.9-4.2-1.8
		c-3,3.3-7.9,0.2-10.8,3.7c-1.1,1.3-2.3-0.5-3.3-1.3c-7.4-5.6-14.4-11.7-21.2-18c-1.5-1.4-3.9-3.2-5.7-1.4c-2.1,2.1,0.3,3.9,1.8,5.3
		c5.3,4.8,10.5,9.6,16,14.2c4.7,3.9,5.3,6.5,2,11.5c-2,3.1-3.5,6.1-0.7,9.5c4.4,5.2,8.9,10.2,13.3,15.4c8.3,9.7,16.5,19.4,24.7,29.2
		c9.6,11.4,19.1,22.8,28.7,34.2c6.8,8.1,13.5,16.3,20.4,24.4c2.1,2.5,1.6,4.1-1.4,5.1c-2.7,0.9-5.4,1.8-7.5,3.8
		c-9,8.7-19.7,14.9-29.9,22c-0.8,0.5-1.8,1.4-2.6,1.2c-4.3-1-4.2,2.3-4.6,4.7c-0.4,2.7-0.1,5.6-0.1,9.5c-2.5-4.7-2-8.6-1.9-12.5
		c-5.3,1.1-6.9,6.2-11,8c-21.2,9.7-40.7,22.4-61.5,33c-13.1,6.7-25.2,15.2-37.3,23.6c-17.5,12.2-34,25.3-47.7,41.8
		c-12.3,14.8-24.4,29.8-38.8,42.7c-7.1,6.4-5.2,25.2,1.8,28.4c5.6,2.5,10.9,5.4,16.4,8.1c10.4,5.1,15.1,13.7,16.7,24.4
		c0.3,2.2,1,3.1,2.5,4.1c12.9,8.7,25.7,17.5,39.1,25.5c5.8,3.5,12.7,6.1,14,14.3c0.3,1.9,2.2,2.8,3.7,3.8
		c6.7,4.5,14.1,8.2,20.1,13.5c13.8,12.1,30.3,21,42.4,35.2c0.4,0.5,1,1.3,1.5,1.3c3.8,0,3.1,2.8,2.8,4.8c-0.9,6.4-1.6,12.8-2.1,19.2
		c-1.2,16.7-4.7,33-8.1,49.4c-5.7,27.7-12.1,55.2-18.5,82.7c-3.6,15.4-6.8,30.9-10.9,46.1c-3.1,11.2-7.3,22.2-8.9,33.9
		c-0.2,1.2-1.3,2.5-3.3,2.5c1.2-7.5,4.5-14.1,5.7-21.2c0.4-2.7-1.7-3.2-2.7-4.6c-0.6-0.9-3-0.9-3.5,0.4c-0.8,2.4-2.9,4.3-2.6,7.3
		c0.6,5.6-5.2,10.3-9.9,7.4c-4.4-2.8-7.7,0.2-10.3,1.4c-4.6,2.2-6.4,9.8-13.8,7.6c-0.2-0.1-0.6,0.7-0.9,1c-3.6,4.7-7.7,8.5-14.2,8.6
		c-1.8,0-3.7,0.9-5.5,1.4c1,1,2.7-0.1,3.2,2c-3.6,0.7-7.3,0-10.5,1.9c0.5,1,2,0.2,2.4,1.9c-1.5,0.9-4.6,1.1-4.5,2.8
		c0.2,4.6-2.1,2.4-4,2c-2.3-0.4-5.2,1.4-4.5,2.5c2.1,3.2-0.1,3.5-1.8,3.2c-6.1-0.9-12.1,1.9-18.2,0.6c-1.9-0.4-1.3,1.5-1.6,2.4
		c-1.3,3.1-8.2,6.9-11,5.3c-7.1-3.9-14.7-1.6-22-2.2c-0.9-0.1-2.2,0.1-2.8,0.8c-3.5,3.7-6.9,2.3-10.8,0.7c-2.9-1.3-6.9-2.8-9.3-1.1
		c-2.8,1.9-3.9,1.1-6.3-0.2c-5.1-2.9-9,2.7-14,2.8c-2.6,0-2.6,1.6-5.5-0.7c0.5-0.1,1.1-0.1,1.4-0.4c1.3-1-0.1-0.8-0.5-0.9
		c-1.9-0.4-4-0.4-5.8-1.1c-2.7-1-5.7-0.8-7.3-4.8c-0.9-2.2-4.1-5.1-7.9-4.9c-4.9,0.3-10-0.8-14.6,1.7c-0.5,0.2-1.3-0.1-1.9-0.3
		c-0.5-0.2-0.9-0.7-1.4-1.1c0.6-0.4,1.3-0.7,2.3-1.2c-7.1-0.3-13.2-3.8-20.2-3.6c-3,0.1-6.4-2-8.7-4.4c-3.9-4-9.4-5-14.6-3.1
		c-3.7,1.4-11,1.6-11.4-1.1c-0.6-4.3-5-5.8-6-9.6c-0.6-2.3-2.4-2.3-4.3-2.4c-5.6-0.1-11.1,0.9-16.7,1.7c-8,1.3-14.4,5.3-21,9.3
		C6.4,1161.9,4.4,1165,0.9,1166z M566.1,855.2c-1.1,0-2.2,0-2.9,1.1c-1.1,0.1-1.7,0.8-2.3,1.6c-0.6,0.7-1.6,1-2.4,1.6
		c-1.8,1.2-1.4,3.1,0.1,3.1c2,0,3.4-2.3,4.4-4.1c0.3-0.5,0.2-1.3,0.3-1.9c1.1-0.1,2.2,0,2.9-1.1c0.2-0.4,0.5-0.7,0.7-1.1
		c0,0-0.2-0.2-0.3-0.3C566.4,854.4,566.2,854.8,566.1,855.2z M683,573.5c-1.9,0.1-3.3,1.3-3.1,3c0.3,1.9,2.4,0.7,3.6,1
		c0.5,0.1,1,0,1.4,0.1c2.2,1.3,4.4,3.1,6.5-0.5c-2.3-1.5-4.2,0.9-6.3,0.3c-1.1-1-4.3-0.9-2-3.7c0.4-0.2,0.8-0.4,1.2-0.5
		c-0.1-0.1-0.2-0.4-0.3-0.3C683.7,573.1,683.4,573.3,683,573.5z M700.2,785.5c2.6-0.8,4.5-2.3,4.7-5.7c-3.1,1-4.1,3.1-4.9,5.5
		c-2.3,0.4-3.7,1.7-3.9,4.1c-1.8-0.2-3,0.5-4.2,2c-2.4,3.1-4.6,6.5-7.2,9.2c-3.5,3.7-4.3,7.3-3.6,11.8c0.2,1.3,0.5,3,1.8,3.3
		c1.7,0.5,2.4-1.3,3.2-2.5c2.2-3.5,3.2-7.3,3.9-11.3c0.9-4.7,3.7-8.6,6-12.7C698.9,789.7,699.6,787.7,700.2,785.5z M666,785.3
		c-9.4,1.6-16,8.1-24.6,13.2c10.7,2.1,19.4-2.8,24.8-13c0.4-0.2,0.8-0.3,1.2-0.5c-0.1-0.1-0.2-0.4-0.3-0.3
		C666.7,784.9,666.4,785.1,666,785.3z M520.8,881.9c2.8-4.3,5-7.7,7.3-11c0.8-1.2,1.3-2.4,0.9-3.7c-1.2-3.8-0.8-7.9-2.2-11.7
		c-2.7-7.2-3.5-14.6-3.8-22.3c-0.3-6.7,0-14.1-7.2-19.5C522.8,836.2,516.8,858.8,520.8,881.9z M611.6,889.3c0.9-5,6-1,7.9-3.8
		c0.4-0.6,2.3,1,3-0.5c0.8-1.7-1.3-2.4-1.8-3.7c-0.4-0.9-2-1.7-3.2-2c-3-0.8-5.3-2.1-5.1-6.3c-1.6,1.5-2.4,2.6-3.5,3.1
		c-5.9,2.8-6.1,4.4-1.2,9.2C609,886.5,611.7,886.6,611.6,889.3z M653.7,865c1.2,0.8,2.5,1.5,3.7,2.5c1.1,0.9,2.9-0.8,3.8,1.4
		c0.9,2.1,3.6,4.1,5.3,2.4c2.1-2-0.6-4-2.1-5.7c-0.3-0.4-1-0.4-1.2-0.8C660.2,858.8,657.1,859.5,653.7,865z M645,837
		c-0.5-2.7-2.5-3.8-4.8-4.3c-1.3-0.2-2.2,1-1.7,2.3c0.8,1.9-0.1,5.1,3.4,5.2C644.1,840.3,644.5,838.6,645,837z M651.5,889.1
		c-1.5-1.9-1.8-5-4.8-5.6c-1.4-0.3-2.4,1.5-2.1,2.2c0.9,2.4,2.2,4.8,5.1,5.4C650.7,891.3,651.5,890.7,651.5,889.1z M696.2,580.4
		c3.4,3.2,7.3,3.4,11.4,2.3C703.8,581.9,700,581.2,696.2,580.4z M714.8,589.9c3,4,3,4,5.6,0.1C718.5,589.3,716.7,589.4,714.8,589.9z
		 M603.3,958.3c0.7,2.3,0.3,4.6,2.8,5.5c0.3,0.1,1.4-0.6,1.4-0.9C607.3,960.7,606.2,959.1,603.3,958.3z M512.9,248
		c2.3,0.8,4.7,1.8,7.3-0.5C517.3,246.7,515.1,246.5,512.9,248z M641,898.1c1.2,0.2,1.9-0.3,1.9-1.2c0.1-1.5-1-2.5-2.2-3
		c-1.1-0.5-1.5,0.4-1.5,1.3C639.1,896.6,639.6,897.7,641,898.1z M561,852.8c2.8-0.5,5.8-0.9,5.3-5.2
		C564.8,849.7,562.7,851,561,852.8z M614.8,891.5c-0.1-0.3-0.2-0.7-0.3-0.8c-0.2-0.1-0.5,0.1-0.8,0.1c0.1,0.3,0.3,0.7,0.4,1
		C614.3,891.8,614.5,891.7,614.8,891.5z M871.8,461.1c-0.2,0.2-0.6,0.3-0.6,0.5c0,0.2,0.2,0.7,0.3,0.7c0.5,0.2,0.9-0.1,0.9-0.7
		C872.4,461.4,872.1,461.2,871.8,461.1z M609.7,791.1c-0.1,0-0.3,0-0.3,0.1c-0.1,0.1-0.1,0.3-0.1,0.4c0.2,0,0.4-0.1,0.6-0.1
		C609.8,791.3,609.8,791.2,609.7,791.1z"/>
	<path class="st1" d="M655.1,967.3c2.2-0.3,3.1-1.4,2.5-3.9C655.6,964.4,655.3,965.8,655.1,967.3c-1,0.1-2,0.3-1.9,1.6
		c0,0.2,0.4,0.6,0.5,0.6C654.9,969.2,655.1,968.3,655.1,967.3z M713,643.5c0.7,0,1.3,0,2-0.1c1,0,2-0.3,2.3-1.4
		c0.1-0.3-0.4-0.9-0.7-1.1c-0.9-0.6-2-0.5-2.7,0.4C713.5,641.9,713.3,642.7,713,643.5c-0.7,0-1.5-0.2-1.3,0.9c0,0.1,0.2,0.3,0.3,0.4
		C713.2,645,712.8,644,713,643.5z M633.2,937.2c0-1-0.2-1.9-1.4-2.2c-0.1,0-0.5,0.4-0.5,0.6C631.2,936.9,632.1,937.1,633.2,937.2
		c-0.4,1-0.9,1.9-1,2.9c-0.2,1.5-0.2,3.2,1.6,3.7c0.6,0.2,1.6-0.2,2.2-0.7c1.9-1.4,0-2.6-0.4-3.8
		C635.2,938.2,634.6,937.1,633.2,937.2z M621.2,1117c-0.1-0.6,0.1-1.4-1-1.2c-0.1,0-0.3,0.2-0.4,0.3
		C619.6,1117.3,620.6,1116.9,621.2,1117c-3.1,4.1-1.6,7.3,2,10c0.9,5.3-2.4,11,1.6,16.3c0.8,1.1,1.7,4,1.6,6.1
		c-0.4,6.7,3.4,12.7,3.1,19.5c-0.1,2,1.5,5.3,4.1,4.4c2.3-0.8,2.9-3.9,1.6-6.4c-2-3.9-2.6-8.1-3.4-12.3c-0.4-1.9-0.8-4.1-1.9-5.6
		c-1.6-2-1-3.7-1.2-5.8c-0.4-5.8-1.7-11.5-5.6-16.2C624.7,1123.3,623.9,1120,621.2,1117z M325.5,1258.9c-0.4-0.2-0.7-0.5-1.1-0.7
		c0,0-0.2,0.2-0.2,0.4C324.6,1258.7,325,1258.9,325.5,1258.9c-0.7,5.3,4.5,7.4,6.1,11.4c0.2,0.5,1.5,0.9,2.2,0.7
		c0.9-0.3,0.6-1.4,0.6-2.2C334.6,1263.7,332.5,1261.3,325.5,1258.9z M660.9,629.4l0.2,0.2c0.4,2.4,1.4,2.2,3,0.9
		c1.1-0.9,2.5-2.1,3.8-2.1c5.5,0,9.1-2.6,11.5-7.4c0.5-1.1,1.4-3.2,3.3-1.5c0.8,0.6,0.7,2.5,2.4,1.3c2.1-1.6-2.2-1.8-0.5-3.6
		c2.2,0.7,5.8-0.1,4.7,4.9c1.4-1.1,4.2-1.7,2.6-3.3c-2.8-2.9-0.2-4.3,1.1-6.3c-3.5-0.4-4.7-3.6-7.4-5c-9.9-4.9-19.8-7.4-31.4-6.3
		c-12.1,1.2-24.4,2.1-36.7,1.4c-2.5-0.2-4.9,0.3-7.3,1c-2.5,0.7-4.8,1.7-5.5,4.4c-0.2,1,7.1,5.7,8,5c3.1-2.3,4,0.2,6.1,1.7
		c3.6,2.5,2.1,5,1.3,7.6c-0.3,1-0.9,1.6,0.2,2.3c1.4,0.9,2.6,2,3.9,3c1.6-3.5,5.2-1.1,7.3-2.5c2.8-1.9,4.6-0.4,5.8,1.5
		c2.3,3.6,5.6,1.7,7.3,0.7c2.3-1.2,4.4-4,6.8-2.2c2.8,2,0,4.2-1.2,6.2c-0.5,0.8-0.2,1.7,0.5,2.2c0.9,0.6,1-0.3,1.4-0.8
		C654.7,630.3,657.6,629.4,660.9,629.4z M708.7,1241.1c-1.9,3.1-2.4,6.4-2.7,9.8c-0.6,8.2,1.2,16.2,2.4,24.2
		c1.1,7.5,3.1,14.7,11.3,18.5c4.3,2,7.1,6.5,9.1,11c1.1,2.5,2.7,3.5,5.4,3.2c11.4-1.1,20.4,3.4,27.8,11.7c1.4,1.6,3.1,2.4,5.3,2.3
		c11.7-0.6,20.4,4.7,27.2,13.8c2.3,3.1,4.8,2.8,6.3-0.8c1.5-3.9,3.4-7.8,3.8-11.8c1.6-15.3,16.2-28.2,30.8-28.3
		c5.6,0,9.4-5.8,8.3-11.2c-1.3-5.8-1.9-11.9,0.8-17.1c4.5-8.9,5-18.1,4.5-27.7c-0.1-1.5-0.1-3.1,0.5-4.4c3.2-7.6,2.3-15.1,0.6-22.9
		c-2.7-12.4-3.4-25.3-8-37.3c-3.1-8-5.4-16.4-12.6-22.2c-1.5-1.2-2.3-2.1-3.5,0.5c-2.4,4.9-5.2,9.6-6,15.1c-0.6,3.6-2.9,5.8-6.7,5.2
		c-4.7-0.7-9.6-1.4-13.9-3.3c-1.8-0.8-6.3-0.1-5.6-3.7c1.4-7.1-0.4-14.2,0.3-21.3c0.1-0.9-0.4-2,0.6-2.7c2.3,1.4,5.5-0.3,7.2,3
		c1.4-3.1-1.7-4.5-1.5-6.3c0.7-8.1,0.9-16.4,3.2-24c2.9-9.6,4.5-18.6-1.9-27.3c-0.8-1.1-1.9-2.3-1.9-3.4c0.1-6.4-5-11.1-5.7-17.3
		c-0.2-1.4-1.6-2.7-2.7-1.3c-4.8,6-10.9,10.9-13.4,18.7c-4.1,13.1-6.4,26.7-9.6,40c-3,12.6-7.4,24.7-13.2,36.2
		c-3.3,6.6-7.1,13.3-12,18.7c-4.4,4.8-6.9,9.8-7.5,16c-0.1,0.7-0.5,1.3-0.8,2.2c-3-4.3,0-9.4-2.8-13.8c-3.4,6.5-0.5,13.6-2.9,20.8
		c-2.1-4.7-3.8-8.5-5.5-12.2c-0.7-1.6-2-2.9-3.8-2.5c-1.8,0.4-1.7,2.3-1.6,3.8c0.3,6,0.7,11.9,1.2,17.8c0.2,1.9,0.3,4.6-1.2,4.9
		c-3.6,0.8-2.2,3.1-1.9,4.8c0.9,5.5,2,11.1,3.2,16.5c1.4,6.3,3.4,12.4,4.6,18.7c2.2,10.9,0.6,21.9,1,32.8c0.1,1.6-0.1,3.1-1.8,4.3
		C716.6,1276.2,707.1,1260.3,708.7,1241.1z M411.9,766.6c0.1,3.2,0.1,6.1,3.4,7.3c0.5,0.2,0.9,0.8,1.3,1.3c-3.4,3.2,0.3,6,0.8,8.9
		c0.7,4.8,5.8,6.5,9.5,3.2c2.1-1.9,4.4-3.3,6.1-0.2c2.2,4.1,3.4,1.8,4.6-0.4c1.4-2.4,2.5-5,3.8-7.5c0.6-1.1,1.7-2.3,2.7-1.2
		c4.6,5.1,6.3,0.5,8.6-2.3c1.7-2.1,3.5-4.7,6.5-2.3c4,3.2,7.3,1.5,10.8-0.9c2.6-1.8,5.2-4,8.6-3.1c7.8,2,15.3,1.1,22.6-2
		c1-0.4,2.2-0.6,3.4-0.7c3.3-0.3,8.6-0.3,9.2,1.5c2,5.6,5.9,5.1,10.1,5.3c1.8,0.1,2.1,1.2,0.6,2.7c-4,3.8,1.3,3.9,2,3.7
		c5.1-1.6,9.3,1.4,14,2c3,0.4,5.5,1.9,8.3,2.6c6.9,1.8,11.3-5.9,18-4.7c0.2,0,0.6-0.4,0.7-0.7c3.1-6.4,6.3-12.8,9.2-19.2
		c1-2.3,1.4-4.6-2.7-4.8c-2.7-0.1-4.8-2.5-6.2-4.7c-2.2-3.5-5.5-5.5-8.4-8.1c-1.4-1.3-3.7-1.2-4.5-3.5c-3.8-10.7-12.6-18-19.2-26.7
		c-4.9-6.5-10.7-12.3-12.5-20.3c-1.4-6.4-4.4-13.5,1.9-19.4c0.5-0.5,0.9-2,0.7-2.2c-4.4-3.6,0.3-3.7,1.8-5.1c1.4-1.2,2.7-2.4,4-3.7
		c0.7-0.7,1.6-1.4,1.2-2.5c-0.5-1.3-1.7-1.6-2.9-1.5c-2.8,0.1-5.7-0.1-8.4,0.5c-11.5,2.3-22.5,0.2-33.6-2.6c-8.5-2.2-17-4-25.7-4.8
		c-5.2-0.5-7.1,1.5-8,6.8c-0.2,1.2-0.9,2.8-1.9,3.4c-4.3,2.6-7.2,8.2-13.5,6.9c-0.6-0.1-1.5,0.6-2.1,1.2
		c-10.3,10.5-23.7,16.7-35.1,25.6c-8.7,6.7-17.5,13.6-23.5,22.6c-7.1,10.8-14.6,21.6-18.6,34.2c-0.3,1-1.3,1.8-2,2.8
		c2.3,0.9,4.7,1.7,6.9,2.7c3.4,1.5,6.8,3.1,10.5,2.2c3.4-0.9,6-0.7,8.4,2.2c1.6,2,3.8,2.9,5.2-0.6c0.4-1.1,1.9-2.6,2.4-1.9
		c2.2,4,6,5.5,9.8,7.2c0.2,0.1,0.4,0.9,0.2,1.3c-1.1,3.2,2.2,2.4,3.3,3.5c1.1,1.1,2.7,0.5,3.7-1.1
		C408.6,768.5,409.6,767.1,411.9,766.6z M477.5,977c3.9-1.6,5.6-5,7-7.6c2.2-4.2,2.8-9.3,4.2-14c0.2-0.8,0.5-1.7-0.5-2.1
		c-3.5-1.2-5.1-4.6-7.9-6.7c-17.9-13.1-35.2-27-50.4-43.4c-3.4-3.7-6.2-7.6-7.6-12.5c-0.4-1.5-0.5-2.5,0.3-3.6
		c1-1.3,2.3-0.9,3.6-0.5c1.3,0.4,2.3,1.8,4.1,0.7c3.8-2.4,11.3-2,14.4,1.3c4.1,4.4,9.2,7.5,13.5,11.6c4.9,4.8,10.8,8.6,15.9,13.4
		c7.1,6.7,14.6,13,20.3,21c1,1.4,1.3,2.7,0.6,4.2c-1.1,2.4-2.6,4.6-3.2,7.1c-0.4,1.7-3.1,3.3-1.4,4.7c2.2,1.9,2.7-1.3,4-2.2
		c1.4-0.9,3.9-0.9,1.7-3.6c-0.9-1.1,0.7-1,1.3-1.2c1.4-0.3,2.8-0.6,4.4-0.8c-5.3-6.3-4.7-8.9,3.1-12.9c3.8-2,4-6.1,6-9.1
		c0.2-0.2-0.3-1.2-0.4-1.2c-2.4,0.1-3.4-3-5.6-2.6c-1.9,0.3-1.6,2.6-2.3,4c-0.4,0.9-1.3,1.5-1.7,2.4c-2,4.3-4,2.7-5.4-0.2
		c-2.3-4.6-5.2-8.9-8.2-13.1c-8.9-12.5-14.5-26.3-17.2-41.3c-0.3-1.5-0.9-2.8,0.9-3.8c1.8-1,2.8,0.1,3.8,1.2
		c2.3,2.4,4.6,4.8,6.6,7.4c3.9,5.2,7,11.2,13.2,14.4c1,0.6,1.9,1.5,3.1,0.4c1-0.9,1.9-1.8,1.1-3.4c-0.4-0.9-0.6-1.9-1-2.8
		c-3.1-8.2-5.9-16.5-7.8-25.1c-1.8-8.3-2.1-17-6.1-24.9c-2.9-5.8-7.7-10.3-10.3-16.2c-0.9-2-2.7-1.8-4.3-1.3c-4.5,1.2-9,2.2-13.3,4
		c-11,4.7-19.6,12.7-28,20.9c-6.4,6.2-12.9,12.4-16.5,20.8c-1.8,4.2-4.6,8.4-1.8,13.2c1.7,3,1.9,6.3,1.8,9.6c0,2,0,3.8,1,5.8
		c5.2,10.1,10.3,20.2,17.3,29.2c4.4,5.6,6.2,13.3,13.8,16c0.5,0.2,1.2,0.9,1.3,1.4c1.7,6.6,7.6,9.6,12,13.8c3.6,3.4,7,6.6,9.6,10.9
		c2.1,3.5,4.8,7.6,8.2,9.1C478.9,971.2,480.5,972.5,477.5,977z M645.7,1032.3c1-0.8-4.2-4.5,1.4-3.1c2.5,0.7,2.2-1,1.7-2.1
		c-0.8-1.8-2-3.2-4.3-3.7c-3.2-0.6-4.6-4-2.3-5.9c1.8-1.5,1.1-2.8,0.5-3.7c-1.9-2.8-4.2-5.2-8.7-6.1c2.4,3.1,2.1,5.9,0.4,7.8
		c-1.2,1.4-1.9-1.9-3.6-1.8c-1.4,1.9-0.4,6.2-5,5.2c-0.6-0.1-0.7,1-0.6,1.7c0.1,1.4,1.2,0.7,1.9,0.8c2,0.3,4.8,0.8,3.3,3.3
		c-1.8,2.9-1.4,4.8,0.7,7c0.8,0.8,1.1,1.7,0.3,2.6c-0.6,0.7-1.2,1.8-2.4,0.7c-1.6-1.4-2.7-0.6-3.7,0.8c-1.1,1.6-1,2.8,0.8,4.1
		c1.5,1,1.4,2.8-0.3,3.7c-2.9,1.5-2.1,3.7-0.4,5c4.7,3.6-1.4,2.2-1.5,3.4c-0.1,1.9,4.1,0.9,2.5,4.2c-1.4,2.9-2.5,1.6-4.2,0.9
		c-1.2-0.5-1.4,1.1-2,1.7c-0.8,0.8-0.4,1.6,0.4,2c4.3,2.6,4.7,8.1,8.6,11c1.2,0.9,0.4,2-0.2,3c-1.3,2.4,0.6,4.3,1.4,6.3
		c0.7,1.8,1.9,0.5,3.1-0.4c1.2-0.9,0.9,0.7,1.3,1.2c1.2,1.5,2.4,3,4.3,5.3c-0.2-3.8,0.5-4.5,3.3-2.8c4.9,3,10.7,3.3,16.2,4.1
		c2.5,0.3,5.7-0.4,7.1-2.6c1.2-2-0.4-4.4-1.7-6.4c-0.8-1.3-1.6-2.6-2.7-3.6c-2.7-2.5-5.6-4.9-8.2-7.6c-3.1-3.1,3.1-7.3-1.8-9.7
		c-0.3-0.1,0.5-1,0.9-1.5c2.1-2.5,1-6.2-1.8-5.8c-6.4,0.7-6.6-4.8-9.8-7.9c3.8-0.7,4.3,2.1,5.4,3.9c0.4,0.7,0.5,1.8,1.6,1.3
		c0.7-0.3,1.5-1,1.7-1.7c0.6-1.8-3.1-9.5-4.8-9.6c-2.8-0.2-4.4-0.8-3.5-4.2C642.1,1029.3,644.3,1033.5,645.7,1032.3z M601.8,600.1
		c4.2-0.8,5.9-3.5,7.8-5.6c5.6-6.2,12.4-10.6,20.5-12.3c4.5-1,9.5-2.4,13.3,1.6c5.3,5.5,9.5,11.7,18.5,12.4
		c11.9,0.9,22.2,7.1,32.8,12.2c1,0.5,2.3,1.8,3.4-0.1c0.9-1.7-0.2-2.5-1.3-3.3c-3.6-2.6-7.4-5-11-7.6c-13.5-9.6-27.9-17.7-41.3-27.5
		c-2.1-1.5-4.3-4.3-8-2.8c-1.4,0.6-2.4-0.8-1.9-2.5c0.6-2.2-0.5-3.4-2.2-4.4c-2.1-1.2-3.1,0.6-4.1,1.7
		C617.8,573.2,609.2,585.6,601.8,600.1z M462.3,988.5c6,1.4,3.4-1.7,2.5-4c-0.9-2.1-1.6-4.2-2.3-6.4c-2.3-7-4.5-12.8-12.8-16.4
		c-9.6-4.1-20.3-6.3-28.6-13.4c-1.5-1.3-3.2-1.1-3.3,0.9c-0.6,8.2-0.4,16.6,3.5,24.1c3.1,6,9.1,9.7,14,14.3c1,0.9,2.7,2.2,2.5,2.9
		c-1.1,4.2,2.4,3.8,4,3.4c3.1-0.6,1.2-3,0.9-4.7c-0.4-2.4-3.1-5-1.2-6.9c2.1-2.1,1.3-3.7,0.7-5.7c-0.3-1.1-1.1-2.3,0.3-3.1
		c1.2-0.7,2.4,0.2,3,1.1c1.9,3.1,4.6,5,7.7,6.7c0.8,0.4,2.1,1.4,2,1.9C454.2,990.2,459.6,987.4,462.3,988.5z M452.9,1216.6
		c2.5,0.9,4.1,0.1,5.8-1.4c2.8-2.6,5.9-4.9,9.5-6.1c1.1-0.4,2.4-0.4,2.7-1.8c0.3-1.4-0.9-2.1-2-2.5c-5.8-2.1-6.2-9.8-12.3-11.6
		c-0.6-0.2-1-1.7-1.2-2.6c-0.8-4-1.7-8.1-2.3-12c-0.5-3.1-4.5-6.7-0.5-10.2c0,0-0.2-0.6-0.5-0.8c-2.9-1.6-1.5-4.4-1.9-6.7
		c-0.6-3.6,1.9-7.3,0.7-10.4c-2.4-6.3-0.8-13.3-4.6-19.3c-1.2-2-7.2-6.5-9.5-6c-2,0.5-1.2,1.7-0.6,2.6c1.7,3.3,6.1,5.8,2.8,10.5
		c-0.1,0.1,0.5,0.8,0.9,1c3,1,2.9,3.8,3.4,6.1c1.2,5.4,2.7,10.9,3.1,16.4c0.4,5.1,2.7,10.6,0.4,15.1c-2.7,5.4-1.4,9.4,0.4,14.4
		c1.2,3.2,2.2,6.8,1.3,10.5c-0.3,1.3-2.1,2.9,0.3,4.3c2.3,1.3,2.8-1,4-1.8c0.9-0.6,1-2.8,2.9-1.3c3.4,2.6,3.7,5.6,0.4,8.7
		C454.9,1213.2,454,1214.6,452.9,1216.6z M438.8,1099c7.1-5.6,4-11.5,0.3-17.5c-1.8-3-4.5-5.8-5.1-9c-0.9-4.7-3.6-7.7-6.5-10.8
		c-2.6-2.8-4.9-5.8-7.3-8.8c-3.2-4-5.8-8.9-10.8-11.2c-1.1-0.5-2.4-1-3.2,0c-0.9,1,0.2,1.8,0.9,2.5c6.8,7.3,10.4,16.7,15.6,25
		C428.6,1078.7,432.1,1089.7,438.8,1099z M736,659c-2.6-0.2-3.2,1.4-4.3,2.3c-1.6,1.3-3.4,2-4.8,0.3c-1.8-2.2,0.8-2.6,1.9-3.5
		c0.8-0.6,1.6-1.1,2.5-1.7c1.7-1.1,2.1-2.6,1.3-4.3c-0.8-1.7-2.2-1.5-3.8-1c-1.7,0.5-3.3,1.7-5.2,1.1c-3-1-2.9-0.2-1.8,2.4
		c1.2,2.7-0.5,4.5-3.3,4.8c-2.6,0.3-5.1-0.1-7.8-0.9c-7-2.1-14.2-3.9-21.6-2c-1.6,0.4-2.8,1-2.9,2.8c0,2.2,1.7,2.9,3.3,3
		c3.1,0.2,6.3,0.8,9.3-0.4c3-1.2,5.9-0.9,8.4,0.8c2.2,1.5,4.5,1.9,7,1.8c4.3-0.1,8.6-0.3,12.9,0C731.4,664.9,733.9,662.9,736,659z
		 M414.3,992.4c2-2.4-1.1-3.6-1.6-5.5c-1.4-6-1.4-12.2-4-18c-0.7-1.5-0.2-4.1-3.1-3.5c-2.2,0.5-3.2,2.1-3.3,4.4
		c-0.5,9.7,2.2,18.6,6.2,27.2c0.8,1.7,2.4,2.5,4.1,1.9c1.5-0.6,3-1.7,2.1-3.8C414.5,994.3,414.5,993.4,414.3,992.4z M693.8,634.6
		c-0.5,0.1-1,0.2-1.5,0.3c-3.6,0.9-8.2,10.2-6,13.1c1.3,1.7,0.4,6.4,4.7,4.9c4.1-1.5,8.1-1.4,12.3-1.4c1.6,0,3.5,0.4,3.7-2.1
		c0.2-2.3-1.1-2.5-3-3c-4.4-1.1-7.6-4.2-7.1-8.8C697.2,634.2,695,635.4,693.8,634.6z M626.2,1234.4c0-1-0.4-2.4,0.6-2.7
		c1.7-0.6,3.4-0.2,4.9,1.2c1.8,1.8,3.5,0.7,4.3-1.2c0.5-1.4,1.7-3.6-1.6-3.9c-1-0.1-2.2-0.9-2.9-1.8c-2.4-2.8-4.5-1.8-6.8,0.1
		c-1.3,1-2.6,2.1-4,2.9c-2.9,1.6-2.6,3.6-1.4,6.2c1.6,3.3,5.7,4.4,6.7,8.2c0.2,0.8,1.8,0.6,2.7,0.2c1.2-0.6,1.1-1.6,0.5-2.5
		C627.7,1239,626.7,1236.8,626.2,1234.4z M341.5,1151.1c0.2-3.3-0.8-4.9-3.5-5.3c-2.2-0.3-4.5,0.4-5,2.2c-1.7,5.3-2.7,10.8-4,16.1
		c-0.5,2,0.7,3,2,3.4c1.8,0.6,2.3-0.9,2.4-2.3c0.2-2.6,1.9-3.2,4.1-3.2c2.1,0,3.5-0.4,1.7-2.8c-0.8-1.1,0.6-2.1,0.5-2.3
		C338.9,1154.2,340.7,1152.4,341.5,1151.1z M379.8,1103.7c-1.3,0.6-0.9,1.6-0.7,2.8c0.9,5,3.8,9.7,4,14.6c0.4,8.2,6.8,13.4,8.8,20.6
		c0.3,0.9,1.6,1.8,2.6,2.1c1.3,0.4,2.8,1.9,4.1,0.3c1.5-1.8-0.5-2.6-1.3-3.7c-6-8.4-11.9-16.8-14-27.2c-0.5-2.6-1.3-5.1-1.9-7.7
		C381.1,1104.7,380.8,1104,379.8,1103.7z M501.7,953c1.6-0.1,1.8-1.5,2.4-2.4c4.7-6.9,9.2-13.8,14-20.6c1-1.4,3.3-2.5,1.3-4.3
		c-1.7-1.5-3.4,0-4.6,1.5c-5.2,7.1-8.4,15.4-14,22.2C499.9,950.6,499.7,952.3,501.7,953z M669.5,930.6c-0.4-0.9-1.1-3.3-2.9-3.7
		c-2.2-0.5-1.5,2.4-2.5,3.5c-1,1.1-0.8,2.3,0.2,3.6c1.5,1.9,0.7,3.6-0.7,5.3c-1.9,2.4-4.4,4.3-5.6,7.4c-0.7,1.9,0.5,2.4,1.5,3.1
		c0.9,0.6,2.1,1.4,2.8-0.3C664.9,943.6,669.1,938.3,669.5,930.6z M323.4,1225.4c0.7,7,6.1,11.3,9.4,17.6c1.1-2.7-0.7-4.3,0-6.2
		C335.9,1228,332.8,1224.2,323.4,1225.4z M617,626.9c-2-1-2.6-2.2-2.2-4.4c0.5-2.1-1-4.4-3.4-4.7c-5.2-0.7-8.3,4.1-6.2,9.2
		c1,2.5,4.6,3.5,6.5,1.6C613,627.2,614.8,627.7,617,626.9z M324.4,1185.7c0.1,0.8-0.1,1.7,0.2,2.5c1,2.8,2.4,6.1,5.3,6.4
		c2.6,0.3,1.4-3.5,2.6-5.1c0.4-0.5,0.5-1.2,0.9-1.7c1-1.4,2-3.4,0.3-4.3c-2-1.1-3.5-4.6-5.2-3.7
		C326.6,1180.7,324.4,1182.9,324.4,1185.7z M651.2,1017.6c-0.7-2.8-0.3-5.7-1-8.3c-0.4-1.7-1.4-5.6-3.1-5c-3,1.1-4.9-0.3-7.3-0.9
		c-0.6-0.2-1.4,0.1-1.6,0.8c-0.2,0.7,0.3,1,0.8,1.5C642.9,1009.7,647.5,1013,651.2,1017.6z M446.8,1030.7c3.4,5,6.4,9.4,10.8,12.5
		c2.1,1.5,3.1-0.1,3.5-1.8c0.3-1.2,1.6-3.5-1.5-3.4c-2.6,0.1-3.1-2.3-4.3-3.7C453.2,1032.2,451.2,1030.5,446.8,1030.7z M486.2,981.3
		c6.2-8.4,9.1-17.1,14.6-24.2c0.5-0.7,0.8-1.7-0.1-2.2c-1.2-0.7-2.4,0.2-2.9,1.1c-2,3.3-4.5,6.6-5.6,10.3
		C490.7,971.1,486.6,974.7,486.2,981.3z M649.5,732.6c-0.8,5.9,4.9,4.3,7.3,6.9c3.9,4.3,5.2,4.2,9.6,3.1c-2.3-1.6-3.5-4.4-6.7-4.7
		c-1-0.1-2.9-2.3-2.8-2.4c2.3-3.4-1.5-2.6-2.3-2.8C652.9,732.2,650.9,732.1,649.5,732.6z M590.4,616.1c1.2,2.4,4.5-0.4,4.5,2.4
		c0,3,2.8,4.8,2.5,8c-0.3,2.8,1.2,3.1,3.7,1.3c2.7-1.9,1.8-3.6,0.4-5.4c-1.2-1.6-3.2-2.8-3.9-4.5
		C595.8,613.5,593.5,614.4,590.4,616.1z M648.5,976.1c-1.9,2-1.3,3.3-0.4,4.6c0.6,0.8,1.3,1.8-0.1,2.4c-3,1.3-1,2.7,0.2,3.5
		c2,1.3,4,2.7,6.8,3C655.7,983.3,650.1,981,648.5,976.1z M378.4,1101.1c1.3-6.5,0.9-13-0.7-19.4
		C373.8,1088.3,376.9,1094.7,378.4,1101.1z M333,1220.6c0.3-2.3-2.5-3-2.2-4.4c1.4-7.4-3.8-4.7-7.6-5.2
		C326.9,1214.2,326.3,1221.1,333,1220.6z M643.1,918.6c-0.1,2.2,0.9,4,2.1,5.5c1.3,1.7,4,2.3,5.2,1.4c1.8-1.4-0.4-2.9-1.5-3.9
		c-1.3-1.2-1.5-2.9-2.4-4.2c-0.6-0.9-1.5-1.5-2.5-1.2C642.6,916.5,643.3,917.8,643.1,918.6z M450.9,1061.2c1.2-0.3,3,0.4,3.1-1.5
		c0.1-1.6-1.5-1.3-2.6-1.5c-2.8-0.7-5.9-1-7.7-3.8c-0.5-0.9-1.6-1.4-2.6-0.7c-1.2,0.9,0,1.7,0.5,2.5
		C443.7,1059.6,447.6,1059.8,450.9,1061.2z M320.4,1254.4c4.5,1.4,8.6,2.6,13,3.9C332.3,1252.1,332.3,1252.1,320.4,1254.4z
		 M404.6,1190.3c-3.2-4.5-7.8-7.2-12.7-9.4C395,1185.5,399.2,1188.7,404.6,1190.3z M312.5,1273.5c3.8,3.8,8.6,5.5,13.2,7.3
		c0.8,0.3,1.8,0.2,2.2-0.6c0.2-0.4-0.3-1.5-0.6-1.6C322.3,1276.8,317.4,1275.2,312.5,1273.5z M579,635.1c-0.1-0.3-0.1-0.7-0.3-0.9
		c-0.9-1.2-8.7-1.3-9.7-0.1c-0.4,0.6-0.8,1.6-0.6,2.3c0.3,1.2,1.4,1.2,2.4,0.8c2.2-0.9,4.3-2.7,6.9-0.5
		C578.2,637.1,579,636,579,635.1z M336.6,1143.6c0.9-1.5,4.2,0.7,4.3-1.7c0.1-2.3-2.6-3.4-4.8-3.5c-1.8-0.1-2.3,1.8-2.4,3.2
		C333.6,1143.1,334.5,1144,336.6,1143.6z M332,1175.4c-3-1.4-4.3-5.3-9.4-4.1C326.2,1173.1,325.5,1180.2,332,1175.4z M625,1009.8
		c-1.5,1.1-4.6,0.2-5.3,2.8c-0.3,1.2,1.9,2.2,2.9,2.1c2.1-0.3,3.5-2.1,4.3-4C627.2,1009.9,626.2,1009.3,625,1009.8z M736.4,638.8
		c-4.9-3-9.9-4.2-16-1.3C726.3,637.4,731.5,637.2,736.4,638.8z M739,655.2c4.9-5.1,5.1-9.5,0.6-12.5C743,647,740.1,650.4,739,655.2z
		 M678.8,749.6c1.8-3.5,1.2-5.4-0.7-6.8c-0.7-0.6-2.2-0.5-2.6,0.5C674,746.7,678.4,746.4,678.8,749.6z M332.7,1294.9
		c-3-2-4.8-2.9-6.8-3.2c-1.5-0.3-2.3,0.9-2.5,1.8c-0.2,1.3,1.2,1.3,2.1,1.4C327.5,1294.9,329.4,1294.9,332.7,1294.9z M711.9,623.8
		c-2.7-0.2-4.4,1.2-4.3,3.2c0.1,2.3,3.3,0.7,4.4,2.5C711.5,627.4,711.6,625.5,711.9,623.8z M587.8,937.5c1.4-0.5,3.8,0.2,3.8-2.1
		c0-1.6-1.8-1-2.8-1.1c-1.5-0.1-3.2,0.1-3.2,2.1C585.5,937.6,586.6,937.9,587.8,937.5z M679.4,630.2c1.3,2.2,0.4,4.5-0.1,7.5
		c2.2-2,3.4-3.5,6.5-4.3C682.7,632.6,680.9,631.9,679.4,630.2z M475,1218.2c-0.1-1.2-0.7-2-1.9-1.8c-1.3,0.2-2.6,0.7-2.7,2.3
		c-0.1,1,0.1,2.1,1.4,2.1C473.5,1220.7,474.4,1219.6,475,1218.2z M607.7,992.8c0.3-1.2-0.5-1.5-1.4-1.5c-1.7-0.1-2.9,0.7-3,2.5
		c-0.1,1-0.1,2.2,1.4,1.9C606.3,995.4,607.3,994.4,607.7,992.8z M616.5,818c0-2.2,3.1-2.2,3.3-4.5c0-0.2-0.9-0.8-1-0.7
		c-1.5,1.1-3.9,1.4-4.3,3.6C614.3,817.3,615.1,817.8,616.5,818z M335.7,1285.9c-2.6-1.9-1.7-4.8-4-5.7c-0.8-0.3-1.2,0.9-1.1,1.8
		C330.8,1284.4,332.1,1285.6,335.7,1285.9z M655.1,974.4c-1.1-0.1-1.9,0.4-1.6,1.3c0.4,1.1,0.1,2.9,1.8,3c1.2,0.1,2.2-1,2.3-2.1
		C657.8,974.9,656.1,974.9,655.1,974.4z M416.5,1030.5c2.4,0.8,4,2.4,6.2,1.1c0.2-0.1,0.2-1,0-1.2
		C420.9,1028.6,419,1028.9,416.5,1030.5z M536.9,604.1c-4.3-3.2-5.7-3.3-9.6-0.7C530.5,601.9,533.4,604.1,536.9,604.1z M512,588.4
		c3.2,0,5.4,0.3,7.4-0.9c0.1-0.1,0-1.1-0.2-1.2C516.8,585,515,586.3,512,588.4z M739.1,639.8c-0.3,0.2-0.7,0.4-0.7,0.5
		c0,0.2,0.2,0.7,0.3,0.7c0.5,0.2,0.9-0.1,0.8-0.6C739.5,640.3,739.2,640.1,739.1,639.8z"/>
	<path class="st2" d="M897.8,1063.2c-1.7,1.5-3.1,3-5.5,0.8c-2.5-2.3-0.1-3.3,0.7-4.8C895.7,1059.1,897.4,1060.4,897.8,1063.2z"/>
	<path class="st1" d="M680,242.9c-0.2,1.6,0.7,4.1-2.2,3.8c-2.5-0.2-1.5-2.4-1.7-3.8c0,0-0.1,0.1-0.1,0.1
		C677.4,242.9,678.7,242.9,680,242.9L680,242.9z"/>
	<path class="st1" d="M512.9,248c2.2-1.5,4.4-1.2,7.3-0.5C517.6,249.7,515.2,248.8,512.9,248z"/>
	<path class="st1" d="M882.9,1040c1.2,0.2,2.3,0.6,2.5,1.9c0.1,0.8-0.6,1.1-1.3,1c-1.6-0.3-1.2-1.7-1.4-2.7
		C882.7,1040.2,882.9,1040,882.9,1040z"/>
	<path class="st1" d="M852.9,404.8c-0.2,0.9,0.2,2-1,2.4c-0.2,0.1-0.8-0.4-0.9-0.8c-0.3-1.2,0.6-1.7,1.6-1.9
		C852.7,404.6,852.9,404.8,852.9,404.8z"/>
	<path class="st1" d="M754.8,823.5c-0.8-0.2-1.6-0.4-1.4-1.4c0.1-0.3,0.8-0.6,1.1-0.6c1.3,0.2,0.5,1.1,0.5,1.8
		C755,823.3,754.8,823.5,754.8,823.5z"/>
	<path class="st1" d="M614.8,891.5c-0.2,0.1-0.5,0.3-0.7,0.4c-0.1-0.3-0.3-0.7-0.4-1c0.3-0.1,0.6-0.2,0.8-0.1
		C614.6,890.9,614.6,891.2,614.8,891.5z"/>
	<path class="st1" d="M871.8,461.1c0.2,0.2,0.6,0.4,0.6,0.6c0.1,0.6-0.4,0.8-0.9,0.7c-0.2-0.1-0.4-0.5-0.3-0.7
		C871.2,461.4,871.6,461.2,871.8,461.1z"/>
	<path class="st1" d="M168.5,118.8c0.1-0.6,0.1-1.3,0.9-1.2c0.2,0,0.6,0.4,0.6,0.6c0,0.9-0.8,0.7-1.3,0.8
		C168.7,119.1,168.5,118.8,168.5,118.8z"/>
	<path class="st1" d="M566.2,855.4c-0.7,1.1-1.8,1-2.9,1.1c0,0-0.2-0.2-0.2-0.2c0.7-1,1.8-1,2.9-1.1L566.2,855.4z"/>
	<path class="st1" d="M558.3,588.4c0.4,0.2,0.8,0.4,1.2,0.5c-0.1,0.1-0.3,0.3-0.3,0.3c-0.4-0.2-0.7-0.4-1.1-0.7
		C558.1,588.6,558.3,588.4,558.3,588.4z"/>
	<path class="st1" d="M666,785.3c0.4-0.2,0.7-0.5,1.1-0.7c0,0,0.2,0.2,0.3,0.3c-0.4,0.2-0.8,0.3-1.2,0.5
		C666.2,785.5,666,785.3,666,785.3z"/>
	<path class="st1" d="M609.7,791.1c0,0.1,0.1,0.2,0.1,0.4c-0.2,0-0.4,0.1-0.6,0.1c0-0.1,0-0.3,0.1-0.4
		C609.5,791.1,609.6,791.1,609.7,791.1z"/>
	<path class="st1" d="M566.1,855.2c0.2-0.4,0.3-0.8,0.5-1.2c0.1,0.1,0.4,0.2,0.3,0.3c-0.2,0.4-0.4,0.7-0.7,1.1
		C566.2,855.4,566.1,855.2,566.1,855.2z"/>
	<path class="st2" d="M892.8,1058.2c-0.7-0.4-0.7-0.7,0-1.1C892.8,1057.4,892.8,1057.8,892.8,1058.2z"/>
	<path class="st3" d="M708.7,1241.1c-1.5,19.2,7.9,35.1,14.6,52c1.7-1.1,1.8-2.7,1.8-4.3c-0.4-10.9,1.2-22-1-32.8
		c-1.3-6.3-3.2-12.4-4.6-18.7c-1.2-5.5-2.3-11-3.2-16.5c-0.3-1.7-1.7-4,1.9-4.8c1.5-0.3,1.3-3,1.2-4.9c-0.5-5.9-0.8-11.9-1.2-17.8
		c-0.1-1.5-0.2-3.3,1.6-3.8c1.8-0.4,3.1,0.9,3.8,2.5c1.7,3.7,3.4,7.5,5.5,12.2c2.4-7.2-0.6-14.2,2.9-20.8c2.8,4.4-0.2,9.5,2.8,13.8
		c0.3-0.8,0.8-1.5,0.8-2.2c0.7-6.2,3.1-11.2,7.5-16c5-5.4,8.7-12.1,12-18.7c5.8-11.5,10.1-23.6,13.2-36.2c3.2-13.3,5.5-26.9,9.6-40
		c2.5-7.8,8.6-12.7,13.4-18.7c1.1-1.4,2.5-0.1,2.7,1.3c0.7,6.1,5.8,10.8,5.7,17.3c0,1.1,1.1,2.3,1.9,3.4c6.4,8.7,4.8,17.6,1.9,27.3
		c-2.3,7.7-2.5,16-3.2,24c-0.2,1.7,2.9,3.2,1.5,6.3c-1.6-3.3-4.9-1.6-7.2-3c-1,0.7-0.5,1.8-0.6,2.7c-0.7,7.1,1.1,14.1-0.3,21.3
		c-0.7,3.6,3.8,2.9,5.6,3.7c4.3,1.9,9.1,2.6,13.9,3.3c3.7,0.5,6.1-1.7,6.7-5.2c0.9-5.5,3.7-10.2,6-15.1c1.3-2.6,2-1.7,3.5-0.5
		c7.2,5.7,9.5,14.2,12.6,22.2c4.6,12,5.3,24.8,8,37.3c1.7,7.8,2.6,15.3-0.6,22.9c-0.6,1.3-0.5,3-0.5,4.4c0.5,9.5,0,18.8-4.5,27.7
		c-2.7,5.3-2,11.4-0.8,17.1c1.2,5.4-2.7,11.2-8.3,11.2c-14.6,0.1-29.1,13-30.8,28.3c-0.4,4-2.3,8-3.8,11.8c-1.4,3.6-3.9,3.9-6.3,0.8
		c-6.8-9.1-15.5-14.4-27.2-13.8c-2.2,0.1-3.8-0.7-5.3-2.3c-7.4-8.3-16.5-12.8-27.8-11.7c-2.7,0.3-4.3-0.7-5.4-3.2
		c-2-4.5-4.8-9-9.1-11c-8.2-3.8-10.2-11-11.3-18.5c-1.2-8-3-16-2.4-24.2C706.3,1247.5,706.7,1244.2,708.7,1241.1z"/>
	<path class="st3" d="M411.9,766.6c-2.3,0.5-3.3,1.9-4.2,3.2c-1,1.5-2.7,2.2-3.7,1.1c-1.1-1.1-4.4-0.3-3.3-3.5
		c0.1-0.4,0-1.2-0.2-1.3c-3.8-1.7-7.5-3.3-9.8-7.2c-0.4-0.7-1.9,0.8-2.4,1.9c-1.4,3.4-3.6,2.6-5.2,0.6c-2.4-3-4.9-3.1-8.4-2.2
		c-3.7,0.9-7.1-0.7-10.5-2.2c-2.3-1-4.6-1.8-6.9-2.7c0.7-1,1.7-1.8,2-2.8c4-12.6,11.5-23.4,18.6-34.2c6-9.1,14.9-15.9,23.5-22.6
		c11.5-8.9,24.9-15.1,35.1-25.6c0.5-0.6,1.5-1.3,2.1-1.2c6.4,1.3,9.2-4.3,13.5-6.9c1-0.6,1.7-2.1,1.9-3.4c0.9-5.3,2.8-7.3,8-6.8
		c8.7,0.8,17.3,2.6,25.7,4.8c11.1,2.8,22.1,4.9,33.6,2.6c2.7-0.5,5.6-0.4,8.4-0.5c1.2,0,2.4,0.2,2.9,1.5c0.4,1.1-0.5,1.8-1.2,2.5
		c-1.3,1.3-2.6,2.5-4,3.7c-1.6,1.3-6.2,1.5-1.8,5.1c0.2,0.2-0.2,1.7-0.7,2.2c-6.3,5.9-3.3,13-1.9,19.4c1.8,8,7.7,13.8,12.5,20.3
		c6.5,8.7,15.3,16,19.2,26.7c0.8,2.3,3.1,2.2,4.5,3.5c2.9,2.6,6.2,4.6,8.4,8.1c1.4,2.2,3.5,4.6,6.2,4.7c4.1,0.2,3.7,2.5,2.7,4.8
		c-2.9,6.5-6.1,12.8-9.2,19.2c-0.1,0.3-0.5,0.7-0.7,0.7c-6.7-1.2-11.1,6.5-18,4.7c-2.8-0.7-5.3-2.3-8.3-2.6c-4.6-0.6-8.9-3.6-14-2
		c-0.7,0.2-6,0.1-2-3.7c1.5-1.4,1.1-2.6-0.6-2.7c-4.2-0.2-8.1,0.4-10.1-5.3c-0.6-1.8-5.9-1.9-9.2-1.5c-1.1,0.1-2.3,0.2-3.4,0.7
		c-7.3,3.1-14.8,4-22.6,2c-3.4-0.9-6,1.3-8.6,3.1c-3.4,2.3-6.8,4.1-10.8,0.9c-3-2.4-4.8,0.2-6.5,2.3c-2.3,2.9-4,7.4-8.6,2.3
		c-1-1.2-2.1,0.1-2.7,1.2c-1.3,2.5-2.5,5-3.8,7.5c-1.2,2.2-2.4,4.5-4.6,0.4c-1.7-3.2-4-1.7-6.1,0.2c-3.7,3.2-8.7,1.6-9.5-3.2
		c-0.4-2.9-4.2-5.6-0.8-8.9c-0.4-0.4-0.8-1.1-1.3-1.3C412,772.7,412,769.8,411.9,766.6z"/>
	<path class="st3" d="M477.5,977c3-4.6,1.4-5.8-2.8-7.6c-3.4-1.5-6.1-5.6-8.2-9.1c-2.6-4.3-6-7.6-9.6-10.9
		c-4.4-4.2-10.3-7.2-12-13.8c-0.1-0.6-0.8-1.3-1.3-1.4c-7.7-2.7-9.5-10.4-13.8-16c-7.1-9-12.2-19.1-17.3-29.2c-1-2-1-3.8-1-5.8
		c0.1-3.4-0.1-6.6-1.8-9.6c-2.7-4.8,0-9,1.8-13.2c3.6-8.4,10.1-14.6,16.5-20.8c8.5-8.1,17.1-16.2,28-20.9c4.2-1.8,8.8-2.8,13.3-4
		c1.6-0.4,3.5-0.6,4.3,1.3c2.6,6,7.4,10.5,10.3,16.2c4,7.9,4.3,16.6,6.1,24.9c1.9,8.6,4.7,16.9,7.8,25.1c0.4,0.9,0.5,1.9,1,2.8
		c0.8,1.6-0.1,2.5-1.1,3.4c-1.2,1.1-2,0.2-3.1-0.4c-6.1-3.2-9.2-9.2-13.2-14.4c-2-2.7-4.3-5.1-6.6-7.4c-1-1.1-2-2.2-3.8-1.2
		c-1.8,1-1.2,2.2-0.9,3.8c2.7,15,8.3,28.8,17.2,41.3c3,4.2,5.9,8.4,8.2,13.1c1.4,2.9,3.4,4.5,5.4,0.2c0.4-0.9,1.3-1.5,1.7-2.4
		c0.7-1.4,0.3-3.7,2.3-4c2.2-0.4,3.2,2.8,5.6,2.6c0.1,0,0.5,1,0.4,1.2c-1.9,3.1-2.1,7.2-6,9.1c-7.8,4-8.4,6.5-3.1,12.9
		c-1.5,0.3-3,0.5-4.4,0.8c-0.6,0.1-2.2,0-1.3,1.2c2.2,2.7-0.3,2.7-1.7,3.6c-1.3,0.8-1.8,4.1-4,2.2c-1.7-1.4,1-3.1,1.4-4.7
		c0.6-2.5,2.1-4.7,3.2-7.1c0.7-1.5,0.4-2.8-0.6-4.2c-5.8-8-13.2-14.3-20.3-21c-5-4.7-10.9-8.6-15.9-13.4c-4.3-4.1-9.4-7.2-13.5-11.6
		c-3.1-3.4-10.6-3.7-14.4-1.3c-1.8,1.1-2.8-0.3-4.1-0.7c-1.3-0.4-2.6-0.8-3.6,0.5c-0.8,1.1-0.8,2.1-0.3,3.6
		c1.5,4.9,4.2,8.8,7.6,12.5c15.1,16.4,32.4,30.3,50.4,43.4c2.8,2,4.4,5.4,7.9,6.7c1.1,0.4,0.8,1.2,0.5,2.1c-1.3,4.7-2,9.7-4.2,14
		C483.1,972.1,481.4,975.4,477.5,977z"/>
	<path class="st2" d="M660.9,629.4c-3.3,0-6.2,0.9-8.6,3.4c-0.4,0.4-0.6,1.4-1.4,0.8c-0.7-0.5-1-1.4-0.5-2.2c1.2-2,4-4.2,1.2-6.2
		c-2.5-1.8-4.6,1-6.8,2.2c-1.8,1-5.1,2.8-7.3-0.7c-1.2-1.9-3-3.5-5.8-1.5c-2.1,1.4-5.7-1-7.3,2.5c-1.3-1-2.6-2-3.9-3
		c-1.2-0.8-0.5-1.3-0.2-2.3c0.8-2.6,2.3-5-1.3-7.6c-2.2-1.5-3-4-6.1-1.7c-0.9,0.7-8.3-4.1-8-5c0.7-2.8,3-3.7,5.5-4.4
		c2.4-0.7,4.8-1.2,7.3-1c12.3,0.7,24.6-0.2,36.7-1.4c11.5-1.1,21.4,1.4,31.4,6.3c2.7,1.3,3.9,4.6,7.4,5c-1.3,2.1-3.9,3.5-1.1,6.3
		c1.6,1.6-1.2,2.2-2.6,3.3c1.1-5.1-2.5-4.2-4.7-4.9c-1.7,1.8,2.6,2,0.5,3.6c-1.7,1.3-1.6-0.6-2.4-1.3c-1.9-1.6-2.7,0.5-3.3,1.5
		c-2.5,4.7-6,7.4-11.5,7.4c-1.3,0-2.7,1.2-3.8,2.1c-1.6,1.3-2.6,1.5-3-0.9c0.2-0.4,0.5-0.7,0.7-1.1c0,0-0.2-0.2-0.3-0.3
		C661.3,628.6,661.1,629,660.9,629.4z M641.4,625.2c0-0.1,0-0.3-0.1-0.3c-0.1-0.1-0.3-0.1-0.4-0.1c0,0.2,0.1,0.4,0.1,0.5
		C641.2,625.3,641.3,625.2,641.4,625.2z"/>
	<path class="st2" d="M645.7,1032.3c-1.3,1.2-3.6-3-4.6,0.9c-0.9,3.4,0.6,3.9,3.5,4.2c1.7,0.1,5.4,7.9,4.8,9.6
		c-0.2,0.7-1,1.4-1.7,1.7c-1.1,0.5-1.2-0.6-1.6-1.3c-1.2-1.8-1.7-4.5-5.4-3.9c3.1,3.2,3.4,8.7,9.8,7.9c2.9-0.3,3.9,3.4,1.8,5.8
		c-0.4,0.5-1.2,1.4-0.9,1.5c4.9,2.4-1.3,6.5,1.8,9.7c2.6,2.7,5.5,5.1,8.2,7.6c1.1,1,1.9,2.3,2.7,3.6c1.2,2,2.9,4.4,1.7,6.4
		c-1.4,2.2-4.6,3-7.1,2.6c-5.5-0.8-11.3-1.1-16.2-4.1c-2.8-1.7-3.5-0.9-3.3,2.8c-1.9-2.3-3.1-3.8-4.3-5.3c-0.4-0.5,0-2.2-1.3-1.2
		c-1.1,0.9-2.3,2.1-3.1,0.4c-0.8-1.9-2.6-3.9-1.4-6.3c0.6-1.1,1.4-2.1,0.2-3c-3.9-2.9-4.3-8.5-8.6-11c-0.8-0.5-1.2-1.3-0.4-2
		c0.6-0.6,0.8-2.2,2-1.7c1.7,0.7,2.9,2,4.2-0.9c1.6-3.3-2.6-2.2-2.5-4.2c0.1-1.3,6.2,0.2,1.5-3.4c-1.7-1.3-2.5-3.5,0.4-5
		c1.7-0.9,1.7-2.6,0.3-3.7c-1.8-1.3-1.9-2.5-0.8-4.1c1-1.4,2.1-2.2,3.7-0.8c1.2,1.1,1.7,0,2.4-0.7c0.9-0.9,0.5-1.8-0.3-2.6
		c-2.1-2.2-2.5-4-0.7-7c1.5-2.5-1.3-3-3.3-3.3c-0.7-0.1-1.8,0.6-1.9-0.8c-0.1-0.7,0-1.8,0.6-1.7c4.6,1,3.5-3.3,5-5.2
		c1.7-0.1,2.4,3.1,3.6,1.8c1.7-1.9,2-4.7-0.4-7.8c4.6,0.8,6.9,3.3,8.7,6.1c0.6,0.9,1.4,2.2-0.5,3.7c-2.3,1.9-0.9,5.3,2.3,5.9
		c2.3,0.4,3.5,1.9,4.3,3.7c0.5,1.1,0.8,2.8-1.7,2.1C641.5,1027.7,646.6,1031.4,645.7,1032.3z"/>
	<path class="st2" d="M601.8,600.1c7.4-14.4,16-26.9,26.4-38.1c1-1.1,2-2.9,4.1-1.7c1.7,1,2.8,2.2,2.2,4.4c-0.5,1.7,0.5,3,1.9,2.5
		c3.7-1.5,5.9,1.3,8,2.8c13.4,9.7,27.9,17.8,41.3,27.5c3.6,2.6,7.4,5,11,7.6c1.1,0.7,2.2,1.6,1.3,3.3c-1.1,1.9-2.3,0.6-3.4,0.1
		c-10.6-5-20.8-11.3-32.8-12.2c-9-0.7-13.2-6.9-18.5-12.4c-3.8-4-8.8-2.6-13.3-1.6c-8.2,1.8-14.9,6.1-20.5,12.3
		C607.7,596.6,606,599.3,601.8,600.1z"/>
	<path class="st3" d="M462.3,988.5c-2.7-1.1-8.1,1.7-7.3-5.2c0.1-0.6-1.2-1.5-2-1.9c-3.1-1.7-5.8-3.6-7.7-6.7c-0.6-1-1.7-1.8-3-1.1
		c-1.4,0.8-0.6,2-0.3,3.1c0.6,2,1.3,3.6-0.7,5.7c-1.9,1.9,0.8,4.5,1.2,6.9c0.3,1.8,2.2,4.2-0.9,4.7c-1.6,0.3-5.1,0.7-4-3.4
		c0.2-0.7-1.5-2-2.5-2.9c-4.9-4.6-10.8-8.3-14-14.3c-3.9-7.5-4-15.8-3.5-24.1c0.1-1.9,1.8-2.2,3.3-0.9c8.3,7,19.1,9.2,28.6,13.4
		c8.3,3.6,10.5,9.4,12.8,16.4c0.7,2.1,1.5,4.3,2.3,6.4C465.7,986.8,468.3,989.9,462.3,988.5z"/>
	<path class="st2" d="M452.9,1216.6c1.1-1.9,2-3.4,3.3-4.7c3.3-3.1,3-6.1-0.4-8.7c-1.9-1.5-2,0.7-2.9,1.3c-1.2,0.8-1.8,3.1-4,1.8
		c-2.4-1.4-0.6-3-0.3-4.3c0.9-3.7-0.1-7.4-1.3-10.5c-1.8-5-3.1-9-0.4-14.4c2.3-4.5,0-10.1-0.4-15.1c-0.4-5.5-1.8-11-3.1-16.4
		c-0.5-2.3-0.3-5.1-3.4-6.1c-0.4-0.1-1-0.9-0.9-1c3.3-4.7-1.1-7.2-2.8-10.5c-0.5-1-1.3-2.2,0.6-2.6c2.3-0.6,8.3,4,9.5,6
		c3.7,6,2.2,13,4.6,19.3c1.2,3.1-1.3,6.9-0.7,10.4c0.4,2.3-1,5.1,1.9,6.7c0.2,0.1,0.5,0.7,0.5,0.8c-4,3.4,0,7.1,0.5,10.2
		c0.6,3.9,1.6,8,2.3,12c0.2,0.9,0.6,2.4,1.2,2.6c6,1.9,6.5,9.5,12.3,11.6c1.1,0.4,2.3,1,2,2.5c-0.3,1.4-1.6,1.4-2.7,1.8
		c-3.6,1.3-6.7,3.6-9.5,6.1C457.1,1216.7,455.5,1217.4,452.9,1216.6z"/>
	<path class="st2" d="M438.8,1099c-6.7-9.4-10.1-20.4-16.2-29.9c-5.3-8.3-8.9-17.6-15.6-25c-0.6-0.7-1.8-1.5-0.9-2.5
		c0.9-0.9,2.1-0.5,3.2,0c5.1,2.3,7.6,7.2,10.8,11.2c2.4,3,4.6,6,7.3,8.8c2.9,3.1,5.7,6.1,6.5,10.8c0.6,3.2,3.3,6,5.1,9
		C442.7,1087.5,445.9,1093.4,438.8,1099z"/>
	<path class="st2" d="M736,659c-2.1,4-4.6,5.9-8.9,5.6c-4.3-0.3-8.6-0.1-12.9,0c-2.5,0.1-4.8-0.3-7-1.8c-2.5-1.6-5.4-2-8.4-0.8
		c-3,1.2-6.2,0.6-9.3,0.4c-1.6-0.1-3.3-0.8-3.3-3c0-1.8,1.2-2.4,2.9-2.8c7.5-2,14.6-0.2,21.6,2c2.6,0.8,5.1,1.2,7.8,0.9
		c2.8-0.3,4.5-2.1,3.3-4.8c-1.1-2.6-1.2-3.4,1.8-2.4c1.9,0.6,3.5-0.6,5.2-1.1c1.6-0.5,3-0.7,3.8,1c0.8,1.7,0.4,3.2-1.3,4.3
		c-0.8,0.5-1.7,1.1-2.5,1.7c-1.2,0.9-3.7,1.4-1.9,3.5c1.4,1.7,3.2,1,4.8-0.3C732.8,660.4,733.4,658.8,736,659z"/>
	<path class="st2" d="M414.3,992.4c0.2,1,0.2,1.9,0.5,2.6c0.8,2.2-0.6,3.3-2.1,3.8c-1.7,0.6-3.4-0.2-4.1-1.9
		c-3.9-8.6-6.7-17.5-6.2-27.2c0.1-2.3,1.1-3.9,3.3-4.4c2.9-0.6,2.4,2,3.1,3.5c2.6,5.7,2.6,12,4,18
		C413.2,988.8,416.3,989.9,414.3,992.4z"/>
	<path class="st2" d="M693.8,634.6c1.2,0.8,3.4-0.4,3.1,3c-0.5,4.6,2.7,7.7,7.1,8.8c1.8,0.5,3.2,0.7,3,3c-0.2,2.5-2.2,2.1-3.7,2.1
		c-4.1,0-8.2,0-12.3,1.4c-4.3,1.5-3.4-3.2-4.7-4.9c-2.2-3,2.4-12.3,6-13.1C692.8,634.8,693.3,634.7,693.8,634.6z"/>
	<path class="st2" d="M623.1,1127.1c3.9,4.7,5.2,10.4,5.6,16.2c0.2,2.1-0.4,3.9,1.2,5.8c1.2,1.4,1.6,3.6,1.9,5.6
		c0.8,4.2,1.4,8.4,3.4,12.3c1.3,2.5,0.7,5.7-1.6,6.4c-2.6,0.9-4.2-2.4-4.1-4.4c0.3-6.8-3.5-12.7-3.1-19.5c0.1-2.1-0.8-5-1.6-6.1
		C620.7,1138,624.1,1132.4,623.1,1127.1C623.1,1127.1,623.1,1127.1,623.1,1127.1z"/>
	<path class="st2" d="M626.2,1234.4c0.5,2.5,1.6,4.7,2.9,6.7c0.6,0.9,0.7,1.9-0.5,2.5c-0.9,0.4-2.5,0.6-2.7-0.2
		c-0.9-3.8-5.1-4.9-6.7-8.2c-1.2-2.6-1.6-4.6,1.4-6.2c1.4-0.8,2.7-1.9,4-2.9c2.3-1.9,4.4-2.8,6.8-0.1c0.7,0.8,1.9,1.7,2.9,1.8
		c3.3,0.3,2.1,2.5,1.6,3.9c-0.7,1.9-2.4,2.9-4.3,1.2c-1.5-1.4-3.1-1.9-4.9-1.2C625.7,1232,626.2,1233.4,626.2,1234.4z"/>
	<path class="st2" d="M341.5,1151.1c-0.8,1.3-2.6,3.1-1.8,5.8c0.1,0.2-1.3,1.3-0.5,2.3c1.8,2.4,0.4,2.8-1.7,2.8
		c-2.3,0-3.9,0.6-4.1,3.2c-0.1,1.4-0.7,2.9-2.4,2.3c-1.4-0.5-2.5-1.4-2-3.4c1.4-5.4,2.4-10.9,4-16.1c0.6-1.8,2.8-2.5,5-2.2
		C340.7,1146.2,341.7,1147.8,341.5,1151.1z"/>
	<path class="st2" d="M379.8,1103.7c1.1,0.3,1.4,1,1.6,1.8c0.6,2.6,1.4,5.1,1.9,7.7c2.1,10.4,8,18.9,14,27.2
		c0.8,1.1,2.8,1.9,1.3,3.7c-1.3,1.6-2.8,0.1-4.1-0.3c-1-0.3-2.3-1.2-2.6-2.1c-2-7.2-8.4-12.4-8.8-20.6c-0.2-4.8-3.1-9.5-4-14.6
		C378.8,1105.3,378.5,1104.3,379.8,1103.7z"/>
	<path class="st2" d="M501.7,953c-2-0.7-1.7-2.5-0.9-3.5c5.6-6.8,8.9-15.1,14-22.2c1.1-1.6,2.9-3,4.6-1.5c2,1.8-0.3,2.8-1.3,4.3
		c-4.8,6.8-9.4,13.7-14,20.6C503.4,951.6,503.2,952.9,501.7,953z"/>
	<path class="st2" d="M669.5,930.6c-0.3,7.7-4.5,13-7.2,18.9c-0.8,1.7-2,0.9-2.8,0.3c-1-0.7-2.2-1.2-1.5-3.1c1.1-3.1,3.7-5,5.6-7.4
		c1.4-1.8,2.2-3.4,0.7-5.3c-1-1.3-1.1-2.5-0.2-3.6c1-1.2,0.3-4.1,2.5-3.5C668.4,927.3,669.1,929.7,669.5,930.6z"/>
	<path class="st2" d="M323.4,1225.4c9.4-1.2,12.6,2.6,9.4,11.4c-0.7,1.9,1.1,3.5,0,6.2C329.5,1236.7,324,1232.4,323.4,1225.4z"/>
	<path class="st2" d="M617,626.9c-2.1,0.9-3.9,0.3-5.3,1.7c-1.9,1.9-5.4,1-6.5-1.6c-2.1-5.1,1-9.9,6.2-9.2c2.3,0.3,3.8,2.6,3.4,4.7
		C614.3,624.6,615,625.8,617,626.9z"/>
	<path class="st2" d="M324.4,1185.7c0-2.9,2.2-5,4-6c1.7-0.9,3.2,2.6,5.2,3.7c1.7,1,0.8,2.9-0.3,4.3c-0.4,0.5-0.5,1.2-0.9,1.7
		c-1.2,1.6,0,5.4-2.6,5.1c-2.9-0.3-4.3-3.6-5.3-6.4C324.3,1187.4,324.4,1186.5,324.4,1185.7z"/>
	<path class="st2" d="M651.2,1017.6c-3.7-4.5-8.3-7.8-12.1-11.9c-0.5-0.5-0.9-0.8-0.8-1.5c0.2-0.8,0.9-1,1.6-0.8
		c2.4,0.6,4.3,2,7.3,0.9c1.7-0.6,2.6,3.3,3.1,5C650.9,1011.8,650.5,1014.7,651.2,1017.6z"/>
	<path class="st2" d="M446.8,1030.7c4.5-0.2,6.4,1.5,8.4,3.7c1.2,1.3,1.7,3.8,4.3,3.7c3.1-0.1,1.8,2.1,1.5,3.4
		c-0.3,1.7-1.3,3.4-3.5,1.8C453.2,1040,450.2,1035.7,446.8,1030.7z"/>
	<path class="st2" d="M486.2,981.3c0.4-6.6,4.6-10.2,6-15.1c1.1-3.7,3.6-6.9,5.6-10.3c0.5-0.9,1.7-1.8,2.9-1.1
		c0.8,0.5,0.6,1.5,0.1,2.2C495.2,964.2,492.3,972.9,486.2,981.3z"/>
	<path class="st2" d="M649.5,732.6c1.4-0.5,3.4-0.4,5.2,0.1c0.8,0.2,4.6-0.6,2.3,2.8c-0.1,0.1,1.7,2.3,2.8,2.4
		c3.2,0.4,4.4,3.1,6.7,4.7c-4.4,1.1-5.7,1.2-9.6-3.1C654.4,736.9,648.7,738.5,649.5,732.6z"/>
	<path class="st2" d="M590.4,616.1c3.1-1.7,5.4-2.6,7.2,1.9c0.7,1.7,2.7,2.9,3.9,4.5c1.4,1.8,2.3,3.4-0.4,5.4
		c-2.5,1.8-4,1.5-3.7-1.3c0.4-3.3-2.4-5.1-2.5-8C594.8,615.7,591.5,618.5,590.4,616.1z"/>
	<path class="st2" d="M612.1,988.2c1.6,0,3.2,0.1,4.8,0.1c-0.5,2.7,0.2,5.3,0.3,8c0,0.8-1.1,1.5-2.3,1.2c-2.1-0.6-2.7,0.1-2.3,2.2
		c0.2,0.8,0.5,2.5-1.5,2.4c-1.5-0.1-1.9-1.1-1.9-2.4c0.1-1.4-0.6-3.7,0.9-4.1C615.3,994.3,612.4,990.9,612.1,988.2
		C612.1,988.2,612.1,988.2,612.1,988.2z"/>
	<path class="st2" d="M325.5,1258.9c7,2.4,9.1,4.7,8.9,9.9c0,0.8,0.3,1.9-0.6,2.2c-0.6,0.2-2-0.2-2.2-0.7
		C330,1266.3,324.8,1264.2,325.5,1258.9L325.5,1258.9z"/>
	<path class="st2" d="M648.5,976.1c1.7,4.9,7.2,7.2,6.4,13.4c-2.7-0.3-4.8-1.7-6.8-3c-1.2-0.8-3.2-2.1-0.2-3.5
		c1.4-0.6,0.7-1.6,0.1-2.4C647.2,979.4,646.6,978.1,648.5,976.1z"/>
	<path class="st2" d="M378.4,1101.1c-1.6-6.4-4.7-12.8-0.7-19.4C379.4,1088.1,379.8,1094.6,378.4,1101.1z"/>
	<path class="st2" d="M333,1220.6c-6.7,0.5-6.1-6.4-9.8-9.6c3.8,0.5,8.9-2.2,7.6,5.2C330.5,1217.6,333.3,1218.3,333,1220.6z"/>
	<path class="st2" d="M643.1,918.6c0.2-0.8-0.6-2.1,0.8-2.4c1-0.3,2,0.4,2.5,1.2c0.9,1.4,1.1,3,2.4,4.2c1.1,1,3.3,2.5,1.5,3.9
		c-1.2,0.9-3.9,0.3-5.2-1.4C644,922.5,643,920.8,643.1,918.6z"/>
	<path class="st2" d="M450.9,1061.2c-3.3-1.4-7.2-1.6-9.3-5.1c-0.5-0.8-1.7-1.5-0.5-2.5c0.9-0.7,2-0.2,2.6,0.7
		c1.8,2.9,4.8,3.1,7.7,3.8c1.1,0.3,2.7-0.1,2.6,1.5C453.9,1061.6,452.1,1060.9,450.9,1061.2z"/>
	<path class="st2" d="M320.4,1254.4c11.9-2.3,12-2.3,13,3.9C329,1257,324.9,1255.8,320.4,1254.4z"/>
	<path class="st2" d="M404.6,1190.3c-5.4-1.5-9.6-4.8-12.7-9.4C396.8,1183.1,401.4,1185.8,404.6,1190.3z"/>
	<path class="st2" d="M312.5,1273.5c4.9,1.7,9.9,3.3,14.8,5.1c0.4,0.1,0.8,1.2,0.6,1.6c-0.4,0.8-1.4,0.9-2.2,0.6
		C321,1278.9,316.3,1277.3,312.5,1273.5z"/>
	<path class="st2" d="M579,635.1c0,0.9-0.8,2-1.3,1.6c-2.6-2.3-4.6-0.4-6.9,0.5c-1,0.4-2.1,0.5-2.4-0.8c-0.2-0.7,0.2-1.7,0.6-2.3
		c0.9-1.2,8.7-1.1,9.7,0.1C578.9,634.4,578.9,634.8,579,635.1z"/>
	<path class="st2" d="M336.6,1143.6c-2,0.4-3-0.5-2.9-2c0.1-1.5,0.6-3.3,2.4-3.2c2.2,0.2,4.8,1.2,4.8,3.5
		C340.8,1144.3,337.5,1142.1,336.6,1143.6z"/>
	<path class="st2" d="M621.2,1117c2.8,2.9,3.6,6.3,1.9,10.1c0,0,0,0,0,0C619.5,1124.3,618.1,1121.2,621.2,1117L621.2,1117z"/>
	<path class="st2" d="M332,1175.4c-6.5,4.8-5.9-2.3-9.4-4.1C327.7,1170.1,329,1174,332,1175.4z"/>
	<path class="st2" d="M625,1009.8c1.3-0.4,2.2,0.1,1.9,0.9c-0.8,1.9-2.2,3.7-4.3,4c-1,0.2-3.2-0.8-2.9-2.1
		C620.3,1010,623.4,1010.8,625,1009.8z"/>
	<path class="st2" d="M736.4,638.8c-5-1.6-10.1-1.3-16-1.3C726.6,634.6,731.6,635.8,736.4,638.8z"/>
	<path class="st2" d="M633.2,937.2c1.5-0.1,2,1.1,2.4,2.1c0.4,1.2,2.3,2.4,0.4,3.8c-0.6,0.5-1.6,0.9-2.2,0.7
		c-1.8-0.6-1.7-2.3-1.6-3.7C632.3,939.1,632.8,938.2,633.2,937.2L633.2,937.2z"/>
	<path class="st2" d="M739,655.2c1.1-4.8,4-8.2,0.6-12.5C744,645.7,743.9,650.1,739,655.2z"/>
	<path class="st2" d="M678.8,749.6c-0.4-3.2-4.8-2.9-3.3-6.3c0.5-1,1.9-1.1,2.6-0.5C680,744.2,680.6,746.1,678.8,749.6z"/>
	<path class="st2" d="M332.7,1294.9c-3.3,0-5.2,0-7.2,0c-0.9,0-2.4-0.1-2.1-1.4c0.2-0.9,1-2.1,2.5-1.8
		C327.9,1292,329.7,1292.9,332.7,1294.9z"/>
	<path class="st2" d="M711.9,623.8c-0.3,1.7-0.3,3.6,0,5.7c-1.1-1.8-4.3-0.3-4.4-2.5C707.4,625,709.2,623.6,711.9,623.8z"/>
	<path class="st2" d="M587.8,937.4c-1.1,0.4-2.2,0.1-2.2-1.1c0-2,1.7-2.2,3.2-2.1c1,0,2.8-0.5,2.8,1.1
		C591.5,937.7,589.2,937,587.8,937.4z"/>
	<path class="st2" d="M679.4,630.2c1.5,1.8,3.3,2.4,6.4,3.3c-3,0.8-4.3,2.2-6.5,4.3C679.8,634.6,680.7,632.4,679.4,630.2z"/>
	<path class="st2" d="M475,1218.2c-0.6,1.4-1.5,2.6-3.1,2.6c-1.3,0-1.5-1.1-1.4-2.1c0.1-1.6,1.4-2.1,2.7-2.3
		C474.2,1216.2,474.9,1217,475,1218.2z"/>
	<path class="st2" d="M607.7,992.8c-0.4,1.6-1.4,2.7-3,3c-1.5,0.3-1.5-1-1.4-1.9c0.1-1.8,1.3-2.6,3-2.5
		C607.2,991.3,608,991.6,607.7,992.8z"/>
	<path class="st2" d="M616.5,818c-1.4-0.2-2.2-0.8-2-1.6c0.5-2.3,2.8-2.5,4.3-3.6c0.1-0.1,1,0.5,1,0.7
		C619.6,815.9,616.5,815.8,616.5,818z"/>
	<path class="st2" d="M335.7,1285.9c-3.6-0.3-4.9-1.5-5.1-3.9c-0.1-0.8,0.3-2.1,1.1-1.8C334,1281.1,333.1,1284,335.7,1285.9z"/>
	<path class="st2" d="M655.1,974.4c1,0.5,2.7,0.5,2.5,2.2c-0.1,1.1-1.1,2.2-2.3,2.1c-1.7-0.1-1.3-2-1.8-3
		C653.1,974.8,654,974.3,655.1,974.4z"/>
	<path class="st2" d="M680.1,242.9c-1.4,0-2.7,0-4.1,0c0.3-1.6-0.6-4,2.3-3.8C680.7,239.3,679.8,241.5,680.1,242.9z"/>
	<path class="st2" d="M624.1,238.9c-1.6-0.2-3.9,0.7-3.9-2.3c0-0.9,0.6-1.5,1.5-1.5C624.8,235,623.9,237.3,624.1,238.9
		C624.1,238.9,624.1,238.9,624.1,238.9z"/>
	<path class="st2" d="M416.5,1030.5c2.6-1.6,4.4-1.9,6.2-0.1c0.2,0.2,0.2,1.1,0,1.2C420.5,1032.9,418.9,1031.2,416.5,1030.5z"/>
	<path class="st2" d="M556.2,238.9c0.3-1.5-0.7-3.9,2.3-3.8c0.9,0,1.5,0.6,1.5,1.5C560.1,239.6,557.7,238.5,556.2,238.9L556.2,238.9
		z"/>
	<path class="st2" d="M536.9,604.1c-3.5,0-6.4-2.2-9.6-0.7C531.2,600.8,532.5,600.9,536.9,604.1z"/>
	<path class="st2" d="M512,588.4c2.9-2.1,4.8-3.4,7.2-2.1c0.2,0.1,0.4,1.1,0.2,1.2C517.4,588.7,515.2,588.4,512,588.4z"/>
	<path class="st2" d="M713,643.5c0.3-0.7,0.5-1.6,1-2.1c0.7-0.8,1.7-0.9,2.7-0.4c0.4,0.2,0.8,0.8,0.7,1.1c-0.3,1.1-1.3,1.3-2.3,1.4
		C714.3,643.5,713.7,643.5,713,643.5L713,643.5z"/>
	<path class="st2" d="M891.7,976.3c-3.1-1-2.3-4.1-3.5-6.2C890.8,971.4,890.5,974.3,891.7,976.3L891.7,976.3z"/>
	<path class="st2" d="M655.1,967.2c0.2-1.4,0.6-2.8,2.5-3.9C658.2,965.9,657.4,966.9,655.1,967.2L655.1,967.2z"/>
	<path class="st2" d="M655.1,967.3c0,1-0.2,1.9-1.4,2.2c-0.1,0-0.5-0.4-0.5-0.6C653.1,967.6,654.1,967.4,655.1,967.3
		C655.1,967.2,655.1,967.3,655.1,967.3z"/>
	<path class="st2" d="M633.1,937.3c-1-0.2-1.9-0.4-1.8-1.7c0-0.2,0.4-0.6,0.5-0.6C632.9,935.3,633.1,936.2,633.1,937.3
		C633.2,937.2,633.1,937.3,633.1,937.3z"/>
	<path class="st2" d="M739.1,639.8c0.2,0.2,0.5,0.4,0.5,0.6c0,0.5-0.3,0.8-0.8,0.6c-0.2-0.1-0.4-0.5-0.3-0.7
		C738.4,640.2,738.7,640.1,739.1,639.8z"/>
	<path class="st2" d="M891.8,976.2c1.4,1.1,0.8,2.6,0.9,4c0,0,0.1,0,0.1,0C891.4,979.2,891.9,977.6,891.8,976.2
		C891.7,976.3,891.8,976.2,891.8,976.2z"/>
	<path class="st2" d="M621.1,1117.1c-0.5-0.2-1.5,0.2-1.2-1c0-0.1,0.2-0.3,0.4-0.3C621.3,1115.6,621.1,1116.4,621.1,1117.1
		C621.2,1117,621.1,1117.1,621.1,1117.1z"/>
	<path class="st2" d="M713,643.5c-0.2,0.5,0.2,1.5-1,1.2c-0.1,0-0.3-0.2-0.3-0.4C711.5,643.3,712.3,643.5,713,643.5
		C713,643.5,713,643.5,713,643.5z"/>
	<path class="st2" d="M325.4,1259c-0.4-0.1-0.8-0.3-1.2-0.4c0.1-0.1,0.2-0.4,0.2-0.4C324.8,1258.5,325.1,1258.7,325.4,1259
		C325.5,1258.9,325.4,1259,325.4,1259z"/>
	<path class="st1" d="M641.4,625.2c-0.1,0-0.2,0.1-0.4,0.1c0-0.2-0.1-0.4-0.1-0.5c0.1,0,0.3,0,0.4,0.1
		C641.4,624.9,641.4,625.1,641.4,625.2z"/>
	<path class="st1" d="M660.9,629.4c0.2-0.4,0.3-0.8,0.5-1.2c0.1,0.1,0.4,0.2,0.3,0.3c-0.2,0.4-0.4,0.7-0.7,1.1
		C661.1,629.6,660.9,629.4,660.9,629.4z"/>
</g>
</svg>
