<?xml version="1.0" encoding="utf-8"?>
<!-- Generator: Adobe Illustrator 25.2.1, SVG Export Plug-In . SVG Version: 6.00 Build 0)  -->
<svg version="1.1" id="Laag_1" xmlns:sketch="http://www.bohemiancoding.com/sketch/ns"
	 xmlns="http://www.w3.org/2000/svg" xmlns:xlink="http://www.w3.org/1999/xlink" x="0px" y="0px" viewBox="0 0 27.5 26.9"
	 style="enable-background:new 0 0 27.5 26.9;" xml:space="preserve">
<style type="text/css">
	.st0{fill:#FFFFFF;}
</style>
<desc>Created with Sketch.</desc>
<g sketch:type="MSPage">
	<g transform="translate(-405.000000, -180.000000)" sketch:type="MSArtboardGroup">
		<g transform="translate(408.000000, 183.000000)" sketch:type="MSLayerGroup">
			<path sketch:type="MSShapeGroup" class="st0" d="M-1.5-0.7v22c0,0.3,0.2,0.5,0.5,0.5h24c0.3,0,0.5-0.2,0.5-0.5v-22
				c0-0.3-0.2-0.5-0.5-0.5H-1C-1.3-1.2-1.5-0.9-1.5-0.7z M-0.5-0.2h23v3h-23V-0.2z M-0.5,3.8h23v17h-23V3.8z M1,1.8
				c0.3,0,0.5-0.2,0.5-0.5S1.3,0.8,1,0.8S0.5,1.1,0.5,1.3S0.7,1.8,1,1.8z M3,1.8c0.3,0,0.5-0.2,0.5-0.5S3.3,0.8,3,0.8
				S2.5,1.1,2.5,1.3S2.7,1.8,3,1.8z M5,1.8c0.3,0,0.5-0.2,0.5-0.5S5.3,0.8,5,0.8S4.5,1.1,4.5,1.3S4.7,1.8,5,1.8z"/>
			<path sketch:type="MSShapeGroup" class="st0" d="M10.5,14c-0.3-0.1-0.6-0.2-1-0.2c-1.1,0-2,0.6-2,1.5c0,0.9,0.9,1.5,2,1.5
				s2-0.6,2-1.5V9.6c0,0,0,0,0.5,0.5c0.1,0.1,0.7,0.6,0.5,0.5c0.2,0.2,0.3,0.3,0.4,0.4c0.4,0.4,0.6,0.8,0.5,1.5
				c0,0.3,0.2,0.5,0.5,0.5c0.3,0,0.5-0.2,0.5-0.5c0.1-1-0.2-1.6-0.8-2.2c-0.1-0.1-0.3-0.2-0.5-0.4c0.1,0.1-0.4-0.3-0.5-0.5
				c-0.5-0.4-0.9-0.8-1.3-1.3c-0.3-0.3-0.9-0.1-0.9,0.3V14z M8.5,15.3c0-0.2,0.4-0.5,1-0.5s1,0.3,1,0.5s-0.4,0.5-1,0.5
				S8.5,15.6,8.5,15.3z"/>
		</g>
	</g>
</g>
</svg>
