<?xml version="1.0" encoding="utf-8"?>
<!-- Generator: Adobe Illustrator 25.2.1, SVG Export Plug-In . SVG Version: 6.00 Build 0)  -->
<svg version="1.1" id="Laag_1" xmlns="http://www.w3.org/2000/svg" xmlns:xlink="http://www.w3.org/1999/xlink" x="0px" y="0px"
	 viewBox="0 0 29.1 18" style="enable-background:new 0 0 29.1 18;" xml:space="preserve">
<style type="text/css">
	.st0{fill:#FFFFFF;}
</style>
<g>
	<path class="st0" d="M7.3,7.1c0.4,0,0.8-0.4,0.8-0.8V3.4c0-0.5,0.4-1,1-1h2.8c0.4,0,0.8-0.4,0.8-0.8s-0.4-0.8-0.8-0.8H9.1
		C7.6,0.8,6.4,2,6.4,3.4v2.8C6.4,6.7,6.8,7.1,7.3,7.1z"/>
	<path class="st0" d="M22.3,0.8h-2.8c-0.4,0-0.8,0.4-0.8,0.8s0.4,0.8,0.8,0.8h2.8c0.5,0,1,0.4,1,1v2.8c0,0.4,0.4,0.8,0.8,0.8
		S25,6.7,25,6.2V3.4C25,2,23.8,0.8,22.3,0.8z"/>
	<path class="st0" d="M24.1,11.2c-0.4,0-0.8,0.4-0.8,0.8v2.8c0,0.5-0.4,1-1,1h-2.8c-0.4,0-0.8,0.4-0.8,0.8s0.4,0.8,0.8,0.8h2.8
		c1.4,0,2.6-1.2,2.6-2.6V12C25,11.5,24.6,11.2,24.1,11.2z"/>
	<path class="st0" d="M11.9,15.8H9.1c-0.5,0-1-0.4-1-1V12c0-0.4-0.4-0.8-0.8-0.8S6.5,11.6,6.5,12v2.8c0,1.4,1.2,2.6,2.6,2.6h2.8
		c0.4,0,0.8-0.4,0.8-0.8C12.7,16.2,12.3,15.8,11.9,15.8z"/>
	<path class="st0" d="M15.7,10.9c0.9,0,1.5-0.7,1.5-1.5c0-0.9-0.7-1.5-1.5-1.5s-1.5,0.7-1.5,1.5C14.2,10.2,14.8,10.9,15.7,10.9z"/>
	<path class="st0" d="M11.4,5.9c-0.6,0-1.2,0.5-1.2,1.2v5c0,0.6,0.5,1.2,1.2,1.2H20c0.6,0,1.2-0.5,1.2-1.2V7c0-0.6-0.5-1.2-1.2-1.2
		h-1.3c-0.2,0-0.4-0.1-0.6-0.3l-0.3-0.4c-0.2-0.3-0.5-0.5-0.9-0.5h-2.5c-0.4,0-0.7,0.2-0.9,0.5l-0.3,0.5c-0.1,0.2-0.3,0.3-0.6,0.3
		L11.4,5.9L11.4,5.9z M15.7,6.7c1.5,0,2.6,1.2,2.6,2.6c0,1.5-1.2,2.6-2.6,2.6s-2.6-1.2-2.6-2.6C13.1,7.9,14.2,6.7,15.7,6.7z"/>
</g>
</svg>
