<?xml version="1.0" encoding="utf-8"?>
<!-- Generator: Adobe Illustrator 25.2.1, SVG Export Plug-In . SVG Version: 6.00 Build 0)  -->
<svg version="1.1" id="Laag_1" xmlns="http://www.w3.org/2000/svg" xmlns:xlink="http://www.w3.org/1999/xlink" x="0px" y="0px"
	 viewBox="0 0 29.1 18" style="enable-background:new 0 0 29.1 18;" xml:space="preserve">
<style type="text/css">
	.st0{fill:#FFFFFF;}
</style>
<path class="st0" d="M12.8,13.7c-0.4,0-0.8-0.4-0.8-0.8c0-0.1,0-0.2,0.1-0.3l4-9.1C16.3,3,16.8,2.9,17.2,3c0.4,0.2,0.6,0.6,0.4,1
	l-4,9.1C13.4,13.5,13.1,13.7,12.8,13.7z M20.6,12.6c-0.4,0-0.8-0.4-0.8-0.8c0-0.2,0.1-0.4,0.2-0.5l2.9-3.1L20,5.3
	c-0.3-0.3-0.3-0.8,0-1.1c0.3-0.3,0.8-0.3,1.1,0l3.4,3.4c0.3,0.3,0.3,0.8,0,1.1l-3.4,3.7C21,12.5,20.8,12.6,20.6,12.6L20.6,12.6z
	 M9.1,12.6c-0.2,0-0.4-0.1-0.6-0.2L5.1,9c-0.3-0.3-0.3-0.8,0-1.1l3.4-3.7c0.3-0.3,0.8-0.3,1.1,0c0.3,0.3,0.3,0.8,0,1.1l0,0L6.8,8.4
	l2.9,2.9c0.3,0.3,0.3,0.8,0,1.1C9.5,12.5,9.3,12.6,9.1,12.6L9.1,12.6z"/>
</svg>
