<?xml version="1.0" encoding="utf-8"?>
<!-- Generator: Adobe Illustrator 25.2.1, SVG Export Plug-In . SVG Version: 6.00 Build 0)  -->
<svg version="1.1" id="Laag_1" xmlns="http://www.w3.org/2000/svg" xmlns:xlink="http://www.w3.org/1999/xlink" x="0px" y="0px"
	 viewBox="0 0 100 76.8" style="enable-background:new 0 0 100 76.8;" xml:space="preserve">
<style type="text/css">
	.st0{clip-path:url(#SVGID_2_);fill:#E30613;}
	.st1{fill:#1D1D1B;}
</style>
<g>
	<g>
		<defs>
			<rect id="SVGID_1_" x="5.9" y="4.7" width="87.8" height="64.7"/>
		</defs>
		<clipPath id="SVGID_2_">
			<use xlink:href="#SVGID_1_"  style="overflow:visible;"/>
		</clipPath>
		<path class="st0" d="M67.3,16l0.5-0.5c-0.9-1.4-1.8-2.7-3-3.9C56.2,3,43.1,2.1,34.3,10.8c-7.3,7.3-8.4,18.3-3.5,26.8h13.9
			c-1.3-0.6-2.5-1.4-3.5-2.5c-4.8-4.8-4.8-12.6,0-17.4c3.7-3.7,8.5-4.2,12.6-2.2l-9.5,9.5l7,6.9l9.3-9.3L67.3,16L67.3,16z
			 M58.6,35.1c-1,1-2.2,1.9-3.5,2.5h13.9c1.3-2.3,2.2-4.8,2.7-7.3H61.6C61,32.1,60.1,33.7,58.6,35.1"/>
	</g>
	<path class="st1" d="M90,50.9h3.4c-0.2-2.4-2.1-3.6-4.4-3.6c-2.2,0-4.5,1.4-4.5,3.8c0,1.6,1.4,2.5,2.7,3c0.5,0.2,1,0.3,1.5,0.5
		c0.6,0.2,1.6,0.5,1.6,1.3c0,0.6-0.7,0.9-1.2,0.9c-0.7,0-1.2-0.3-1.3-1h-3.4c0.3,2.5,2.3,3.8,4.7,3.8c2.3,0,4.7-1.3,4.7-3.9
		c0-4-5.8-3-5.8-4.8c0-0.5,0.5-0.8,1-0.8C89.5,50.1,89.9,50.3,90,50.9 M81.8,58.1c0.9-1.1,1-2.1,1-3.5v-6.8h-3.4V54
		c0,1.3-0.3,2.3-1.8,2.3h-0.2c-1.6,0-1.8-1-1.8-2.3v-6.3h-3.4v6.8c0,1.4,0.1,2.4,1,3.5c0.8,1,2.2,1.4,3.4,1.5c0,0,0.4,0,0.9,0
		c0.5,0,0.9,0,0.9,0C79.6,59.5,81,59,81.8,58.1 M66.7,59.2h3.4v-6.8c0-1.4-0.1-2.4-1-3.5c-0.8-1-2.2-1.4-3.4-1.5c0,0-0.4,0-0.9,0
		c-0.4,0-0.9,0-0.9,0c-0.9,0-2,0.4-2.8,1c-0.8-0.5-1.8-0.9-2.8-1c0,0-0.4,0-0.9,0c-0.4,0-0.9,0-0.9,0c-1.2,0-2.6,0.5-3.4,1.5
		c-0.9,1.1-1,2.1-1,3.5v6.8h3.4v-6.3c0-1.3,0.3-2.3,1.8-2.3h0.2c1.6,0,1.8,1,1.8,2.3v6.3h0h3.4h0v-6.3c0-1.3,0.3-2.3,1.8-2.3h0.2
		c1.6,0,1.8,1,1.8,2.3V59.2L66.7,59.2z M44.7,50.8c0-0.5,0.5-0.8,1-0.8c0.6,0,1.1,0.2,1.1,0.9h3.4c-0.2-2.4-2.1-3.6-4.4-3.6
		c-2.2,0-4.5,1.4-4.5,3.8c0,1.6,1.4,2.5,2.7,3c0.5,0.2,1,0.3,1.5,0.5c0.6,0.2,1.6,0.5,1.6,1.3c0,0.6-0.7,0.9-1.2,0.9
		c-0.7,0-1.2-0.3-1.3-1h-3.4c0.3,2.5,2.3,3.8,4.7,3.8c2.3,0,4.7-1.3,4.7-3.9C50.5,51.6,44.7,52.6,44.7,50.8 M35.9,59.1h3.4V47.7
		h-3.4v1.2h0c-0.7-1.1-2.1-1.6-3.4-1.6c-3.5,0-5.8,2.7-5.8,6.1c0,3.4,2.2,6.1,5.8,6.1c1.2,0,2.7-0.5,3.4-1.6h0V59.1L35.9,59.1z
		 M35.9,53.4c0,1.6-1.2,2.9-2.9,2.9c-1.6,0-2.9-1.3-2.9-2.9c0-1.6,1.2-2.9,2.8-2.9C34.7,50.5,35.9,51.8,35.9,53.4 M25.2,50.6h0.7
		v-3.2c-0.4,0-1.5,0-1.5,0c-1.2,0-2.6,0.5-3.4,1.5c-0.9,1.1-1,2.1-1,3.5v6.8h3.4v-6.3C23.4,51.6,23.7,50.6,25.2,50.6 M17.9,54.5
		c0.1-0.3,0.1-0.6,0.1-0.9c0-3.4-2.6-6.2-6.1-6.2c-3.4,0-6,2.8-6,6.1c0,3.3,2.7,6,6.1,6c2.5,0,4.5-1.6,5.5-3.8H14
		c-0.5,0.6-1.1,0.9-1.9,0.9c-1.3,0-2.5-0.8-2.7-2.2H17.9L17.9,54.5z M14.6,52.2H9.4c0.3-1.2,1.4-1.9,2.6-1.9
		C13.2,50.2,14.3,50.9,14.6,52.2"/>
	<polygon class="st1" points="9.6,69.3 9.6,67.2 7.6,67.2 7.6,69.3 6.9,69.3 6.9,64.4 7.6,64.4 7.6,66.5 9.6,66.5 9.6,64.4 
		10.4,64.4 10.4,69.3 9.6,69.3 	"/>
	<path class="st1" d="M14.3,65c-0.8,0-1.4,0.4-1.7,1.1c-0.1,0.2-0.2,0.5-0.2,0.8c0,0.3,0.1,0.5,0.2,0.8c0.3,0.7,0.9,1.1,1.7,1.1
		c0.8,0,1.4-0.5,1.7-1.2c0.1-0.2,0.1-0.4,0.1-0.7C16.1,65.8,15.3,65,14.3,65 M14.3,69.4c-1.4,0-2.6-1.1-2.6-2.5
		c0-1.4,1.1-2.5,2.6-2.5c1.4,0,2.6,1.1,2.6,2.6C16.8,68.3,15.7,69.4,14.3,69.4"/>
	<path class="st1" d="M21.5,69.2c-0.3,0.2-0.7,0.2-1.1,0.2c-1.4,0-2.5-1.1-2.5-2.5c0-1.4,1.1-2.6,2.5-2.6c0.9,0,1.8,0.5,2.2,1.3
		h-0.8C21.4,65.2,21,65,20.5,65c-1,0-1.8,0.9-1.8,1.9c0,1,0.8,1.9,1.8,1.9c0.8,0,1.4-0.5,1.7-1.2h-2.3v-0.7H23
		C23,67.9,22.4,68.7,21.5,69.2"/>
	<polygon class="st1" points="24.2,69.3 24.2,64.4 26.9,64.4 26.9,65.1 25,65.1 25,66.5 26.9,66.5 26.9,67.2 25,67.2 25,68.7 
		26.9,68.7 26.9,69.3 24.2,69.3 	"/>
	<path class="st1" d="M29.5,69.4c-0.9,0-1.5-0.7-1.5-1.5h0.7c0,0.5,0.3,0.9,0.8,0.9c0.5,0,0.8-0.4,0.8-0.8c0-0.5-0.4-0.6-0.8-0.8
		c-0.8-0.3-1.4-0.5-1.4-1.5c0-0.8,0.6-1.3,1.4-1.3c0.8,0,1.4,0.5,1.4,1.4h-0.7c0-0.4-0.3-0.7-0.7-0.7c-0.4,0-0.7,0.3-0.7,0.7
		c0,1,2.2,0.4,2.2,2.3C31,68.8,30.3,69.4,29.5,69.4"/>
	<path class="st1" d="M35.9,65.7c-0.4-0.4-0.8-0.7-1.4-0.7c-1,0-1.8,0.9-1.8,1.9c0,1,0.8,1.9,1.8,1.9c0.5,0,1-0.3,1.3-0.6h0.9
		c-0.5,0.8-1.3,1.3-2.2,1.3c-1.4,0-2.5-1.2-2.5-2.6c0-1.4,1.1-2.5,2.5-2.5c0.5,0,1.1,0.2,1.5,0.5c0.3,0.2,0.5,0.5,0.8,0.9H35.9
		L35.9,65.7z"/>
	<polygon class="st1" points="40.8,69.3 40.8,67.2 38.8,67.2 38.8,69.3 38.1,69.3 38.1,64.4 38.8,64.4 38.8,66.5 40.8,66.5 
		40.8,64.4 41.5,64.4 41.5,69.3 40.8,69.3 	"/>
	<path class="st1" d="M45.4,65c-0.8,0-1.4,0.4-1.7,1.1c-0.1,0.2-0.2,0.5-0.2,0.8c0,0.3,0.1,0.5,0.2,0.8c0.3,0.7,0.9,1.1,1.7,1.1
		c0.8,0,1.4-0.5,1.7-1.2c0.1-0.2,0.1-0.4,0.1-0.7C47.3,65.8,46.5,65,45.4,65 M45.4,69.4c-1.4,0-2.6-1.1-2.6-2.5
		c0-1.4,1.1-2.5,2.6-2.5c1.4,0,2.6,1.1,2.6,2.6C48,68.3,46.8,69.4,45.4,69.4"/>
	<path class="st1" d="M51.7,65c-0.8,0-1.4,0.4-1.7,1.1c-0.1,0.2-0.2,0.5-0.2,0.8c0,0.3,0.1,0.5,0.2,0.8c0.3,0.7,0.9,1.1,1.7,1.1
		c0.8,0,1.4-0.5,1.7-1.2c0.1-0.2,0.1-0.4,0.1-0.7C53.5,65.8,52.7,65,51.7,65 M51.7,69.4c-1.4,0-2.6-1.1-2.6-2.5
		c0-1.4,1.1-2.5,2.6-2.5c1.4,0,2.6,1.1,2.6,2.6C54.2,68.3,53.1,69.4,51.7,69.4"/>
	<polygon class="st1" points="55.6,69.3 55.6,64.4 56.3,64.4 56.3,68.7 58,68.7 58,69.3 55.6,69.3 	"/>
	<path class="st1" d="M66.3,67.4c-0.2-0.3-0.5-0.3-0.8-0.3h-0.7v1.6h0.8c0.5,0,0.9-0.3,0.9-0.8C66.4,67.7,66.4,67.5,66.3,67.4
		 M65.3,65.1h-0.5v1.4h0.6c0.5,0,0.8-0.2,0.8-0.7C66.2,65.2,65.8,65.1,65.3,65.1 M67,68.5c-0.3,0.6-0.9,0.8-1.5,0.8h-1.5v-4.9h1.3
		c0.6,0,1.2,0.2,1.4,0.8c0.1,0.2,0.1,0.4,0.1,0.5c0,0.4-0.1,0.7-0.4,0.9c0.5,0.3,0.7,0.6,0.7,1.2C67.2,68.1,67.1,68.3,67,68.5"/>
	<path class="st1" d="M70,65.1h-0.8v1.9h0.5c0.6,0,1.4-0.2,1.4-1C71.1,65.4,70.6,65.1,70,65.1 M70.9,67.4c-0.1,0.1-0.3,0.1-0.5,0.1
		l1.4,1.8h-0.9L69.2,67h0v2.3h-0.7v-4.9H70c0.5,0,1,0.1,1.3,0.4c0.3,0.3,0.5,0.7,0.5,1.2C71.8,66.6,71.5,67.2,70.9,67.4"/>
	<path class="st1" d="M75.9,69c-0.3,0.3-0.7,0.4-1.1,0.4c-0.4,0-0.8-0.1-1.1-0.4c-0.4-0.3-0.5-0.8-0.5-1.3v-3.3h0.7v3.3
		c0,0.6,0.3,1,0.9,1c0.6,0,0.9-0.5,0.9-1v-3.3h0.7v3.3C76.4,68.2,76.3,68.7,75.9,69"/>
	<path class="st1" d="M79.2,69.4c-0.9,0-1.5-0.7-1.5-1.5h0.7c0,0.5,0.3,0.9,0.8,0.9c0.5,0,0.8-0.4,0.8-0.8c0-0.5-0.4-0.6-0.8-0.8
		c-0.8-0.3-1.4-0.5-1.4-1.5c0-0.8,0.6-1.3,1.4-1.3c0.8,0,1.4,0.5,1.4,1.4h-0.7c0-0.4-0.3-0.7-0.7-0.7c-0.4,0-0.7,0.3-0.7,0.7
		c0,1,2.2,0.4,2.2,2.3C80.7,68.8,80.1,69.4,79.2,69.4"/>
	<path class="st1" d="M83.3,69.4c-0.9,0-1.5-0.7-1.5-1.5h0.7c0,0.5,0.3,0.9,0.8,0.9c0.5,0,0.8-0.4,0.8-0.8c0-0.5-0.4-0.6-0.8-0.8
		c-0.8-0.3-1.4-0.5-1.4-1.5c0-0.8,0.6-1.3,1.4-1.3c0.8,0,1.4,0.5,1.4,1.4h-0.7c0-0.4-0.3-0.7-0.7-0.7c-0.4,0-0.7,0.3-0.7,0.7
		c0,1,2.2,0.4,2.2,2.3C84.8,68.8,84.1,69.4,83.3,69.4"/>
	<polygon class="st1" points="86.1,69.3 86.1,64.4 88.8,64.4 88.8,65.1 86.8,65.1 86.8,66.5 88.8,66.5 88.8,67.2 86.8,67.2 
		86.8,68.7 88.8,68.7 88.8,69.3 86.1,69.3 	"/>
	<polygon class="st1" points="90.2,69.3 90.2,64.4 91,64.4 91,68.7 92.7,68.7 92.7,69.3 90.2,69.3 	"/>
</g>
</svg>
