<?xml version="1.0" encoding="utf-8"?>
<!-- Generator: Adobe Illustrator 25.2.1, SVG Export Plug-In . SVG Version: 6.00 Build 0)  -->
<svg version="1.1" id="Laag_1" xmlns="http://www.w3.org/2000/svg" xmlns:xlink="http://www.w3.org/1999/xlink" x="0px" y="0px"
	 viewBox="0 0 29.1 18" style="enable-background:new 0 0 29.1 18;" xml:space="preserve">
<style type="text/css">
	.st0{fill:#FFFFFF;}
</style>
<path class="st0" d="M10,2.6c-4.3,0-8.1,2.5-9.8,6.2c1.7,3.7,5.5,6.2,9.8,6.2c4.3,0,8.1-2.6,9.8-6.2C18.1,5.2,14.4,2.6,10,2.6z
	 M10,13.4c-3.2,0-6.2-1.7-7.8-4.5C3.8,6.1,6.8,4.4,10,4.4c3.2,0,6.2,1.7,7.8,4.5C16.3,11.6,13.3,13.4,10,13.4z M10.1,6.4
	c-0.1,0-0.2,0-0.2,0c0,0.1,0,0.2,0,0.3c0,1-0.8,1.8-1.8,1.8c-0.2,0-0.3,0-0.5-0.1c0,0.1,0,0.3,0,0.4c0,1.4,1.1,2.5,2.5,2.5
	s2.5-1.1,2.5-2.5C12.6,7.4,11.5,6.4,10.1,6.4z"/>
</svg>
