<?xml version="1.0" encoding="utf-8"?>
<!-- Generator: Adobe Illustrator 25.2.1, SVG Export Plug-In . SVG Version: 6.00 Build 0)  -->
<svg version="1.1" id="Laag_1" xmlns="http://www.w3.org/2000/svg" xmlns:xlink="http://www.w3.org/1999/xlink" x="0px" y="0px"
	 viewBox="0 0 29.1 18" style="enable-background:new 0 0 29.1 18;" xml:space="preserve">
<style type="text/css">
	.st0{fill:#FFFFFF;}
</style>
<g>
	<path class="st0" d="M28.4,8.5C24,0.8,14.2-1.8,6.6,2.6C4.1,4,2.1,6,0.7,8.5c-0.2,0.3-0.2,0.7,0,1c4.4,7.7,14.2,10.3,21.9,5.9
		c2.4-1.4,4.5-3.4,5.9-5.9C28.6,9.1,28.6,8.8,28.4,8.5z M14.6,15.5C9.8,15.4,5.3,13,2.7,9c4.1-6.5,12.8-8.5,19.3-4.3
		c1.8,1.1,3.2,2.6,4.3,4.3C23.8,13,19.4,15.4,14.6,15.5z M14.6,5c-2.2,0-4,1.8-4,4s1.8,4,4,4s4-1.8,4-4S16.8,5,14.6,5z M14.6,11
		c-1.1,0-2-0.9-2-2s0.9-2,2-2s2,0.9,2,2S15.7,11,14.6,11z"/>
</g>
</svg>
