<?xml version="1.0" encoding="utf-8"?>
<!-- Generator: Adobe Illustrator 25.2.1, SVG Export Plug-In . SVG Version: 6.00 Build 0)  -->
<svg version="1.1" id="Laag_1" xmlns="http://www.w3.org/2000/svg" xmlns:xlink="http://www.w3.org/1999/xlink" x="0px" y="0px"
	 viewBox="0 0 100 76.8" style="enable-background:new 0 0 100 76.8;" xml:space="preserve">
<style type="text/css">
	.st0{fill:#FFFFFF;}
</style>
<g>
	<path class="st0" d="M95,44.8c0-4.4-3.6-8-8-8h-7V36C80,18.8,66.6,4.7,50,4.7S20,18.8,20,36v0.7h-7c-4.4,0-8,3.6-8,8v20.1
		c0,4.4,3.6,8,8,8h10c1.7,0,3-1.3,3-3V36c0-14,10.8-25.3,24-25.3s24,11.4,24,25.3v33.7c0,0,0,0.1,0,0.1c0,1.7,1.3,3,3,3h10
		c4.4,0,8-3.6,8-8V44.8z M11,64.8V44.8c0-1.1,0.9-2,2-2h7v24.1h-7C11.9,66.8,11,65.9,11,64.8z M89,64.8c0,1.1-0.9,2-2,2h-7V42.8h7
		c1.1,0,2,0.9,2,2V64.8z"/>
</g>
</svg>
