<?xml version="1.0" encoding="utf-8"?>
<!-- Generator: Adobe Illustrator 25.2.1, SVG Export Plug-In . SVG Version: 6.00 Build 0)  -->
<svg version="1.1" id="Laag_1" xmlns="http://www.w3.org/2000/svg" xmlns:xlink="http://www.w3.org/1999/xlink" x="0px" y="0px"
	 viewBox="0 0 32 31.2" style="enable-background:new 0 0 32 31.2;" xml:space="preserve">
<style type="text/css">
	.st0{fill:#FFFFFF;}
</style>
<desc>interface essential</desc>
<g>
	<path class="st0" d="M16.7,22.4l-2.8,2.8c-2,1.9-5.2,1.9-7.1-0.1c-1.9-1.9-1.9-5,0-6.9l2.8-2.8c0.4-0.4,0.4-1,0-1.4
		c-0.4-0.4-1-0.4-1.4,0c0,0,0,0,0,0l-2.8,2.8c-2.7,2.7-2.7,7.2,0,9.9s7.2,2.7,9.9,0l2.8-2.8c0.4-0.4,0.4-1,0-1.4c0,0,0,0,0,0
		C17.7,22,17.1,22,16.7,22.4z"/>
	<path class="st0" d="M26.6,5.4c-2.7-2.7-7.2-2.7-9.9,0c0,0,0,0,0,0l-2.8,2.8c-0.4,0.4-0.4,1,0,1.4c0,0,0,0,0,0c0.4,0.4,1,0.4,1.4,0
		l2.8-2.8c2-1.9,5.2-1.9,7.1,0.1c1.9,1.9,1.9,5,0,6.9l-2.8,2.8c-0.4,0.4-0.4,1,0,1.4c0.2,0.2,0.4,0.3,0.7,0.3c0.3,0,0.5-0.1,0.7-0.3
		l2.8-2.8C29.3,12.6,29.3,8.1,26.6,5.4C26.6,5.4,26.6,5.4,26.6,5.4z"/>
	<path class="st0" d="M18.8,11.8l-7.1,7.1c-0.4,0.4-0.4,1,0,1.4c0.4,0.4,1,0.4,1.4,0l7.1-7.1c0.4-0.4,0.3-1.1-0.1-1.4
		C19.8,11.4,19.2,11.4,18.8,11.8z"/>
</g>
</svg>
