<?xml version="1.0" encoding="utf-8"?>
<!-- Generator: Adobe Illustrator 25.2.1, SVG Export Plug-In . SVG Version: 6.00 Build 0)  -->
<svg version="1.1" id="Laag_1" xmlns="http://www.w3.org/2000/svg" xmlns:xlink="http://www.w3.org/1999/xlink" x="0px" y="0px"
	 viewBox="0 0 781.4 640.2" style="enable-background:new 0 0 781.4 640.2;" xml:space="preserve">
<style type="text/css">
	.st0{fill:#2405F2;}
</style>
<g>
	<path class="st0" d="M756.8,5.5v409.7h-30.9V249.3H711c-1.4,12.8-2.7,25.6-4.2,38.3c-1.5,11.9-3.3,23.8-4.8,35.7
		c-1.1,9.1-2,18.2-3.1,27.3c-1.2,10.2-2.6,20.3-3.8,30.5c-1.1,9.7-2.1,19.5-3,29.2c-0.3,2.8-0.4,5-4.2,5c-20.4-0.1-40.8,0-61.2-0.1
		c-0.6,0-1.2-0.2-1.8-0.3c-6.4-55.6-12.8-111-19.2-166.6h-15.2v166.6h-30.3V223h73.2c5.9,54.6,11.8,109.4,17.8,164.8
		c4.2,0,8.4,0.2,12.6-0.1c1-0.1,2.7-1.8,2.8-3c1.2-10.9,1.9-21.8,3.1-32.6c1.8-16.2,3.9-32.5,5.8-48.7c1.2-10.5,1.9-21.1,3.1-31.7
		c1.1-10.5,2.6-21,3.8-31.5c0.6-5.6,0.9-11.3,1.4-17.4H728V35.1H461.2v163.7h-77.3c-6-55.2-12.1-110.3-18.1-165.6h-19.2v165.6h-31.3
		V6.9h77.3c6.3,55,12.6,110.2,18.9,165.6h20.1v-5.6c0-39.8,0.1-79.5,0-119.3c0-12.2-0.7-24.3-0.9-36.5c0-1.9,0.6-3.7,0.9-5.6H756.8z
		"/>
	<path class="st0" d="M328.9,605.8V470.9h24.8v-29.2H22v192.6h332.1v-28.5H328.9z M300,605.6H50.8V471.3H300V605.6z"/>
	<polygon class="st0" points="576.8,470.8 576.8,604.7 692.7,604.7 692.7,553.2 660,553.2 660,524.1 754.5,524.1 754.5,553 
		722.5,553 722.5,634.3 547.1,634.3 547.1,441.9 754.5,441.9 754.5,470.8 	"/>
	<path class="st0" d="M521.7,441.9v192.4h-77.4c-0.7-4.6-1.5-9.1-1.9-13.7c-1.1-10.4-1.9-20.8-3.1-31.1c-1.2-10.7-2.6-21.3-3.8-31.9
		c-1.1-10.2-2-20.4-3-30.7c-1.2-11.3-2.5-22.6-3.9-33.9c-1-8.2-2-16.4-3-24.5h-19.5v165.9h-31.3V441.9h78
		c1.1,10.8,2.1,21.5,3.3,32.2c1.5,12.7,3.3,25.4,4.8,38.1c1.1,9.9,1.9,19.8,3.1,29.7c1.1,9.9,2.6,19.7,3.8,29.5
		c0.8,7,1.4,14.1,2.1,21.1c0.4,4,0.4,8.1,1.2,12c0.2,1.2,2.1,3,3.3,3.1c5.5,0.3,11,0.1,17.1,0.1v-166H521.7z"/>
	<path class="st0" d="M167.6,300.3c-4.4-23.4-16.9-42.4-36-56.7c-17.5-13.1-37.1-20.6-59.1-20.9c-16.8-0.2-33.6,0-50.4,0v192.6
		c15.7,0,31.3,0.3,47-0.1c7-0.2,14.1-1.2,21-2.6c17.6-3.5,33-11.2,46.7-23c11.7-10.1,20.2-22.2,26.1-36.2
		C169.9,336.2,171,318.2,167.6,300.3z M117.4,366.3c-10.5,9.7-23.1,16.1-37.6,17.6c-9.5,1-19.1,1-29,1.5V252.2
		c17.5-1.2,34.6-0.5,50.3,7.6c20.6,10.7,34.2,26.9,37.6,50.5C141.9,333,133.6,351.3,117.4,366.3z"/>
	<path class="st0" d="M144.6,61c-7.1-31-35.9-54.8-68.7-54.5C58,6.6,40,6.5,22,6.5v191.6h29.5v-50.8c8.8,0,17.3,0.7,25.7-0.2
		c9-1,18.2-2.4,26.5-5.7C134.8,129.1,152.1,93.9,144.6,61z M82.9,116.6c-9.9,1.8-20.5,0.3-31.1,0.3V35.7c13,0.9,26-2,38.3,3.1
		c14.6,6.1,23.7,16.9,25.9,32.6C119.4,95.4,103.4,112.8,82.9,116.6z"/>
	<path class="st0" d="M379.4,286.9c-10-27-28.1-46.7-55.2-57.7c-17.3-7.1-35.5-8.8-53.5-5.3c-24.4,4.7-44.6,16.8-59.6,37.3
		c-16.7,22.7-21.9,48.1-17.1,75.2c3.8,21.4,14.2,39.7,31.1,54.2c16.5,14.2,35.5,22.2,57,23.5c23.2,1.5,44.5-4.6,63.3-18.5
		c14.1-10.3,24.4-23.5,31.5-39.8c-7.7-0.8-15.1-1.3-22.4-2.3c-6.2-0.9-9.5,2.1-13.2,6.5c-4.7,5.6-10.1,10.9-16.1,15.1
		c-15.5,10.8-32.9,13.6-51.2,9.7c-14-3-26.1-10-35.7-20.5c-9.2-10-15.1-22-17.2-36.2h6.3c50.4,0,100.9,0,151.3,0
		c3.3,0,5.7-0.2,5.8-4.3C385,311.3,383.7,298.7,379.4,286.9z M223.1,300.6c5.5-24.4,27.8-45.6,55.1-49.6
		c37.5-5.5,67.9,20.2,75.8,49.6H223.1z"/>
	<path class="st0" d="M164.3,6.9v191.9h29.3v-80.5h68.6v80.6h28.9V6.9H164.3z M261.7,88.4h-68V36.2h68V88.4z"/>
	<path class="st0" d="M409.3,222.8v192h29.2v-81.4h69.6V415h27.9V222.8H409.3z M507.6,303.4h-68.9v-51.2h68.9V303.4z"/>
</g>
</svg>
