<?xml version="1.0" encoding="utf-8"?>
<!-- Generator: Adobe Illustrator 25.2.1, SVG Export Plug-In . SVG Version: 6.00 Build 0)  -->
<svg version="1.1" id="Laag_1" xmlns="http://www.w3.org/2000/svg" xmlns:xlink="http://www.w3.org/1999/xlink" x="0px" y="0px"
	 viewBox="0 0 781.4 640.2" style="enable-background:new 0 0 781.4 640.2;" xml:space="preserve">
<style type="text/css">
	.st0{clip-path:url(#SVGID_2_);}
	.st1{clip-path:url(#SVGID_4_);fill:#2405F2;}
</style>
<g id="Slim_vectorobject_1_">
	<g>
		<defs>
			<rect id="SVGID_1_" x="5.4" y="11.2" width="771.5" height="624.2"/>
		</defs>
		<clipPath id="SVGID_2_">
			<use xlink:href="#SVGID_1_"  style="overflow:visible;"/>
		</clipPath>
		<g class="st0">
			<defs>
				<rect id="SVGID_3_" x="5.4" y="11.2" width="771.5" height="624.2"/>
			</defs>
			<clipPath id="SVGID_4_">
				<use xlink:href="#SVGID_3_"  style="overflow:visible;"/>
			</clipPath>
			<path class="st1" d="M103.7,30.9c12.6,12.4,19.7,29.4,19.7,47.6c0,17.9-7.1,34.4-19.7,47.3c-12.4,12.9-29.4,19.4-47.6,19.4H33
				v333.5H5.4V11.2h50.7C74.2,11.2,91.3,18.3,103.7,30.9 M96,78.5c0-21.8-18.1-39.9-39.9-39.9H33v79.1h23.1
				C77.9,117.7,96,100.3,96,78.5"/>
			<path class="st1" d="M141.5,195.2v-184h121.2v184h-27.1v-78.3h-67.3v78.3H141.5z M168.3,89.8h67.3V38.3h-67.3V89.8z"/>
			<polygon class="st1" points="334.7,35.9 315,35.9 315,195.2 286.1,195.2 286.1,11.2 359.4,11.2 377.5,170.7 397.5,170.7 
				397.2,11.2 425.3,11.2 425.3,195.2 352,195.2 			"/>
			<path class="st1" d="M213.6,325.2c0,12.6-2.6,24.7-7.6,36.3c-5,10.8-12.1,20.8-21,29.2c-18.4,17.1-42.6,26.5-68.3,26.5H73v-184
				h43.6c25.8,0,49.9,9.5,68.3,26.5c8.9,8.4,16,18.1,21,29.2C211,300.5,213.6,312.8,213.6,325.2 M186,325.2
				c0-35.7-31-64.4-69.4-64.4h-16.6v128.8h16.6C155,389.6,186,360.7,186,325.2"/>
			<path class="st1" d="M328.2,417.4c-51.2,0-92.4-41.3-92.4-92.4c0-51.2,41.3-92.4,92.4-92.4c51.2,0,92.4,41.3,92.4,92.4
				c0,3-0.2,5.9-0.5,8.6H262.5c1.7,14.6,8.4,27.9,18.8,38.3c12.6,12.6,29.2,19.5,47,19.5s34.4-6.9,47-19.5c3.7-4,7.2-8.2,9.9-12.6
				l27.9,2.2C398.9,394.4,366.3,417.4,328.2,417.4 M281.2,278c-8.4,8.4-14.3,19-17.3,30.2h128.5c-3-11.1-8.9-21.7-17.3-30.2
				c-12.6-12.6-29.2-19.5-47-19.5S293.9,265.4,281.2,278"/>
			<path class="st1" d="M565.8,11.2v406H444.6v-184h27.1v78.3H539V11.2H565.8z M539,338.6h-67.3v51.5H539V338.6z"/>
			<polygon class="st1" points="632.8,257.4 617,257.4 617,417.2 589.2,417.2 589.2,233.2 658.3,233.2 675.4,391.9 690.6,391.9 
				707.7,233.2 776.8,233.2 776.8,557.1 747.9,557.1 748.4,257.9 732.9,257.9 714,417.2 651.2,417.2 			"/>
			<polygon class="st1" points="57.4,609.7 81.3,609.7 81.3,635.4 6.9,635.4 6.9,609.7 31.1,609.7 31.1,478.5 6.9,478.5 6.9,451.5 
				81.3,451.5 81.3,478.5 57.4,478.5 			"/>
			<polygon class="st1" points="150.9,476.2 131.2,476.2 131.2,635.4 102.3,635.4 102.3,451.5 175.6,451.5 193.8,611 213.8,611 
				213.5,451.5 241.6,451.5 241.6,635.4 168.3,635.4 			"/>
			<polygon class="st1" points="434.2,635.4 267.6,635.4 267.6,451.5 407.2,451.5 407.2,478.5 294.4,478.5 294.4,608.4 407.2,608.4 
				407.2,557.1 375.6,557.1 375.6,530 769.3,530 769.3,557.1 434.2,557.1 			"/>
			<rect x="397.1" y="11.2" class="st1" width="167.9" height="27.1"/>
		</g>
	</g>
</g>
</svg>
