<?xml version="1.0" encoding="utf-8"?>
<!-- Generator: Adobe Illustrator 25.2.1, SVG Export Plug-In . SVG Version: 6.00 Build 0)  -->
<svg version="1.1" id="Laag_1" xmlns="http://www.w3.org/2000/svg" xmlns:xlink="http://www.w3.org/1999/xlink" x="0px" y="0px"
	 viewBox="0 0 781.4 640.2" style="enable-background:new 0 0 781.4 640.2;" xml:space="preserve">
<style type="text/css">
	.st0{clip-path:url(#SVGID_2_);}
	.st1{clip-path:url(#SVGID_4_);fill:#FFFFFF;}
	.st2{clip-path:url(#SVGID_6_);fill:#FFFFFF;}
	.st3{clip-path:url(#SVGID_8_);fill:#FFFFFF;}
	.st4{clip-path:url(#SVGID_10_);fill:#FFFFFF;}
	.st5{clip-path:url(#SVGID_12_);fill:#FFFFFF;}
	.st6{clip-path:url(#SVGID_14_);fill:#FFFFFF;}
	.st7{clip-path:url(#SVGID_16_);fill:#FFFFFF;}
	.st8{clip-path:url(#SVGID_18_);fill:#FFFFFF;}
	.st9{clip-path:url(#SVGID_20_);fill:#FFFFFF;}
	.st10{clip-path:url(#SVGID_22_);fill:#FFFFFF;}
	.st11{clip-path:url(#SVGID_24_);fill:#FFFFFF;}
</style>
<g id="Slim_vectorobject_1_">
	<g>
		<g>
			<defs>
				<rect id="SVGID_1_" x="2.4" y="11.2" width="771.5" height="624.2"/>
			</defs>
			<clipPath id="SVGID_2_">
				<use xlink:href="#SVGID_1_"  style="overflow:visible;"/>
			</clipPath>
			<g class="st0">
				<g>
					<defs>
						<rect id="SVGID_3_" x="2.4" y="11.2" width="771.5" height="624.2"/>
					</defs>
					<clipPath id="SVGID_4_">
						<use xlink:href="#SVGID_3_"  style="overflow:visible;"/>
					</clipPath>
					<path class="st1" d="M100.7,30.9c12.6,12.4,19.7,29.4,19.7,47.6c0,17.9-7.1,34.4-19.7,47.3c-12.4,12.9-29.4,19.4-47.6,19.4H30
						v333.5H2.4V11.2h50.7C71.2,11.2,88.3,18.3,100.7,30.9 M93,78.5c0-21.8-18.1-39.9-39.9-39.9H30v79.1h23.1
						C74.9,117.7,93,100.3,93,78.5"/>
				</g>
				<g>
					<defs>
						<rect id="SVGID_5_" x="2.4" y="11.2" width="771.5" height="624.2"/>
					</defs>
					<clipPath id="SVGID_6_">
						<use xlink:href="#SVGID_5_"  style="overflow:visible;"/>
					</clipPath>
					<path class="st2" d="M138.5,195.2v-184h121.2v184h-27.1v-78.3h-67.3v78.3H138.5z M165.3,89.8h67.3V38.3h-67.3V89.8z"/>
				</g>
				<g>
					<defs>
						<rect id="SVGID_7_" x="2.4" y="11.2" width="771.5" height="624.2"/>
					</defs>
					<clipPath id="SVGID_8_">
						<use xlink:href="#SVGID_7_"  style="overflow:visible;"/>
					</clipPath>
					<polygon class="st3" points="331.7,35.9 312,35.9 312,195.2 283.1,195.2 283.1,11.2 356.4,11.2 374.5,170.7 394.5,170.7 
						394.2,11.2 422.3,11.2 422.3,195.2 349,195.2 					"/>
				</g>
				<g>
					<defs>
						<rect id="SVGID_9_" x="2.4" y="11.2" width="771.5" height="624.2"/>
					</defs>
					<clipPath id="SVGID_10_">
						<use xlink:href="#SVGID_9_"  style="overflow:visible;"/>
					</clipPath>
					<path class="st4" d="M210.6,325.2c0,12.6-2.6,24.7-7.6,36.3c-5,10.8-12.1,20.8-21,29.2c-18.4,17.1-42.6,26.5-68.3,26.5H70v-184
						h43.6c25.8,0,49.9,9.5,68.3,26.5c8.9,8.4,16,18.1,21,29.2C208,300.5,210.6,312.8,210.6,325.2 M183,325.2
						c0-35.7-31-64.4-69.4-64.4H97v128.8h16.6C152,389.6,183,360.7,183,325.2"/>
				</g>
				<g>
					<defs>
						<rect id="SVGID_11_" x="2.4" y="11.2" width="771.5" height="624.2"/>
					</defs>
					<clipPath id="SVGID_12_">
						<use xlink:href="#SVGID_11_"  style="overflow:visible;"/>
					</clipPath>
					<path class="st5" d="M325.2,417.4c-51.2,0-92.4-41.3-92.4-92.4c0-51.2,41.3-92.4,92.4-92.4c51.2,0,92.4,41.3,92.4,92.4
						c0,3-0.2,5.9-0.5,8.6H259.5c1.7,14.6,8.4,27.9,18.8,38.3c12.6,12.6,29.2,19.5,47,19.5s34.4-6.9,47-19.5c3.7-4,7.2-8.2,9.9-12.6
						l27.9,2.2C395.9,394.4,363.3,417.4,325.2,417.4 M278.2,278c-8.4,8.4-14.3,19-17.3,30.2h128.5c-3-11.1-8.9-21.7-17.3-30.2
						c-12.6-12.6-29.2-19.5-47-19.5S290.9,265.4,278.2,278"/>
				</g>
				<g>
					<defs>
						<rect id="SVGID_13_" x="2.4" y="11.2" width="771.5" height="624.2"/>
					</defs>
					<clipPath id="SVGID_14_">
						<use xlink:href="#SVGID_13_"  style="overflow:visible;"/>
					</clipPath>
					<path class="st6" d="M562.8,11.2v406H441.6v-184h27.1v78.3H536V11.2H562.8z M536,338.6h-67.3v51.5H536V338.6z"/>
				</g>
				<g>
					<defs>
						<rect id="SVGID_15_" x="2.4" y="11.2" width="771.5" height="624.2"/>
					</defs>
					<clipPath id="SVGID_16_">
						<use xlink:href="#SVGID_15_"  style="overflow:visible;"/>
					</clipPath>
					<polygon class="st7" points="629.8,257.4 614,257.4 614,417.2 586.2,417.2 586.2,233.2 655.3,233.2 672.4,391.9 687.6,391.9 
						704.7,233.2 773.8,233.2 773.8,557.1 744.9,557.1 745.4,257.9 729.9,257.9 711,417.2 648.2,417.2 					"/>
				</g>
				<g>
					<defs>
						<rect id="SVGID_17_" x="2.4" y="11.2" width="771.5" height="624.2"/>
					</defs>
					<clipPath id="SVGID_18_">
						<use xlink:href="#SVGID_17_"  style="overflow:visible;"/>
					</clipPath>
					<polygon class="st8" points="54.4,609.7 78.3,609.7 78.3,635.4 3.9,635.4 3.9,609.7 28.1,609.7 28.1,478.5 3.9,478.5 
						3.9,451.5 78.3,451.5 78.3,478.5 54.4,478.5 					"/>
				</g>
				<g>
					<defs>
						<rect id="SVGID_19_" x="2.4" y="11.2" width="771.5" height="624.2"/>
					</defs>
					<clipPath id="SVGID_20_">
						<use xlink:href="#SVGID_19_"  style="overflow:visible;"/>
					</clipPath>
					<polygon class="st9" points="147.9,476.2 128.2,476.2 128.2,635.4 99.3,635.4 99.3,451.5 172.6,451.5 190.8,611 210.8,611 
						210.5,451.5 238.6,451.5 238.6,635.4 165.3,635.4 					"/>
				</g>
				<g>
					<defs>
						<rect id="SVGID_21_" x="2.4" y="11.2" width="771.5" height="624.2"/>
					</defs>
					<clipPath id="SVGID_22_">
						<use xlink:href="#SVGID_21_"  style="overflow:visible;"/>
					</clipPath>
					<polygon class="st10" points="431.2,635.4 264.6,635.4 264.6,451.5 404.2,451.5 404.2,478.5 291.4,478.5 291.4,608.4 
						404.2,608.4 404.2,557.1 372.6,557.1 372.6,530 766.3,530 766.3,557.1 431.2,557.1 					"/>
				</g>
				<g>
					<defs>
						<rect id="SVGID_23_" x="2.4" y="11.2" width="771.5" height="624.2"/>
					</defs>
					<clipPath id="SVGID_24_">
						<use xlink:href="#SVGID_23_"  style="overflow:visible;"/>
					</clipPath>
					<rect x="394.1" y="11.2" class="st11" width="167.9" height="27.1"/>
				</g>
			</g>
		</g>
	</g>
</g>
</svg>
