<?xml version="1.0" encoding="utf-8"?>
<!-- Generator: Adobe Illustrator 25.2.1, SVG Export Plug-In . SVG Version: 6.00 Build 0)  -->
<svg version="1.1" id="Laag_1" xmlns="http://www.w3.org/2000/svg" xmlns:xlink="http://www.w3.org/1999/xlink" x="0px" y="0px"
	 viewBox="0 0 781.4 640.2" style="enable-background:new 0 0 781.4 640.2;" xml:space="preserve">
<style type="text/css">
	.st0{fill:#FFFFFF;}
</style>
<g>
	<path class="st0" d="M167,6v192.8h29.4v-80.7h311.6v80.7h29.3V6H167z M507.5,88H196.6V35.7h310.9V88z"/>
	<polygon class="st0" points="760.7,526.3 760.7,555.7 728.4,555.7 728.4,635.1 473.7,635.1 473.7,442.4 758.5,442.4 758.5,471.3 
		502.4,471.3 502.4,605.5 698.6,605.5 698.6,555.8 665.9,555.8 665.9,526.3 	"/>
	<path class="st0" d="M443.3,442.3v192.8h-79.4c-0.6-3.9-1.5-7.8-1.9-11.8c-1.7-15-3.3-30-4.9-45s-3.3-30-4.9-45
		c-1.7-16.6-3.2-33.3-5-49.9c-0.5-4.6-1.3-9.1-2-13.5h-87.1v165.3h-31.4V442.3c1.9-0.1,3.5-0.2,5.1-0.2c45.1,0,90.1,0,135.2-0.1
		c4.5,0,5.6,1.3,5.9,5.8c0.7,10.2,2.5,20.4,3.6,30.6c1.1,9.8,2,19.5,3.1,29.3c1.1,10,2.5,20.1,3.7,30.1c0.8,6.9,1.4,13.8,2.2,20.6
		c1.2,10.5,2.6,21,3.8,31.6c0.5,4.6,0.9,9.3,1.1,14c0.1,3.3,1.2,5,4.9,4.8c5.7-0.3,11.4-0.1,17.6-0.1V442.3H443.3z"/>
	<path class="st0" d="M759.7,6v192.7H632.3c-6-54.7-12-109.7-18-165h-19v164.9h-31.5V6h77.4c1,10.4,1.9,20.8,3,31.2
		c0.9,8.6,1.9,17.2,3,25.8c1.3,10.5,2.6,21,3.8,31.5c0.8,6.9,1.4,13.8,2.2,20.6c1.2,9.9,2.5,19.7,3.7,29.6c1.1,9.2,2,18.4,3,27.5
		h69.5V6H759.7z"/>
	<polygon class="st0" points="194.4,607.4 194.4,635.1 23,635.1 23,607.7 113.8,607.7 113.8,471.5 23,471.5 23,442.1 194.1,442.1 
		194.1,471.4 142.7,471.4 142.7,607.4 	"/>
	<path class="st0" d="M146.9,58.7C139.5,31.3,121.1,14,92.8,8C89.5,7.3,86.1,6.7,82.7,6H24.9v192.8h30.4v-51.7c3.3,0,6,0.1,8.8,0
		c8.9-0.3,17.9-0.2,26.7-1.1c13.5-1.4,25.4-7.1,35.1-16.3C146.5,110.2,154.3,86,146.9,58.7z M84.6,116.7c-9.5,0.7-19.1,1-28.9,1.5
		v-84c12.3,1.4,24.5,1.4,35.8,4.4c15.6,4.3,24.3,16,27.6,31.9C123.8,92.8,104.3,115.4,84.6,116.7z"/>
	<path class="st0" d="M759.5,222.6v192.8h-30v-166c-1.4-0.1-2.4-0.3-3.3-0.3c-3.6,0-7.9-1.1-10.5,0.5c-1.9,1.1-1.9,5.9-2.3,9
		c-1,6.7-1.8,13.4-2.6,20c-1.3,10-2.7,20-3.8,30.1c-1.1,9.6-1.9,19.2-3.1,28.8c-1.1,9.7-2.6,19.4-3.8,29.1c-1.1,8.8-2.1,17.6-3,26.3
		c-0.8,7.4-1.5,14.7-2.3,22.4H628c-6.4-55.3-12.7-110.5-19.1-166h-15.5v165.9h-30.2V222.8h73.3c5.9,54.8,11.8,109.7,17.8,165h15
		c0.8-7.1,1.6-14.2,2.4-21.4c1.3-11,2.6-22,3.8-33c0.8-7.4,1.3-14.8,2.1-22.1c1.2-10.9,2.6-21.7,3.7-32.5c0.8-7.4,1.4-14.7,2.1-22.1
		c1-10.2,1.9-20.5,3.1-30.7c0.1-1.2,2.1-3.1,3.2-3.1C712.8,222.5,736,222.6,759.5,222.6z"/>
	<path class="st0" d="M297.2,222.8c-39.1-2.9-92.9,21.1-101.4,85.9c-5.4,41.4,19.7,96.5,83.4,105.5c44.1,6.3,85.9-19.6,100.1-57.9
		c-8.8-0.8-17.6-1.7-26.4-2.3c-1.4-0.1-3.2,0.9-4.2,2c-3,3.3-5.4,7.3-8.6,10.4c-15.9,15.5-34.7,22.9-57.3,20
		c-15.5-2-28.4-8.6-39.4-19.3c-10.8-10.5-16.9-23.5-19.5-38.7h163C392.2,283.9,361.8,227.7,297.2,222.8z M226.1,300.8
		c6.7-26.6,31.5-47.2,57.5-49.7c37.3-3.6,64.7,20.3,73.4,49.7H226.1z"/>
	<path class="st0" d="M413.3,222.9v192.4h28.1v-80.7h69.7v80.7h28.9V222.9H413.3z M510.7,304.6h-68.9v-52.3h68.9V304.6z"/>
	<path class="st0" d="M171,304.1c-2.5-17.5-9.7-32.9-21.1-46c-18.7-21.7-43.1-33.2-71.4-35.3c-17.5-1.3-35.2-0.2-53.2-0.2v193
		c13.4,0,26.4-0.2,39.5,0.1c15.9,0.4,31.3-1.8,46.2-7.8c19.3-7.8,34.7-20.2,46.1-37.4C170.5,350.4,174.4,328,171,304.1z
		 M125.8,361.4c-11.6,13.2-26.3,20.7-43.2,23.6c-9,1.6-18.4,1.1-27.9,1.6V252c17.8-0.3,35.2,0.4,51,9c18.3,10,31.3,24.9,35.6,45.6
		C145.5,327.2,139.8,345.5,125.8,361.4z"/>
</g>
</svg>
