<?xml version="1.0" encoding="utf-8"?>
<!-- Generator: Adobe Illustrator 25.2.1, SVG Export Plug-In . SVG Version: 6.00 Build 0)  -->
<svg version="1.1" id="Laag_1" xmlns="http://www.w3.org/2000/svg" xmlns:xlink="http://www.w3.org/1999/xlink" x="0px" y="0px"
	 viewBox="0 0 797.9 449.1" style="enable-background:new 0 0 797.9 449.1;" xml:space="preserve">
<style type="text/css">
	.st0{fill:#FEFEFE;}
</style>
<g>
	<g>
		<path d="M-2,391.5c0-22,0-44,0-66c6.3,0.4,12.2,3.1,18.6,3c16.7-0.2,33.5-0.4,50.2-0.8c24.2-0.5,48.5-0.2,72.7,0.5
			c31.8,1,63.6,0.3,95.4,0.2c3.2,0,4.4,0.7,4.1,4.1c-0.4,4.2,0.9,8.3,1.7,12.5c1.3,6.8,5.4,12.7,6,19.7c0.2,2.6,0.7,5.5,2.4,8.3
			c1-3,1.4-7.2,2.6-7.4c5.7-1.3,7-5.2,8.7-9.8c1-2.8,9.2-3.7,12.6-1.4c4.4,2.9,5.7,0.6,7.4-2.8c1.6-3.3,3.7-6.4,5.4-9.7
			c2-4,2.7-9.9,5.9-11.7c3.7-2.1,9.4-0.7,14.2-0.6c4.6,0.1,9.3-0.5,14.3,0.5c-2.9,3.4-4.6,7-3.5,10.5c0.7,2.1,1.9,3.7,0.1,5.6
			c-1.4,1.4,0.2,3.6,0.4,3.8c3.3,2,1,2.5-0.6,3.7c-1.7,1.3-2.6,2.9-2,5.7c0.5,2.4,2.4,3.8,2.8,6c-0.2,1-0.5,1.9-0.4,2.9
			c0.3,2.6,2.3,2.3,4.1,2.3c1.4,0,2.7-0.7,2.6-1.7c-0.1-2.5-2.3-1.1-3.5-1.2c-1.6-0.2-2-1.7-3.1-2.3c2.5,0.5,4.8,0.1,7.2-0.7
			c1.1-0.4,2.2-1.3,1.2-1.7c-4.2-2,1.2-3.2,0-5.1c-2-0.2-4.3-0.4-6.5-0.6c0-2.1,1.8-2.3,2.4-2.4c5.2-0.9,3.9-3.1,0.9-5
			c-1.3-0.9-1.9-1.2-0.7-2.4c1-1,0.9-1.8,0.7-3.3c-0.6-3.7-0.1-7.6-0.1-11.4c0.1-2.5,1.7-3.2,3.8-3.2c9.1,0,18.2,0.1,27.3,0
			c20.6-0.4,41.1-0.2,61.7-0.7c37.8-1,75.6-0.3,113.4-0.3c1.2,0,2.4-0.2,3.5,0c10.7,2.1,21.5,0.4,32.2,1c1.1,0.1,2.5-1.9,3.3,0.7
			c-3.3-0.1-4.3,1.9-3.7,4.7c0.6,2.9,2.6,1,4.1,1c1.6,0,3.2,1.1,4.9,1.5c1.3,0.3,2.7,0.3,3.5-1.1c0.7-1.2,0.8-2.7-0.1-3.7
			c-5.4-5.5,0.4-4,2.6-4c22.1-0.1,44.2,0.3,66.2-1.1c2.2-0.1,5.2,1.2,6.4-1.4c1.1-2.6-2.8-2.2-3.5-4c-0.1-0.3-0.1-0.7-0.3-0.9
			c-1.3-1.4-3.9-2.2-3.6-4.1c0.4-2.9,3.5,1.1,4.6-1.3c-3.4-3.2-3.5-3.3-2.3-9.3c-2,0-4-0.2-6,0c-7.5,0.9-7.7,0.9-7.6-6.6
			c0-3.6-1.3-4.6-4.7-4.5c-23.8,0.7-47.5-1.7-71.2-1c-1,0-2,0.1-3,0c-6.9-1.2-9.7,1.6-7.7,8c1.8,5.8,0.9,7.1-4.8,7
			c-25.1-0.6-50.1,0.9-75.2-0.8c-10.3-0.7-20.8-0.1-31.2,0.6c-18.2,1.3-36.5-0.1-54.7,1c-15,0.9-30.1,0.4-45.2-0.6
			c-9.3-0.6-18.7,1.8-28.4,0.2c1.5-2.9,3-4.7,6.9-4.5c14.1,0.8,28.1-0.3,42.2,0.9c12.1,1,24.3,0.2,36.5,0.2c0.7,0,1.3-0.1,1.6-1.5
			c-2.2-1.6-3.7-4.2-4.5-7.3c-1-3.9-3.5-5.3-7.9-5.3c-22.7,0.2-45.5,0.4-68.2-0.9c-1.1-0.1-3,0.9-3.3-1c-0.4-2.7-2.5-2.8-4.3-2.9
			c-6.4-0.2-10.8-4.2-15.9-7.6c4.6-2,6.7,2.1,10.1,3.7c-0.5-4.7,0.7-8.9-0.9-13.2c-0.7-2,0.1-3.9,2.9-5.1c4.9-2.1,8.7-5.5,7-11.9
			c-0.7-2.5-0.7-5.1-1-7.7c-0.3-2.1,0.1-3.3,2.8-3.3c6.8,0.1,13.5-0.4,20.3-0.7c17.3-0.7,34.6-0.2,52-0.3c3.1,0,3.9,1.2,4.1,4.1
			c0.3,3.9-1.3,7.5-1.1,11.2c0.3,6.6,2.1,7.7,8.4,6.8c8.4-1.2,16.5-3.4,24.9-4.5c6.9-0.9,14.3,0,20.8-3.6c1.8-1,3.2-1.1,4.9,0
			c0.7,0.5,2.5,2,1.6-1.1c-0.5-1.8,2.8-3.5,3.2-2.4c1,2.9,3.9,3.9,5,6c1.8,3.3,4.1,3.4,5.7,1.4c2.6-3.3,5-1.4,7.5-0.9
			c9.9,7.7,23.2,9.3,32.7,19.2c0.3-2.8,0-4.5,0.6-5.7c1.3-2.5,1.2-3.2-1.9-2.8c-0.6,0.1-2.5-1.1-3.5-1.1c-4.1-0.1-6.7-6.8-11.6-2.6
			c-0.1,0.1-0.6-0.1-0.9-0.2c1-3.5-3-2.8-4.1-4.2c1.2-2.5,3.7-0.6,5-2.2c1.9-0.2,3.9-0.5,5.5-1.7c1.1-0.7,2.1-1,3.1-0.1
			c2.5,2.3,6.1,4.4,7,7.3c2,5.9,4.5,2.2,7.1,1.3c0.2-0.1,0.5,0.3,0.8,0.4c-0.9,3.4-0.3,4.4,3.4,4.5c4.3,0.1,8.3,0.7,12.2,2.8
			c0.9,0.5,2.2,0.2,4.5,0.3c-2.4-1.7-3.9-2.7-5.9-3.1c-4.1-0.8-8.5-2.6-10.6-5.9c-2.4-3.7-5.5-6.2-8.4-9.2c-2.8-2.8-6.6-4.6-7.1-9.6
			c-0.4-4-3.4-6.7-8.4-6.3c-4.8,0.4-9.6,0.1-14.5,0.1c-3.9,0-6.6,1.3-6.8,5.7c4.1,0.8,7.5-0.3,11.2-1.5c3.6-1.2,7.7-1.6,11.6-1.3
			c0.3,0.2,0.6,0.4,0.8,0.7c-2.8,2.3-5.7,4.6-8.5,6.8c-0.3,0.5-0.6,0.9-0.9,1.4c0.8,0.4,1.5,0.3,1.8-0.7c2.2,0.5,3.1-3.4,5.8-1.7
			c-1.4,2.1-4.2,3.4-4.5,6.6c6.4-3.8,6.4-3.8,10.2-2.3c-1.7,0.8-3.3,1.5-4.8,2.3c-1.7,0.8-4.4,0.3-4.4,3.4c-5.5-1.2-11,0.7-16.5-0.3
			c-1.3-4.4,4.2-0.4,4-4.1c-3.2,1-6.4-2.4-10,1.3c1.8-4.7,1-8.8,1.1-12.9c0-1.1,0.4-2.5-1.5-2.4c-1.9,0.1-1.4,1.5-1.4,2.5
			c-0.1,2.7,0.1,5.3-0.1,8c-0.1,1.4-0.5,3.7-2.5,3.1c-1.5-0.4-3.1-2-2.2-4.3c0.5-1.2,1.1-2.3,1.4-3.5c1.4-4.7,0.6-5.8-4.2-5.8
			c-18.7,0-37.5-0.7-56.2-0.8c-31.2-0.1-62.4-1.5-93.6,0.8c-8.2,0.6-16.6-0.1-24.9-0.7c-7.5-0.6-15.1,1-22.7,0.8
			c-2.9-0.1-6.8-1.3-8.6,0.7c-1.7,1.9,1,5.1,1.6,7.7c0.1,0.5,0,1,0,1.5c0.4,3.4,1.5,6.1,5.2,7.2c3.2,1,6.1,2.8,9.3,3.8
			c4.6,1.4,7.3,3.9,6.4,9.1c-0.7,3.7-0.6,7.5,0.5,11.1c1.1,3.2-1.1,4.3-3,4.6c-3.7,0.6-7.5,0.7-11.2-0.6c-1.3-0.5-1.9-1.4-0.9-1.9
			c4.5-2.2,1.8-6.7,3.2-9.3c2.1-3.6,0.1-2.4-1.8-3c-4.4-1.5-8.8-4.1-9.6-8.8c-0.6-3.2-1.9-6.2-2.3-9.3c-0.1-1.1-0.3-2.3-1.6-1.4
			c-2.3,1.5-2.4-0.5-3.5-1.6c-3-2.7-4-8.1-8.3-8.5c-7.1-0.8-14.2-2.4-21.4-2.2c-12.6,0.2-25.2,0.8-37.7,0.9
			c-52.9,0.4-105.9,0.2-158.9,0.2c-1.3,0-2.7-0.1-4,0c-1.4,0.1-2.3,0.7-2.3,2.5c0,11,0,22-0.1,32.9c0,2.7,1.3,6.4-3.9,5.6
			c-0.7-0.1-1,0.6-1.1,1.3c-0.3,3.1-0.9,6.2-1,9.2c-0.2,7.1-0.1,7.1,6,3.8c0,3.1-0.1,6,0,9c0.1,2.6-1,3.7-3.5,3.5
			c-1.5-0.1-3,0-4.5,0c0-24.7,0-49.3,0-74c2.3,1,3.5,4.2,6.8,3.4c5.4-1.3,10.6,0.8,16,0.7c16.4-0.4,32.8-0.2,49.2-0.8
			c17-0.6,34.1-0.9,51.2,0.5c9.8,0.8,19.8,0.2,29.7-0.6c16.5-1.2,33.1-0.8,49.7-1.3c6-0.2,11.8,0.7,17.8,1
			c6.9,0.4,13.8-0.8,20.7-0.9c14.6-0.3,29.3,0.1,43.9-0.1c26.7-0.4,53.5,1.1,80.2-0.9c7.6-0.6,15.2,0.7,22.7,0.7
			c41.1-0.2,82.1,0.8,123.2-0.6c38.4-1.3,76.8,0.7,115.2-1.1c6.8-0.3,13.4-1.8,20.2-1.1c1.3,0.1,2.7-0.4,2.8-1.4
			c0.1-1-1.3-1.6-2.6-1.6c-4.2,0-8.3-1.6-12.6-1.3c4.5-0.8,9-1.2,13.6-1.6c1-0.1,2,0,2-1.5c0.1-1.5-0.9-1.7-1.9-1.5
			c-4.8,0.6-9.5-1.1-14.3-1c-37.6,0.6-75.1-1.2-112.7,0.9c-4.9,0.3-10-1.4-14.7-0.7c-7.3,1.1-14.5,0.4-21.8,0.8
			c-3.7,0.2-7.1,0.2-8.6-4.1c-0.5-1.6-1.9-0.7-3-0.8c0-5.2,0-10.5,0-15.7c-1.9,4.7,0.1,9.7-1.8,14.5c-0.5,1.2,1.7-0.1,1.9,1.1
			c0,1,0,2-0.1,3c-0.4,2.9-2.8,0.5-4.2,1.4c-1,0.7-2-0.9-1.6-1.5c1.5-2.7,0.4-5.5,0.9-8.2c2.3-11,3-22.3,1.6-33.4
			c-0.5-4.2,1-3.3,3.2-3.4c5.5,0,11,0.2,16.5-0.1c2.2-0.1,5.5,0.6,5.7-3.4c0.2-4.5-3.1-3.4-5.6-3.4c-6.4-0.1-12.7,0-20.1,0
			c6.9-6.8,12.9-12.7,18.9-18.8c1.3-1.4,4.2-2.7,3.5-4.4c-1.2-2.6-3.6,0.2-5.5,0.1c-1,0-2,0-3,0c-9.6-0.5-19.2-0.5-28.7-0.5
			c-9,0-18.1,0.1-27.2,0.4c-3.4,0.1-5.9,1-7.7,3.9c-0.2-0.3-0.4-0.6-0.7-0.8c0.3-1.1-0.3-2.5-1-2.5c-3.6,0.1-7.5-0.8-10.4,2.5
			c-4.3,4.9-7.2,10.9-9.1,16.9c-1.2,3.7-2.5,4.1-5.6,4.2c-20.7,0.5-41.5-1.3-62.2,0.9c-0.8,0.1-1.8,0.1-2.4-0.4
			c-7.8-5.9-17.7-7.1-25.8-12.4c-1.7-1.2-3.4-2-4.4-4c-2.2-4.4-5.4-6.4-10.8-6.4c-8.3,0.1-16.4,1.4-24.7,1.3
			c-15.2-0.3-30.5-0.3-45.7,0.8c-2,0.2-4.3-1.2-5.7,1.4c-1.5,2.9-1.5,5.7,0.9,8c1.9,1.9,2.9,4.3,4,6.6c3.1,6,3,6.1-3.8,6.1
			c-45.8,0-91.6,0-137.4,0c-1.5,0-3.2-0.4-4.5,0.1c-3,1.1-3.3-0.4-3.3-2.7c0-4.7-0.3-9.4,0.1-14c0.4-4.6-1.5-5.6-5.7-5.5
			c-15,0.2-29.9,0.1-44.9,0.1c-1.2,0-2.5,0-3.7,0c18.7-1,37.3-0.9,55.9-1c11.3-0.1,22.5,0.1,33.8-0.8c15.9-1.2,31.8-0.1,47.7-0.9
			c20.4-1.1,40.8-0.2,61.2-1.1c5.1-0.2,10.3,0.2,15.5,0.2c25-0.2,50-1,75-2.2c10.7-0.5,21.6,1,32.2,0.5c11-0.5,22-0.7,33-1.3
			c24-1.5,48.1,0.3,72.2-1.1c21.2-1.2,42.5,0.1,63.7-1c12.2-0.6,24.5-0.9,36.8,0.6c7.5,0.9,15-1.5,22.5-1.7c18.3-0.4,36.7-1.2,55-2
			c10.4-0.5,20.9,0.1,31.2-3.3c-16-0.8-32-0.8-48-0.8c-16,0-32,0-48,0c8.9-1.5,17.8-1.2,26.7-1.7c15.2-0.9,30.5-0.1,45.7-1.2
			c3.2-0.2,6.1-0.7,8.6-3.4c-41.4-0.5-82.7,1.9-124.8,1.2c1.3-1.5,2.4-2.3,3-3.4c4.7-8.4,10.9-12.3,21.3-11.8
			c31,1.4,62.1-1.4,93.2-0.7c3.4,0.1,4.6-0.9,4.8-4.5c0.2-4.1-2-3.6-4.5-3.6c-25.9-0.5-51.8,1.7-77.7,1c-2.3-0.1-4.9-0.6-7,0.1
			c-4.6,1.6-9.1,0.4-13.9,0.9c0.7-4.4,3.5-7.3,4.9-10.8c0.5-1.2-0.4-3.5,0.4-4.1c3.9-3,6.3-6.9,7.8-11.5c1.4-4.2,1.3-9.4,6.1-11.5
			c1.6-0.7,2-1.2,1.9-2.6c-0.1-1.9-1.2-2.5-3-2.6c-0.6,0-2.2,0.6-1.8,0.1c3-3.6-1.6-4-2.5-5.6c-1.6-2.7-5.3-1.8-7.6,0.6
			c-1.3,1.4-0.8,3.4-2.4,4.7c-6.6,5.4-10.6,13.5-19.1,17.3c-7.4,3.3-12.5,10.1-18.1,15.9c-1.8,1.8-3.6,3.4-6.5,3.3
			c5.4,8.7-5.6,9.2-6.8,14.7c0.9,0,1.5-0.1,2.2,0c0.9,0.1,2.5-0.5,2.3,0.9c-0.4,2.4-1.6,0.3-2.5,0.2c-0.6-0.1-1.1,0.6-1.7,0.6
			c-2.8,0.1-6.3,2.7-7.6,1.9c-3.5-1.9-4.3,0.6-4.5,2.2c-0.2,1.3-0.8,0.8-1.2,1.2c-6.5,5.5-13.6,9.6-22.6,8.6
			c-0.6-0.1-1.3,0.3-1.9,0.3c-3.1,0.1-6.5-0.1-8.6-2c-2.6-2.3-3-3-5.2,0.2c-1,1.5-2.1,1.9-3.7,1.8c-11.1-0.5-22.1,1.3-33.2,1.1
			c-26.6-0.6-53.1,1.7-79.7,0.9c-0.7,0-1.4-0.1-2,0c-6.6,2-13.3,0.5-20.3,1c2.7-4.4,5.5-8.1,4-13.2c-0.6-1.9,0.2-2.9,2.6-2.9
			c6.3,0.1,12.6-0.8,18.7-0.8c37.9,0.4,75.8-1.8,113.7-1.2c0.3,0,0.7,0,1,0c3.3,0.4,3.6-1.9,3.9-4.3c0.3-2.9-1.1-3.7-3.8-3.8
			c-4.1-0.1-8.1,1.1-12.2,1.2c-16.9,0.3-33.8-0.2-50.8,0.6c-23.4,1.1-46.8-0.2-70.2,1.3c-4.9,0.3-5.4-3.1-4.7-5.8
			c1.2-4.5,0.4-8.9,0.8-13.3c0.4-5-1.9-8.7-5.5-12c-2-1.8-3.7-3.5-4.3-6.9c-0.7-4.1-3.1-9.1-7.5-10.7c-8.4-3-17.1-1.5-25.5,0.6
			c-7.8,2-13.4,7.2-19.7,12.3c-9.5,7.7-12.5,17-13.7,28.2c-0.3,3.1,0.4,8.5-5.7,8.5c-12.6,0.1-25.2,0.4-37.7,0.8
			c-23.1,0.7-46.3-0.4-69.5,0.4c-11.8,0.4-23.5,0.5-35.3,0.8c-2,0-3.3,0.3-3.8-2.8c-1.5-8.4-0.5-16.9-0.7-25.3
			c-0.1-3.4-1.2-5-4.4-4.9c-15.6,0.7-31.2-1.1-46.7-1.1c-3.1,0-4.1,1.2-4,4.1c0.1,7.2,0,14.3,0.1,21.5c0,2.3-0.1,3.8-3.1,3.5
			c-1.3-0.1-3.6-1.4-3.9,1.5c-0.3,3.3,0,8.6,1.8,9c6.4,1.2,5.1,5.5,5.1,9.4c0.1,10,0,10-10,10c0-26.3,0-52.6,0-79
			c1.8-0.7,3.3,0.7,4.7,1.2c5.5,1.7,10.7-0.1,16-0.2c16.8-0.1,33.7,0,50.5,0c2.8,0,5.6,0,8.3,0c-2.6,1-5.2,1-7.9,1
			C48.5,64,27.2,64.3,6,64.6c-1.5,0-3.1-0.3-3.6,1.9c5.1,0.3,10.2-0.4,15.2-0.8c10.4-0.8,20.8-0.3,31.3-0.9c17.2-1,34.5,0,51.7-1.2
			c6.2-0.4,12.6,0.8,18.7,0.6c5.9-0.3,12.1-1.3,18-1.4c26.7-0.4,53.4-0.1,80-2.4c5.4-0.5,10.7,0.6,16,0.2c6-0.5,11.9-1.8,17.9-1.9
			c19.6-0.2,39.1-0.2,58.7-1c11.6-0.5,23.3-0.3,35,0c9.1,0.2,18.1-1.2,27.3-1.2c14.2,0,28.5,0.9,42.8-0.7c9.3-1.1,18.8-0.4,28.2-0.9
			c16.7-0.8,33.3-1.3,50-2.1c16.2-0.7,32.5-1.1,48.7-2c12.9-0.7,25.8-0.4,38.7-1c10.9-0.5,21.8-1.1,32.7-1.5
			c6.3-0.2,12.8-0.1,19.1-1.7c-10.7,0-21.4,0-32.1,0c0.5-0.7,0.9-1,1.4-1c13.4,0.2,26.8-1.8,40.2-1c1,0.1,2.1,0.2,3-0.1
			c2.1-0.8,4.9-1.6,3.8-4.7c-0.8-2.4-3.4-2.8-5.3-2c-1.5,0.6-2.8,0.7-4.3,0.8c-11.1,0.5-22.2,0.4-33.3,0.7
			c-17.2,0.5-34.5,1.9-51.7,1.3c-1.3,0-2.6-0.1-3.9-0.2c-2.6-0.1-5.7-3.6-7.8,1c-0.2,0.4-1.6,0.2-2.4,0.2
			c-12.4,0.4-24.8-0.5-37.3,0.9c-10.2,1.1-20.5-0.1-30.8,0.9c-12,1.2-24.1-0.1-36.2,1c-12.2,1.2-24.5,0.3-36.7,0.8
			c-15.6,0.6-31.1,1.4-46.7,1.3c-16.8-0.1-33.5,1.7-50.2,1.1c-1.9-0.1-3-0.4-3.8-2.2c-0.6-1.3,0.1-1.5,1.1-2
			c1.5-0.8,2.8-1.5,3.9,0.1c3.1,4.2,4.9,4.3,8.4-0.4c2.1-2.8-0.2-4.4,0.7-6.7c1.8,0.5,3.1,1.7,5.3-0.5c2.6-2.6-1-3.1-0.5-4
			c1.8-3.1-5.7-5.3-0.7-8.7c0.6-0.4-0.6-1.6-1.2-1.6c-5.6,0.5-7.2-4.6-9.9-7.6c-2-2.2-2.6-3.7-3.4,0.3c-0.3,1.5-1.5,1.3-2.3,1
			c-7.3-3-15.4-1.7-22.9-3.8c-0.8-0.2-2.1-0.6-2.6,0.6c-0.7,1.4,1.7,1.3,1.3,1.8c-1,1.6,1.3,2,0.8,3.6c-3.1-0.6-6.2,0.2-9.6-0.5
			c-1.9-0.4-4.6-0.3-5.9,2.6c-1.3,2.8-3.3,5.4-7.1,6.3c4.4,3,8.2,5.6,13,1.6c1.1-1,2.7-3.8,4.1,0.1c0.5,1.3,1,0.1,1.4-0.6
			c0.8-1.6,2.3-1.6,3.8-1.5c3,0,6.3,0.8,8.9-0.2c4.5-1.8,5.5,0.7,6.5,3.8c1.3-0.4-0.2-2.5,1.5-2.5c1.1,0,1.5,1,2.1,1.8
			c1.1,1.6,0.5,3.6,1.1,5.2c1.3,3.6-0.7,2.5-2.4,1.9c-3.1-1.1-5.5-4-7.9-4.9c-2.6-1-6.9,1.1-10.5,1c-0.2,0-0.3,0-0.5,0
			c-7.9-1-8.9,0.2-5.8,7.6c-3.6,0.7-6.5,1.7-6.2,6.4c0.1,2.1-1.1,4-4.6,4.1c-11.4,0-22.8-0.4-34.3,0.6c-13.8,1.3-27.8-0.3-41.7,1
			c-12.7,1.2-25.5-0.3-38.3,1c-12.5,1.2-25.1-0.2-37.7,1c-12.3,1.2-24.8,0.6-37.2,0.8c-21.1,0.4-42.1,1.8-63.2,1.3
			c-2.6-0.1-5.2-0.2-7.7,1c0-18.2,0.1-36.3-0.1-54.5c0-3,0.6-3.6,3.6-3.6c63,0.1,126,0.1,189,0.1c201,0,401.9,0,602.9-0.1
			c3.7,0,4.6,0.8,4.6,4.6c-0.1,146.9-0.1,293.9,0,440.8c0,3.7-0.8,4.6-4.6,4.6c-25.2-0.2-50.3-0.1-75.5-0.1
			c1.5-3.5,3.1-6.9,3.5-10.8c0.3-3.4,0.7-6.6,5.2-7.7c2.1-0.5,2.3-3.6,2.4-6c0.3-5.6-1-11.2,0.9-16.7c0.7-2.1-0.5-2.6-2.6-2.8
			c-9.7-1.2-19.5-0.8-29.2-0.9c-3.8,0-7.7,0.8-10.8-2.6c-0.9,3,2.2,3.4,2.4,5.3c-5.3,1.6-10.3,3.5-15.2,6.1c-2.4,1.3-3,5.3-6.9,4.5
			c-0.7-0.1-0.5,1.3-0.4,2.1c0.7,4.5,1.6,9,2.2,13.5c0.3,2.1,0.9,5.1-3.2,4.1c-1.7-0.4-3.1,0.7-5,1c-0.8-5.1,0.8-10,0.1-15
			c-0.9-5.8-1.6-11.5-5.1-16.3c-1.6-2.2-0.2-2.8,1.9-3.4c-3.1-0.6-3.3-4.8-6.9-4.6c1.1-1.3,2.7,0.1,3.3-1.6
			c-6.4,0-12.4-3.2-18.8-1.1c-0.7,0.2-1.9,0-1.6-1.2c0.2-0.9,1-1.7,2.2-1.8c3.2-0.2,6.2-1.2,9.2-2.5c2.6-1.2,6.4-1.1,9.1-0.1
			c1,0.4,2.2,2.7,4.4,3.1c1.5,0.3,2.9,0.9,4.3,1.9c1.6,1.1,3.1,2.8,4.8,3.3c2.6,0.8,2.7,0.4,2.9,2.6c0.1,1-0.5,2.2,0.5,3.1
			c1.2-1.3-0.4-3.3,1.4-4.6c1.7,1.2,3.3,2.6,5.1,3.6c3.2,1.8,5.2-1.9,8-2.3c1.2-0.2,0.3-1.9-0.1-2.5c-3.4-5.4-8.8-8.1-14.7-9.4
			c-0.3-0.1-4.2-1.2-4.4,2.5c-0.1,2-2.5,1.5-3.8,0.6c-1-0.7-3.6,0.3-2.8-2.3c0.4-1.3,1.1-2.7,2.9-2.6c0.6,0.1,1.2,1.4,1.9,0.3
			c0.5-0.8-0.1-1.5-0.7-2.2c-3-3.2-6.2-6-10.5-7.8c-4.8-2-10.8-0.6-14.6-5.8c-1.4-2-4.8-2.3-7.2-3.5c-9.6-4.8-19.7-5.7-30-2.6
			c-8.9,2.7-13.8,10-20,16c-4.2,4.1-8,9.8-15.3,9c-1.2-0.1-1.8,0.7-2.4,1.5c1.2,1.3,3.1-0.2,4.4,0.9c-2.3,4.8-5.8,8.9-11,8.3
			c-4.8-0.5-9.5-0.2-14.2-0.8c-7.7-1-10.7,1.2-11.4,8.9c-0.5,5.2,1.8,10.6,4.4,9.8c2.8-0.8,2.6,0.7,3.9,1.9
			c2.9,2.6,5.1,7.4,10.5,4.6c0.2-0.1,1.1,0.5,1,0.6c-0.2,0.6-0.4,1.3-0.8,1.7c-1.9,1.3-3.5,2.9-4,5.1c-0.5,2.1-1.8,2-2.8,1.1
			c-1-0.9-3.4,0.4-3.3-2.1c0.1-2.3,1.9-1.2,3-1.5c0.4-0.1,1-0.1,0.9-1.3c-1.8-0.4-3.3-3.7-5.8-0.3c-0.6,0.8-1,0-1-0.7
			c0-1.7-1-2.5-1.9-1c-0.7,1.1-2.9,0.4-2.4,3.2c0.9,5.1,4.7,4.4,7.9,5.1c2.1,0.5,4.8-0.9,4.9,3.2c0.1,4.6-3,2.7-4.9,2.8
			c-5.7,0.2-11.4,0.5-17,0c-8.2-0.8-16.4-1.8-24.4-3.7c-3.6-0.9-3.7-3.1-3.3-5.5c1.5-8.6,5.5-16.2,9.1-24c1.3-2.7-0.3-4.9-0.4-7.3
			c-0.1-1.7-2.3-1.4-3.8-1.4c-19.2,0.1-38.5-1.7-57.7-1c-5.7,0.2-11.5,0.8-16.9-0.2c-4.7-0.9-8.4,0.4-11.6,2.6
			c-4.6,3.1-9.5,5.4-14.3,8.1c-2.5,1.4-3.7,1.8-5.3-1.4c-3.3-6.5-14.1-7.5-18.4-1.8c-3,3.9-4.7,8.7-5.4,13.7
			c-0.3,2.4-0.3,4.5,2.4,6.2c2,1.3,3.3,3.8,5.5,5.2c0.9,0.6,1.3,1.5,1,2.6c-0.4,1.4-1.6,0.9-2.4,0.9c-2.5,0.1-5,0-7.5,0
			c-9.1,0-14.7-4.5-18.1-13.4c-2.7-7-3.4-14.3-5.1-21.5c-0.5-2.2-0.9-3.5-3.4-3.1c-0.3,0.1-0.7,0-1,0c-22.5,0-45,0-67.5,0
			c-1.2,0-2.7-0.7-3.6,0.6c-0.4,0.7-0.2,1.5,0.3,2.3c2.1,3.3,11.4,5.5,14.7,3.3c2.3-1.5,4.7-1.8,6.6,0.1c1.9,1.8,3.2,4.1,1.5,7
			c-1.7,2.8-1.4,5.7-0.3,8.8c2.1,6.2,4.8,12.4,2,19.1c-0.8,2-0.1,3.9,1.6,4.3c3.9,0.8,3.5,3.6,3.5,6.3c-27.3,0-54.7,0-82,0
			c-0.3-2.8,0.5-5.2,2.6-7c1.4-1.2,1.2-1.8,0-3c-3-2.8-5.4-1.4-7.1,1.2c-1.7,2.6-3.1,5.6-3.5,8.8c-21,0-42,0-63,0
			c3.8-6.8,9.6-11.8,17.1-12.7c5.5-0.7,8.2-3.1,11.4-6.9c2.3-2.8,3.6-6.4,8.2-7.7c4.9-1.4,8.5-1.6,12.3,1.8c2.7,2.4,6.2,1.6,9.5,1.5
			c2.4-0.1,4.5-0.7,6.6,1.5c1.5,1.5,3,0.5,3.9-1.2c0.8-1.4,0.8-3.2,3-4.2c0.5,3.4,3,3.2,5.4,2.9c6.7-0.9,15.1,0.7,15.6-10
			c0-0.7,0.5-1.5,1-2.2c1.4-1.7,0.9-2.7-0.9-3.8c-2.8-1.8-5.8-3.6-7.9-6.4c0.3-0.2,0.6-0.4,0.9-0.7c2,0.1,3.6-2.6,5.8-0.8
			c1.4,1.1,2.7,2.5,5.1,1.5c-1.6-0.8-2.9-1.5-4.3-2.2c-1.4-1.8-5.4-1.8-5.1-4.3c0.4-3.4,4.2,0.1,6.1-1.9c0.9-0.9,2.8-0.1,4.3-0.6
			c2.3-0.9,4.8-1.2,7.2,0.5c-1.5,1.6-3.2,0.5-4.5,1.1c-1.2,0.5-1.9,1.3-1.7,2.7c0.1,1,0.8,2.2,1.7,1.8c3.2-1.6,4.7,1,6.8,2.2
			c0.8,0.5,1.8,1.1,3.3,0.1c4.4-3.1,4.8-6.3,0.3-10c4.1,0.5,8,0.1,10.7,3.7c0.7-2.8-0.2-4.6-2.3-6.5c-4.7-4.3-10.2-2.8-15.6-3
			c-0.8,0-1.6,0.6-1.5,1.4c0.1,1.1,2-0.3,2.1,1.2c-7.7,0.5-7.7,0.5-8-5.4c-0.1,2-1.7,2.7-3,3.6c-2.2,1.6-5.7,2.7-6.5,4.8
			c-2.6,6.6-7.8,5.2-12.6,5.2c-8.3-0.1-16.7,0.7-25.7-1.4c6.1-2.9,12.5-0.3,17.6-3.1c-7.4-3-15.8,0.3-23.3-3.4
			c-50.3,0-100.6,0-150.9,0c-2.8,0-5.6,0.3-6.1,4.1c-0.2,1.2-1.2,1.9-2.5,1.9C20.9,392.9,9.3,395.1-2,391.5z M600,176.6
			c10,0,17.4,0,24.7,0c2.7,0,5.2,0.4,5.3-3.8c0.1-4.5-2.5-4.2-5.5-4.2c-21.6,0.1-43.1-0.2-64.7,1c-14.6,0.8-29.2-0.9-43.7,1
			c-2,0.3-4.1-0.1-4.2,2.9c-0.1,3.3,2.1,3.4,4.4,3.1c7.8-0.8,15.6,1.3,23.5,0.1c7.7-1.2,15.4,1,23.2,1
			C576.2,177.5,589.4,175.6,600,176.6z M759.8,334.5c-11.1,0-21.6-3.3-32.3-1.7c7.1,0.9,7.6,1.8,4.4,8.7c-0.2,0.4-0.5,0.8-0.7,1.3
			c-2.7,4.9-5.7,9.9-7.7,15c-3.3,8.3-2,17.2,1.4,25.6c1.4,3.4,4.3,3,6.4,1.1c5-4.6,9.2-9.8,8.6-17.3c-0.2-2.2,0-4.5,0.4-6.9
			c1.2-6.5,2.3-13.2,2.3-19.8c0-3.6,1.2-4.6,3.9-4.8c2.4-0.2,5-0.7,7.4,0.4C756.1,337.1,757.8,336.3,759.8,334.5z M562.7,283.2
			c-0.2-0.5-0.3-1.3-0.8-1.6c-3.1-1.7-3.6-5-5.1-7.7c-4.2-7.6-16.3-6.6-19.4,0.6c-1.8,4.2-4.4,6.6-8.3,1.8c-0.8-1-1.7-0.9-2.5,0
			c-1.4,1.7,0.8,1.2,1.2,1.7c2.7,3.8,7.1,5.2,10.8,7.6c1.4,0.9,1.7,4.4,4.4,2.3c1.9-1.5,4.8,0,6.1-2.2c3-5.1,6.9-3.3,10.1-1
			C562,286.6,561.7,284.1,562.7,283.2z M570.9,241.5c18,0,35.9,0,53.9,0c1,0,2,0,3,0c1,0,2,0.1,2.1-1.4c0.1-1.4-0.8-1.6-1.9-1.6
			c-0.8,0-1.7,0-2.5,0c-36.4,0-72.8,0-109.3,0c-1,0-2,0-3,0c-1.1,0-1.9,0.7-2,1.6c0,0.4,1.1,1.2,1.8,1.3c1.1,0.2,2.3,0.1,3.5,0.1
			C534.7,241.5,552.8,241.5,570.9,241.5z M354.6,419.1c-0.4-5.5-1.7-10.9-1.6-16.4c0.1-5.7,0-11.4-1.9-17c-0.3-0.9-0.5-3.2,0.6-3
			c3.3,0.5,5.9-3,8.8-1.9c2.8,1.1,3.2-0.1,3.5-2.1c0.3-2.1-0.1-3.1-2.7-3.3c-5.3-0.5-9.4,3.6-14.6,3.4c-1-0.1-0.8,1.6-0.3,2.5
			c3.9,7.3,3.6,15.3,4.8,23.1C351.9,409.3,352.3,414.4,354.6,419.1z M705.6,370.9c-5.5-1.3-10.6-2.5-16.3-1.5
			c-9.4,1.7-19.1,1.1-28.7,1.1c-0.8,0-1.7,0-1.7,1.1c0.3,0.8,0.9,0.8,1.6,0.8c11.9,0.4,23.7,1.4,35.7,1.1
			C699.5,373.5,702.6,373.2,705.6,370.9z M529.9,285.2c-2-2.2-4.6-2.8-6.7-4c-1.5-0.9-3.9-1.5-3.9-3.3c0.1-2.2,3.1-0.6,4.6-2.3
			c-2.5,0-4.8-0.4-6.8,0.1c-4,1-7.8,2.4-10.8-2c-0.4-0.6-2.1,0.2-1.9,0.8c1,2.5,0.6,5.8,4.9,6.2c4.1,0.4,8.1,1.9,12.1,2.9
			C524.1,284.1,526.5,286.2,529.9,285.2z M672.1,314.5c-3.1,0.2-7.9-1.5-5.3,4.9c0.1,0.3-0.4,0.9-0.6,1.3c-0.9,1.8,0.5,2.6,1.7,2.7
			c2.8,0.2,5.7,0.4,8.5,0c4.4-0.7-3.2-6.1,2.4-6.7c-0.4-0.7-0.7-1.5-1.3-1.9c-0.4-0.3-1.3-0.2-1.9-0.2
			C674.4,314.5,673.3,314.5,672.1,314.5z M305.8,62.6c-3.3,0-5.2-0.1-7.2,0c-3.9,0.2-4.3,1.5-3,5.3c1.2,3.5,4,7.6-1,10.5
			c-2.3,1.3-0.8,1.8,0.4,2.1c2.6,0.8,6.3-2,5.6-4.7C299.2,70.7,300.5,66.6,305.8,62.6z M508,424.9c1.7,2.2,3.7,0.8,4.2,0.4
			c3-2.1,4,0.3,5.7,1.8c1.6,1.5,1.2,6.4,5.5,3.5c2.3-1.5,5.4,1.2,7.7-1.2c-1.7-1.7-4,0.1-5.2-1.5C520.9,421.5,514.6,423.3,508,424.9
			z M669.4,37.6c-1.3,0-2.3,0-3.3,0c-1.7-0.1-3,0.4-3.2,2.3c-0.1,2.2,1.3,2.8,3.2,2.7c0.8,0,1.7,0,2.5,0c2.6,0.1,5.9-0.5,6-2.9
			C674.7,36.5,671.1,38.1,669.4,37.6z M369.6,396.4c-7.6,5.1-4.5,10.4,0,16.8C367.5,406.9,371.2,401.9,369.6,396.4z M307.8,279.6
			c1,1.9-1.3,5.6,1.6,5.7c3.1,0.1,1.5-3.6,1.4-5.5c-0.1-2,2-5.9-1.5-5.9C306.5,273.8,308.8,277.6,307.8,279.6z M458.1,95.6
			c-0.8-0.1-2,0.6-2.1,2.1c-0.3,4.2,4.6,1,5.4,3.8c0.5-0.6,1.5-1.6,1.4-1.7C461.6,98.2,461.5,95.6,458.1,95.6z M451.7,129.3
			c1.4-0.3,2.1-2.6,4.3-2.4c0.3,0,2,0.1,1.5-1.1c-0.5-1.2-2.2-1.7-2.9-1c-1.5,1.4-4.9,0.7-4.6,4C450,129.5,450.6,129.8,451.7,129.3z
			 M448,93.3c2.4,1,4.4-2,6.6,0c0.3,0.2,1.6-1.5,1.3-2.7c-0.5-1.6-1.3-0.6-2.2-0.3C451.8,90.9,449.6,91.1,448,93.3z M254.8,373.5
			c-3.5,1.6,5,1.3-0.2,3.2c-1,0.4,0.3,1.3,0.8,1.6c2.3,1.4,2.4-2.1,4.1-2.1c-0.1-1.4-1.1-1.6-2.3-1.8
			C256.4,374.3,255.6,373.8,254.8,373.5z M242.6,246.4c-0.6-2,0-4.5-2.3-5.7c-0.8-0.4-1.9,0.6-1.9,1.1
			C238.7,244.2,240.7,245.3,242.6,246.4z M266.8,376.7c-2.7,0.3-4.7-1.8-6,1.4c-0.4,1-0.4,1.9,0.3,1.9
			C263,379.8,264.8,379,266.8,376.7z M369.9,388.8c0-1-0.5-1.4-1.2-1.5c-1-0.1-0.9,0.9-0.7,1.3c0.2,0.5,0.9,0.8,1.3,1.2
			C369.6,389.4,369.8,389,369.9,388.8z M372.5,394.3c0.2-0.5,0.5-0.9,0.5-1.3c0-0.6,0.1-1.9-1-1.2
			C371.2,392.3,371.9,393.4,372.5,394.3z M366.6,384.6c-0.2,0.4-0.6,0.7-0.5,0.9c0.1,0.3,0.5,0.6,0.8,0.9c0.2-0.2,0.5-0.5,0.4-0.6
			C367.1,385.4,366.8,385.1,366.6,384.6z"/>
		<path class="st0" d="M-2,140.6c10,0,10.1,0,10-10c0-3.9,1.3-8.2-5.1-9.4c-1.8-0.3-2.1-5.7-1.8-9c0.3-2.9,2.6-1.6,3.9-1.5
			c3,0.3,3.2-1.2,3.1-3.5C8,100,8.1,92.9,8,85.7c-0.1-3,0.9-4.1,4-4.1c15.6-0.1,31.1,1.8,46.7,1.1c3.2-0.1,4.3,1.5,4.4,4.9
			c0.2,8.4-0.8,16.8,0.7,25.3c0.5,3.1,1.8,2.9,3.8,2.8c11.8-0.2,23.5-0.4,35.3-0.8c23.1-0.8,46.3,0.3,69.5-0.4
			c12.6-0.4,25.2-0.7,37.7-0.8c6,0,5.3-5.4,5.7-8.5c1.2-11.2,4.3-20.5,13.7-28.2c6.2-5.1,11.9-10.3,19.7-12.3
			c8.4-2.1,17.1-3.6,25.5-0.6c4.4,1.6,6.7,6.6,7.5,10.7c0.6,3.4,2.4,5.1,4.3,6.9c3.6,3.3,5.9,6.9,5.5,12c-0.4,4.4,0.4,8.8-0.8,13.3
			c-0.7,2.7-0.1,6.1,4.7,5.8c23.4-1.6,46.9-0.2,70.2-1.3c16.9-0.8,33.8-0.3,50.8-0.6c4.2-0.1,8.1-1.3,12.2-1.2
			c2.7,0.1,4.1,0.9,3.8,3.8c-0.2,2.4-0.6,4.7-3.9,4.3c-0.3,0-0.7,0-1,0c-37.9-0.6-75.8,1.6-113.7,1.2c-6.2-0.1-12.5,0.9-18.7,0.8
			c-2.3,0-3.2,1-2.6,2.9c1.6,5.1-1.2,8.8-4,13.2c7-0.5,13.7,1,20.3-1c0.6-0.2,1.3-0.1,2,0c26.6,0.8,53.1-1.5,79.7-0.9
			c11.1,0.2,22.1-1.6,33.2-1.1c1.6,0.1,2.7-0.3,3.7-1.8c2.2-3.2,2.6-2.5,5.2-0.2c2.1,1.8,5.6,2.1,8.6,2c0.6,0,1.3-0.4,1.9-0.3
			c9,1,16-3.1,22.6-8.6c0.4-0.4,1,0.1,1.2-1.2c0.2-1.6,1-4.1,4.5-2.2c1.3,0.7,4.8-1.9,7.6-1.9c0.6,0,1.2-0.6,1.7-0.6
			c0.9,0.1,2.1,2.2,2.5-0.2c0.2-1.4-1.5-0.8-2.3-0.9c-0.6-0.1-1.3,0-2.2,0c1.2-5.5,12.2-6,6.8-14.7c2.9,0.1,4.7-1.5,6.5-3.3
			c5.7-5.7,10.7-12.6,18.1-15.9c8.5-3.8,12.4-11.8,19.1-17.3c1.6-1.3,1.1-3.3,2.4-4.7c2.2-2.5,6-3.4,7.6-0.6c0.9,1.6,5.5,2,2.5,5.6
			c-0.4,0.5,1.1-0.2,1.8-0.1c1.8,0,2.8,0.7,3,2.6c0.1,1.4-0.3,1.9-1.9,2.6c-4.8,2.1-4.7,7.3-6.1,11.5c-1.5,4.6-3.9,8.4-7.8,11.5
			c-0.7,0.6,0.2,2.9-0.4,4.1c-1.4,3.5-4.2,6.4-4.9,10.8c4.8-0.5,9.3,0.7,13.9-0.9c2.1-0.7,4.6-0.2,7-0.1c25.9,0.7,51.8-1.6,77.7-1
			c2.6,0.1,4.8-0.5,4.5,3.6c-0.2,3.6-1.4,4.5-4.8,4.5c-31.1-0.8-62.2,2.1-93.2,0.7c-10.5-0.5-16.7,3.4-21.3,11.8
			c-0.6,1.1-1.7,1.9-3,3.4c42,0.7,83.4-1.7,124.8-1.2c-2.5,2.8-5.4,3.2-8.6,3.4c-15.2,1.1-30.5,0.2-45.7,1.2
			c-8.9,0.5-17.8,0.2-26.7,1.7c16,0,32,0,48,0c16,0,32-0.1,48,0.8c-10.3,3.4-20.8,2.9-31.2,3.3c-18.3,0.8-36.7,1.6-55,2
			c-7.5,0.2-15,2.6-22.5,1.7c-12.3-1.5-24.6-1.3-36.8-0.6c-21.3,1.1-42.5-0.2-63.7,1c-24.1,1.4-48.2-0.4-72.2,1.1
			c-11,0.7-22,0.8-33,1.3c-10.6,0.5-21.5-1-32.2-0.5c-25,1.2-50,2-75,2.2c-5.2,0-10.4-0.4-15.5-0.2c-20.4,1-40.9,0.1-61.2,1.1
			c-15.9,0.8-31.9-0.3-47.7,0.9c-11.3,0.9-22.5,0.7-33.8,0.8c-18.6,0.1-37.2,0-55.9,1c1.2,0,2.5,0,3.7,0c15,0,30,0.1,44.9-0.1
			c4.2-0.1,6.1,0.9,5.7,5.5c-0.4,4.6-0.1,9.3-0.1,14c0,2.3,0.3,3.8,3.3,2.7c1.3-0.5,3-0.1,4.5-0.1c45.8,0,91.6,0,137.4,0
			c6.8,0,6.8,0,3.8-6.1c-1.2-2.3-2.1-4.7-4-6.6c-2.4-2.3-2.4-5.2-0.9-8c1.4-2.6,3.7-1.2,5.7-1.4c15.2-1.2,30.5-1.1,45.7-0.8
			c8.3,0.2,16.5-1.2,24.7-1.3c5.4,0,8.6,2,10.8,6.4c1,2,2.6,2.8,4.4,4c8,5.3,18,6.5,25.8,12.4c0.6,0.4,1.6,0.5,2.4,0.4
			c20.7-2.2,41.5-0.4,62.2-0.9c3.1-0.1,4.5-0.5,5.6-4.2c1.9-6,4.8-11.9,9.1-16.9c2.9-3.3,6.8-2.4,10.4-2.5c0.8,0,1.4,1.3,1,2.5
			c-1.3,0.2-0.7,1.7-1.5,2.3c-1,0.6-1.6,1.5-1.5,2.7c-1.3,0.2-0.7,1.7-1.5,2.3c-1.9,1.7-2.1,4-2.1,6.4c1-1.8,2.6-3.3,2.8-5.5
			c1.3-0.2,0.7-1.7,1.5-2.3c1-0.6,1.6-1.5,1.5-2.7c1.3-0.2,0.7-1.7,1.5-2.3c1.7-2.9,4.3-3.8,7.7-3.9c9.1-0.3,18.2-0.5,27.2-0.4
			c9.5,0,19.1,0,28.7,0.5c1,0.1,2,0,3,0c1.9,0.1,4.3-2.7,5.5-0.1c0.8,1.6-2.1,3-3.5,4.4c-6,6-12,11.9-18.9,18.8
			c7.4,0,13.7-0.1,20.1,0c2.5,0,5.7-1.1,5.6,3.4c-0.1,4.1-3.4,3.3-5.7,3.4c-5.5,0.3-11,0.1-16.5,0.1c-2.2,0-3.7-0.9-3.2,3.4
			c1.4,11.1,0.7,22.3-1.6,33.4c-0.6,2.7,0.6,5.6-0.9,8.2c-0.3,0.5,0.7,2.2,1.6,1.5c1.3-1,3.7,1.4,4.2-1.4c0.2-1,0.1-2,0.1-3
			l-0.1,0.1c1.1,0.1,2.4-0.8,3,0.8c1.5,4.4,4.9,4.3,8.6,4.1c7.2-0.4,14.5,0.3,21.8-0.8c4.8-0.7,9.8,1,14.7,0.7
			c37.6-2.1,75.1-0.3,112.7-0.9c4.8-0.1,9.4,1.6,14.3,1c1-0.1,2,0,1.9,1.5c-0.1,1.5-1,1.4-2,1.5c-4.5,0.4-9,0.8-13.6,1.6
			c4.3-0.3,8.4,1.3,12.6,1.3c1.3,0,2.7,0.6,2.6,1.6c0,1-1.5,1.6-2.8,1.4c-6.8-0.7-13.5,0.8-20.2,1.1c-38.4,1.8-76.8-0.3-115.2,1.1
			c-41.1,1.4-82.1,0.4-123.2,0.6c-7.5,0-15.2-1.3-22.7-0.7c-26.7,2-53.5,0.4-80.2,0.9c-14.6,0.2-29.3-0.1-43.9,0.1
			c-6.9,0.1-13.8,1.3-20.7,0.9c-5.9-0.4-11.8-1.2-17.8-1c-16.6,0.5-33.2,0.1-49.7,1.3c-9.9,0.7-19.9,1.4-29.7,0.6
			c-17.1-1.4-34.2-1.1-51.2-0.5c-16.4,0.6-32.8,0.4-49.2,0.8c-5.3,0.1-10.6-1.9-16-0.7c-3.3,0.8-4.5-2.3-6.8-3.4c0-2,0-4,0-6
			c1.9,0.7,3.1-1.7,5.3-1.1c2.7,0.7,3.9-0.9,3.8-3.7c-0.5-13.4,1.4-26.8,1.3-40.2c0-2.8-2.8-3.8-2.1-6.8c1.2-4.8,2-9.7,1.9-14.8
			c-0.1-3.7-0.5-7.5,0.5-11.4c-3.6,0-7.1,0-10.5,0C-2,147.3-2,143.9-2,140.6z M244.9,189.7c0.3,1,0.9,1.1,1.7,0.7
			c-0.3-0.4-0.6-0.9-0.9-1.3c-0.2-0.5-1-1,0.1-1.4c1.7-0.6,3.2,1.4,4.6,0.7c1.8-1,3.6-1.1,4.2,0.7c0.8,2.3-1,2.4-2.7,1.7
			c-0.1-0.1-0.7,0.5-0.6,0.5c2.8,4.7-2.7,4-4,5.1c-3.2,2.8-7.8,4.7-10.1,8.1c-3.6,5.5-0.9,12.1-0.7,18.2c0.2,4.5,3.9,2.8,6.3,2.8
			c1.3,0,1.3-0.4-0.6-4.3c-0.2-0.4-0.1-1.3,0-1.3c3.1-0.8,1.6-3.3,1.6-5c0-2.9,1.1-4.9,3.6-6.3c6.4-3.4,13.2-6.3,18.9-11.6
			c0.5,2.7-2.1,5.4-0.8,6c2,0.9,4.1,3.7,5,3.2c2.6-1.3,6.6-1.2,7.5-5.3c0,2.4,0,4.8,0,7.4c1.3-1.2,1.9-1.2,2.2-0.5
			c1.4,3.2,4.1,4.2,7.3,3.4c0.9-0.2,1.3-0.5,1.9,0.2c0.6,0.8-0.2,1.1-0.5,1.6c-0.8,1.5-2.6,1.2-3.8,2.1c5.5,1.4,1,6.9,3.6,9.3
			c1.5-0.4,1.1-1.4,1.2-2.1c0.6-3.3,3-5.4,5.9-6.1c2.5-0.6,3.2,2.3,4.5,4c2.7,3.7,6.2,5.7,11.1,5.3c4.3-0.4,8.7-0.2,13-0.1
			c19.1,0.6,38.1-1.8,57.2-1c2.7,0.1,3.3-0.8,3.3-3.3c-0.1-14.1,2.5-27.6,8-40.6c1-2.5,0.3-2.8-2-2.6c-9,1-18.1,0.3-27.2,0.4
			c-9.3,0.1-18.7,0.4-28-0.1c-4-0.2-0.5,4.7-3.8,4.3c-0.1,0-0.2,1.5,0.5,1.6c5.9,0.8,3.3,5.4,3.3,8.2c-0.2,8.7-7.1,16.7-14.5,16
			c-6.4-0.5-14.2-7.2-14.1-14.1c0.1-6.3-2.9-9.3-7.7-12.1c-2.8-1.7-5.6-2.5-8.3-1.7c-2.6,0.8-0.7,3.7-1.2,5.7
			c-0.2,0.8,0.3,2.3-1.3,2c-1.3-0.3-1.3-1.1-0.9-2.5c0.5-1.8,0.1-3.9,0.1-6c-1.8,1.1,0,3.2-2.1,4.6c1.7-5.3-1.6-7-5.2-8.7
			c-4.4-2.1-8.6-4.4-11.1-9c-0.9-1.7-2.6-2.1-4.6-2.2c-4.1-0.1-8.2-0.1-12.3-0.4c-8.3-0.7-15.4-7.2-24.3-5.1
			c1.2,0.9,2.4,1.4,3.8,1.7c5.3,1.1,10.7,2.3,15.8,4c3.8,1.3,6.8,3.4,5.2,8.6c-0.5,1.7-1,3.7-1.3,5.6c-0.5,3-2,4.9-5.5,6
			c-5.7,1.8-11,0.6-16.4-0.8c-7.3-1.8-14.1-6.5-22-4.4c-5.8,1.5-11.5,0.9-17.3,0.9c-33.5,0.1-67,0-100.5,0.1c-3.8,0-7.9-1.5-10.6,3
			c-0.6,1.1-2.3,1.1-3.6,1c-2.2-0.1-4.3,0.1-6.5-0.1c-3.4-0.3-4.8,0.9-4.7,4.5c0.3,5.5,0.1,11,0.1,16.5c0,6.9,0,13.8,0,21.1
			c50.6-0.4,101.7,0.9,152.9-1.4c-1-3.6-1.9-7-2.9-10.4c3.3,3.2,3.2,8.3,7.7,11.1c0.9-4.2-2.9-6-3.5-9.2c-0.6-2.6-0.4-6.8-2.9-7.9
			c-4.3-1.8-3-4.9-3.4-7.9c-0.5-3.4,0.7-6.5,1.3-9.7c0.5-3,2.3-6.3,4.5-8.2c1.4-1.2,4.4,0.7,6.4,2.1c1.2,0.8,3,0.7,4.6,1.1
			C234.7,187.5,240.5,185.6,244.9,189.7z M96.5,138.5c18.9,0.9,37.3-1.6,55.7-0.9c17.9,0.8,35.8-1.5,53.7-1c0.3,0,0.7,0,1,0
			c2,0.1,3.2-0.8,3.1-2.9c-0.2-3.1,0.2-6.2,1-9.2c0.7-2.9-0.4-4.1-3.6-3.9c-7.9,0.5-15.8,0.6-23.7,0.9c-29.5,1-59.1-0.4-88.7,1
			c-10,0.5-19.6,0.7-28.8,5.2c-1,0.5-1.1,1-1.1,1.8c0,2.5,0,5,0,7.5c0,2.2,1.4,3.1,3.3,2.7C77.8,137.4,87.4,139.4,96.5,138.5z
			 M304.4,165.6c-1.9-0.2-0.7,1.1-0.8,1.8c-0.5,2.3-2.5,5.3-0.2,6.8c3.7,2.4,8,3.8,12.2,5.3c2.1,0.8,4-0.2,3.8-2.6
			C319.1,173.4,308,165.3,304.4,165.6z M246,183.5c4-1.9,4.7-5.9,5.8-9.5c1.1-3.3-2.1-7.7-5.6-8.4c-0.4-0.1-1.9-1-1.7,1
			C245,172.2,241.1,178.1,246,183.5z M224.7,189.8c-1.2,0.5-1.4,1.2-1.8,2c-1.8,3.8,1.5,6.9,1.1,10.5c-0.3,2.2,0.1,4.1,1.8,5.8
			c0.8,0.9,1.2,2.8,2.6,2.1c1.1-0.5,0.6-2.2,0.2-3.5C226.9,201.3,225.2,195.8,224.7,189.8z M480.3,122.4c3.3,1.6,6.6,1.9,10.6-1.5
			C486.7,121.4,483.6,122.5,480.3,122.4z M224.4,153.8c-1.1-0.3-1.4,0.3-1.3,0.7c0.2,1.9,1.9,3.4,1.1,5.5c-0.2,0.5,1,0.7,1.5,0.2
			c0.7-0.6,1.8-1.2,0.9-2.4C225.7,156.5,225.6,154.6,224.4,153.8z M223.9,163.2c-0.5,3.1-3.4,3.6-2.5,6.2c0.1,0.3,0.6,1.3,1.4,0.7
			C224.7,168.8,225.7,167.1,223.9,163.2z M541.6,70.4c0-3.3-1.1-4.8-3.5-5.3C537.3,67.6,539.3,68.4,541.6,70.4z M331.4,181
			c-0.2-0.4-0.5-0.8-0.7-1.2c-0.2,0.2-0.6,0.5-0.6,0.6c0.1,0.4,0.4,0.8,0.6,1.1C330.9,181.4,331.1,181.2,331.4,181z"/>
		<path class="st0" d="M-2,308.5c1.5,0,3-0.1,4.5,0c2.6,0.1,3.6-1,3.5-3.5c-0.1-3,0-5.9,0-9c-6,3.3-6.1,3.3-6-3.8
			c0.1-3.1,0.6-6.2,1-9.2c0.1-0.7,0.3-1.5,1.1-1.3c5.2,0.8,3.9-3,3.9-5.6c0.1-11,0.2-22,0.1-32.9c0-1.7,0.9-2.3,2.3-2.5
			c1.3-0.1,2.7,0,4,0c53,0,105.9,0.2,158.9-0.2c12.6-0.1,25.1-0.6,37.7-0.9c7.3-0.1,14.3,1.5,21.4,2.2c4.3,0.5,5.4,5.8,8.3,8.5
			c1.1,1.1,1.2,3.1,3.5,1.6c1.4-0.9,1.5,0.3,1.6,1.4c0.4,3.2,1.7,6.1,2.3,9.3c0.8,4.7,5.2,7.3,9.6,8.8c1.9,0.7,3.8-0.6,1.8,3
			c-1.5,2.6,1.3,7.1-3.2,9.3c-1,0.5-0.4,1.4,0.9,1.9c3.7,1.4,7.5,1.3,11.2,0.6c1.9-0.3,4.1-1.4,3-4.6c-1.2-3.5-1.2-7.3-0.5-11.1
			c0.9-5.1-1.8-7.6-6.4-9.1c-3.2-1-6.1-2.9-9.3-3.8c-3.8-1.1-4.8-3.8-5.2-7.2c-0.1-0.5,0.1-1,0-1.5c-0.6-2.6-3.3-5.8-1.6-7.7
			c1.8-2,5.7-0.7,8.6-0.7c7.6,0.2,15.3-1.4,22.7-0.8c8.3,0.7,16.7,1.3,24.9,0.7c31.2-2.3,62.4-0.9,93.6-0.8
			c18.7,0,37.5,0.8,56.2,0.8c4.9,0,5.7,1.1,4.2,5.8c-0.4,1.2-1,2.3-1.4,3.5c-0.9,2.3,0.7,3.8,2.2,4.3c2,0.6,2.3-1.7,2.5-3.1
			c0.2-2.6,0-5.3,0.1-8c0-1-0.5-2.5,1.4-2.5c2-0.1,1.6,1.4,1.5,2.4c-0.2,4.1,0.7,8.2-1.1,12.9c3.7-3.7,6.8-0.3,10-1.3
			c0.1,3.7-5.3-0.3-4,4.1c0,0,0.1-0.1,0.1-0.1c-2.6-0.4-5-2.4-7.5,0.9c-1.6,2-3.9,1.9-5.7-1.4c-1.1-2.1-4.1-3.2-5-6
			c-0.4-1.1-3.7,0.6-3.2,2.4c0.9,3-0.9,1.5-1.6,1.1c-1.7-1.1-3.1-1-4.9,0c-6.4,3.6-13.9,2.7-20.8,3.6c-8.4,1.1-16.5,3.4-24.9,4.5
			c-6.3,0.9-8.1-0.2-8.4-6.8c-0.2-3.8,1.4-7.4,1.1-11.2c-0.2-2.9-1-4.1-4.1-4.1c-17.3,0.1-34.7-0.4-52,0.3
			c-6.7,0.3-13.5,0.8-20.3,0.7c-2.7,0-3.1,1.2-2.8,3.3c0.3,2.6,0.4,5.2,1,7.7c1.7,6.4-2.1,9.8-7,11.9c-2.8,1.2-3.6,3.1-2.9,5.1
			c1.5,4.3,0.4,8.5,0.9,13.2c-3.4-1.6-5.5-5.8-10.1-3.7c5.1,3.4,9.5,7.3,15.9,7.6c1.8,0.1,3.9,0.2,4.3,2.9c0.3,1.9,2.2,0.9,3.3,1
			c22.7,1.3,45.5,1.2,68.2,0.9c4.4,0,6.9,1.4,7.9,5.3c0.8,3.1,2.2,5.7,4.5,7.3c-0.2,1.5-0.9,1.5-1.6,1.5c-12.2,0-24.4,0.8-36.5-0.2
			c-14.1-1.2-28.2-0.1-42.2-0.9c-3.9-0.2-5.4,1.6-6.9,4.5c9.7,1.6,19.1-0.9,28.4-0.2c15.1,1,30.2,1.5,45.2,0.6
			c18.3-1.1,36.5,0.2,54.7-1c10.4-0.7,20.9-1.3,31.2-0.6c25.1,1.7,50.2,0.2,75.2,0.8c5.7,0.1,6.6-1.2,4.8-7c-2-6.4,0.8-9.2,7.7-8
			c1,0.2,2,0.1,3,0c23.8-0.7,47.5,1.7,71.2,1c3.4-0.1,4.7,0.9,4.7,4.5c-0.1,7.5,0.1,7.5,7.6,6.6c2-0.2,4,0,6,0
			c-1.2,5.9-1.2,6.1,2.3,9.3c-1.1,2.4-4.3-1.7-4.6,1.3c-0.2,1.9,2.3,2.8,3.6,4.1c0.2,0.2,0.2,0.6,0.3,0.9c0.7,1.8,4.6,1.4,3.5,4
			c-1.1,2.6-4.2,1.2-6.4,1.4c-22.1,1.3-44.1,0.9-66.2,1.1c-2.2,0-8.1-1.5-2.6,4c1,1,0.8,2.5,0.1,3.7c-0.8,1.4-2.2,1.4-3.5,1.1
			c-1.7-0.4-3.3-1.5-4.9-1.5c-1.6,0-3.5,1.9-4.1-1c-0.6-2.8,0.4-4.8,3.7-4.7c-0.8-2.6-2.2-0.7-3.3-0.7c-10.7-0.6-21.5,1.1-32.2-1
			c-1.1-0.2-2.3,0-3.5,0c-37.8,0-75.6-0.7-113.4,0.3c-20.6,0.5-41.2,0.3-61.7,0.7c-9.1,0.2-18.2,0-27.3,0c-2.2,0-3.8,0.7-3.8,3.2
			c-0.1,3.8-0.5,7.7,0.1,11.4c0.2,1.5,0.4,2.3-0.7,3.3c-1.2,1.2-0.7,1.5,0.7,2.4c3,2,4.4,4.1-0.9,5c-0.7,0.1-2.4,0.3-2.4,2.4
			c2.2,0.2,4.5,0.4,6.5,0.6c1.2,1.9-4.2,3.1,0,5.1c1,0.4-0.1,1.3-1.2,1.7c-2.4,0.8-4.7,1.2-7.2,0.7c0,0,0.2,0,0.2,0
			c-0.4-2.2-2.3-3.5-2.8-6c-0.6-2.9,0.3-4.4,2-5.7c1.6-1.2,4-1.7,0.6-3.7c-0.2-0.1-1.8-2.3-0.4-3.8c1.9-1.9,0.6-3.5-0.1-5.6
			c-1.1-3.6,0.6-7.1,3.5-10.5c-4.9-1-9.6-0.4-14.3-0.5c-4.8-0.1-10.5-1.4-14.2,0.6c-3.1,1.8-3.9,7.7-5.9,11.7
			c-1.7,3.3-3.8,6.4-5.4,9.7c-1.7,3.4-3,5.7-7.4,2.8c-3.4-2.3-11.6-1.4-12.6,1.4c-1.7,4.6-3.1,8.6-8.7,9.8c-1.3,0.3-1.7,4.5-2.6,7.4
			c-1.7-2.8-2.2-5.7-2.4-8.3c-0.5-7.1-4.7-12.9-6-19.7c-0.8-4.1-2.1-8.2-1.7-12.5c0.3-3.3-0.9-4.1-4.1-4.1
			c-31.8,0.1-63.6,0.8-95.4-0.2c-24.2-0.8-48.5-1-72.7-0.5c-16.7,0.4-33.5,0.6-50.2,0.8c-6.4,0.1-12.3-2.6-18.6-3
			C-2,319.8-2,314.2-2,308.5z M152.3,288.5c7.7,0.7,16.9,0.6,25.9,0.7c20.2,0.3,40.5,1.7,60.7,1.3c1.3,0,3,0.4,3.5-1.2
			c0.4-1,0.3-2.8-0.3-3.4c-0.9-0.9-2.4,0.1-3.6,0.3c-10.2,1.1-14-0.1-13.8-10.4c0.2-9.4,1.6-19-1.5-28.5c-1.2-3.8-2.4-4.8-6.1-4.8
			c-36.9-0.5-73.8,1.3-110.7-0.8c-9-0.5-18-0.1-27-0.1c-1,0-2.8,0-2.8,0.3c-1.3,6.4-7.1,2.8-10.5,4.6c-1.3,0.7-2.2,0.7-2.1,2.4
			c0.5,11.6-1.6,23.1-1.1,34.7c0.1,2.4,0.7,3,3.1,3.1c9.4,0.2,18.9,0.5,28.2,0.6C113.2,287.5,132.1,289,152.3,288.5z M245.4,304.2
			c-6,1-10.8-0.5-15.7-0.6c-22.2-0.1-44.3-0.5-66.5-1.9c-15-1-30.2,0.1-45.2-1.1c-17.9-1.4-35.6,2.3-53.5,1.9c-2,0-2.4,0.6-2.6,2.5
			c-0.5,3.8,0.9,4.6,4.6,4.6c52.6-0.1,105.3-0.1,157.9-0.1c2.1,0,4.2,0.4,6.3,0.7c4,0.6,8.3,0.1,12.3-0.6
			C244,309.5,244.4,306.7,245.4,304.2z M237.1,260c-0.2,5.9,3.4,8.5,6,11.5c0.3,0.4,1.6,2.1,2.4,0.4c0.2-0.4,0.8-2.4-0.7-3
			C241,267.3,239.2,264.1,237.1,260z M277.2,276.3c1.2-1.4,1.7-2.8,1.9-4.5c0.1-1.2,0.2-3,2.2-3.3c0.8-0.1,2.9,0.6,1.5-1.6
			c-0.7-1-1.6-2.1-3.2-0.7C276.6,268.9,276.6,272.2,277.2,276.3z M287.9,278.2c1.2-3.9-0.5-6.7-4.1-8.6
			C285.2,272.5,286.5,275.4,287.9,278.2z M242.8,284.9c3,0.4,5.6-0.3,9.2-1.6C247.8,281.8,245.2,283.1,242.8,284.9z"/>
		<path class="st0" d="M302,448.5c0-2.7,0.4-5.5-3.5-6.3c-1.7-0.4-2.4-2.3-1.6-4.3c2.8-6.7,0.1-12.9-2-19.1c-1.1-3.1-1.4-6,0.3-8.8
			c1.8-2.9,0.4-5.1-1.5-7c-2-1.9-4.3-1.7-6.6-0.1c-3.3,2.2-12.6,0-14.7-3.3c-0.5-0.8-0.7-1.7-0.3-2.3c0.9-1.4,2.4-0.6,3.6-0.6
			c22.5,0,45,0,67.5,0c0.3,0,0.7,0,1,0c2.5-0.4,2.9,0.9,3.4,3.1c1.7,7.2,2.4,14.5,5.1,21.5c3.4,8.9,9.1,13.4,18.1,13.4
			c2.5,0,5,0,7.5,0c0.9,0,2.1,0.5,2.4-0.9c0.3-1.1-0.1-2-1-2.6c-2.2-1.4-3.5-3.9-5.5-5.2c-2.6-1.8-2.7-3.9-2.4-6.2
			c0.7-5,2.4-9.8,5.4-13.7c4.4-5.7,15.1-4.7,18.4,1.8c1.6,3.2,2.8,2.8,5.3,1.4c4.8-2.7,9.7-5,14.3-8.1c3.3-2.2,7-3.5,11.6-2.6
			c5.5,1,11.3,0.4,16.9,0.2c19.3-0.6,38.5,1.1,57.7,1c1.5,0,3.7-0.4,3.8,1.4c0.2,2.4,1.7,4.5,0.4,7.3c-3.6,7.8-7.6,15.4-9.1,24
			c-0.4,2.5-0.3,4.7,3.3,5.5c8.1,1.9,16.2,2.9,24.4,3.7c5.6,0.6,11.3,0.2,17,0c1.9-0.1,5,1.8,4.9-2.8c-0.1-4.1-2.7-2.8-4.9-3.2
			c-3.2-0.7-7,0-7.9-5.1c-0.5-2.8,1.7-2.1,2.4-3.2c0.9-1.4,1.9-0.6,1.9,1c0,0.7,0.4,1.5,1,0.7c2.5-3.4,4-0.1,5.8,0.3
			c0.1,1.2-0.5,1.2-0.9,1.3c-1.1,0.4-2.9-0.8-3,1.5c-0.1,2.5,2.3,1.2,3.3,2.1c1,0.9,2.3,1,2.8-1.1c0.5-2.2,2.1-3.8,4-5.1
			c0.5-0.3,0.7-1.1,0.8-1.7c0-0.1-0.8-0.7-1-0.6c-5.4,2.8-7.6-2-10.5-4.6c-1.3-1.1-1.1-2.7-3.9-1.9c-2.6,0.8-4.9-4.6-4.4-9.8
			c0.7-7.7,3.7-9.9,11.4-8.9c4.7,0.6,9.4,0.3,14.2,0.8c5.2,0.5,8.7-3.5,11-8.3c-1.3-1.1-3.2,0.4-4.4-0.9c0.6-0.8,1.2-1.6,2.4-1.5
			c7.3,0.8,11.1-4.9,15.3-9c6.2-6,11.1-13.4,20-16c10.4-3.1,20.5-2.2,30,2.6c2.4,1.2,5.8,1.6,7.2,3.5c3.8,5.2,9.8,3.8,14.6,5.8
			c4.3,1.8,7.5,4.5,10.5,7.8c0.6,0.7,1.2,1.4,0.7,2.2c-0.7,1.1-1.3-0.3-1.9-0.3c-1.7-0.1-2.5,1.3-2.9,2.6c-0.7,2.6,1.8,1.6,2.8,2.3
			c1.4,0.9,3.7,1.5,3.8-0.6c0.2-3.7,4.1-2.6,4.4-2.5c6,1.4,11.3,4,14.7,9.4c0.4,0.6,1.4,2.3,0.1,2.5c-2.8,0.4-4.7,4-8,2.3
			c-1.8-1-3.4-2.4-5.1-3.6c-1.8,1.3-0.2,3.4-1.4,4.6c-1-0.9-0.4-2.1-0.5-3.1c-0.3-2.2-0.3-1.8-2.9-2.6c-1.7-0.5-3.3-2.2-4.8-3.3
			c-1.4-1-2.9-1.6-4.3-1.9c-2.2-0.5-3.3-2.7-4.4-3.1c-2.7-1-6.5-1.1-9.1,0.1c-3,1.3-5.9,2.3-9.2,2.5c-1.2,0.1-1.9,0.8-2.2,1.8
			c-0.3,1.2,0.8,1.4,1.6,1.2c6.4-2.1,12.4,1.1,18.8,1.1c-0.6,1.7-2.3,0.4-3.3,1.6c3.7-0.2,3.8,3.9,6.9,4.6c-2.1,0.6-3.5,1.2-1.9,3.4
			c3.5,4.9,4.2,10.5,5.1,16.3c0.8,5.1-0.9,10-0.1,15c1.9-0.3,3.3-1.5,5-1c4.1,1,3.4-1.9,3.2-4.1c-0.6-4.5-1.4-9-2.2-13.5
			c-0.1-0.8-0.3-2.3,0.4-2.1c3.9,0.9,4.5-3.2,6.9-4.5c4.9-2.6,9.9-4.5,15.2-6.1c-0.1-1.9-3.2-2.3-2.4-5.3c3.1,3.4,7.1,2.5,10.8,2.6
			c9.8,0.1,19.5-0.3,29.2,0.9c2.1,0.3,3.3,0.8,2.6,2.8c-1.8,5.5-0.6,11.2-0.9,16.7c-0.1,2.4-0.3,5.5-2.4,6c-4.5,1.1-4.9,4.3-5.2,7.7
			c-0.4,3.9-2,7.3-3.5,10.8c-27,0-54,0-81,0c0.8-1.8,1.6-2.9,4.1-3.2c3.1-0.4,6.1-0.7,9.2-0.8c7.4-0.4,9.3-1.9,9.7-8.2
			c0.3-5.4-0.7-10.7-1.7-16c-0.4-2.1-0.2-4.5-2.8-5.3c-2.2,2.3,2.4,2.3,1.3,4.4c-1.6,0.5-2.5-1-3.8-1.4c-3.6-1.1-7.4,1.3-6.9,4.4
			c0.8,4.6,3.8,3.5,5.8,1.8c2.4-2,3.4,2,5.2,0.5c-0.6,3.3-0.6,6.8-1.8,9.8c-2.7,7-11.2,5.5-15.8,10c-0.7,0.7-1-0.7-1.5-1.2
			c-2.7-2.6-5.4-3.4-9.1-1.2c-2.4,1.4-5.7,3.4-8.2-1.1c-1.1-1.9-4-1.3-5.6-0.2c-2.1,1.4-3.8,1.7-6.1,0.9c-0.9-0.3-2.1-0.2-1.8,1.7
			c4.7,0.4,8.9,2.6,12.9,5.3c-12,0-24,0-36,0c1-0.9-2.8-3.7,1-3.3c4.7,0.5,9.9-3.2,10-7.7c0.1-1.9,0.1-4.1,2.6-1.1
			c0.8,0.9,2.1-0.5,3.1-0.7c2.3-0.4,1.9-3.3,3.6-3.7c2.4-0.7,4.6-1.7,6.4-3.3c1.2-1.1,3.3-0.1,3.7-3.6c0.5-4.8,1.8,4.1,3.8,0.6
			c0.2-0.3,0.9-0.2,1.4-0.3c5-1,7.9-4.9,11.3-8.2c1.8-1.7,1.3-3.9,0.9-5.6c-0.5-1.7-2.5-2.5-4.4-1.8c-2.1,0.8-3.8-1.2-3.9-1.9
			c-0.2-2.5-1.5-3.4-3.5-3.3c-2.5,0.2-1.5,2.4-1.7,5.3c-1.8-3.7-4.6-3.3-4.7-1.1c-0.2,3.2-4.3,2.7-3.9,5.6c-3.3-1.5-2,2.4-3.3,2.8
			c-3.5,1.2-6.6,3.3-9.6,5.3c-2.2,1.4-4.5,1.1-6.7,1.6c-1.1,0.2-2.5,0.5-2.9-1.2c-0.5-1.9,1.6-1.1,2.2-2.1c0.7-1.4,1.5-1,2.6,0
			c2.1,2,2.6-0.7,3.7-1.6c-3.3-1.9,0.9-3,0.4-4.6c0,0-0.1,0.1-0.1,0.1c2.2-7.8,10.1-9.2,15.3-13.7c0.2-0.1,1.1,0.2,1.1,0.4
			c0.6,3.8,3.5,1.4,5.1,2.2c1-1.5-2.2-1.8-0.6-3.3c1-1,1.7-0.1,1.9,0.4c0.5,1.6,1.4,2.4,2.7,1.5c0.3-0.2-0.6-2.3-0.9-3.7
			c1.6,0,2.3,2.4,4,0.9c2.3-2.1-2.8-1.7-0.9-3.7c4.2,1.6,6.8-1.4,8.8-4.2c2.1-2.9-3.5-2-2.3-5.5c-1.4,2.3-1.9,4.2-3.1,4.9
			c-1.4,0.8,0.3,3.3-2,2.9c-1.9-0.3-2.3-2-2.9-3.4c-2.1-4.8-5.4-6.1-10.4-4.1c-1.7,0.6-4.5,0-3,3.4c0.4,1-1,0.8-1.1,0.5
			c-0.6-2.1-1.9-1.1-2.8-0.6c-4.8,2.4-10.1,2.9-15.3,4.1c-3.3,0.8-9.1,0.1-8.5,6.7c0.1,1.6-1.3,0.9-2.2,1c-0.5,0.1-1.8-1.6-1.5,0.2
			c0.8,4.5-2.4,0.3-3,1.5c-0.7,1.8,3,3.6,1.5,3.8c-4.8,0.7-0.5,3.9-2.2,5.5c-2.9-4.6-6.8-3.8-11.1-2.2c-1,0.4-3.2,1.6-3.6-1.2
			c1.3-0.8,1.4-2.1,2-3.8c-2,0.6-2.9,1.5-2.8,3.2c-1.3,3.7-1.9,7.7-4.7,11.7c4.1-1,4.2-5.1,7.3-5.4c4-0.4,8.9,5.1,8.4,9.4
			c-0.1,0.4-0.3,1.2-0.5,1.2c-6.7,0.3-9.3,6.3-13.5,9.9c-1.9,1.7-3.7,1.3-6.5,0.3c1.5,2.1,2.2,3.8,1.4,5.5c-1.6,3.1-0.1,3.5,2.5,4.7
			c2.2,1,5.9-1.3,6.7,2.7C473.3,448.5,387.6,448.5,302,448.5z M711.9,439.4c-3.1-3.3-4.9-3.6-7.3-1c-1.8,2-3.3,2.1-5.3,0.9
			c-0.5-0.3-1.2-0.5-1.7-0.7c-0.6,2.4-3,2-4.5,2.8c-1.6,0.8-2.2-0.4-2.2-1.9c-4.2,2.4-8.4-1.5-12.6-0.1c-1,0.3-1.6-0.3-1.6,1.7
			c0,2.5,1.4,1.3,2,1.3c6.5,0.1,12.9-0.1,19.4,0.1C702.8,442.6,706.9,440,711.9,439.4z M712.9,427.8c-0.4-2.4-1.4-5.3-3.4-6
			c-1.3-0.5-4.4,1.8-4.4,4.2c0,2.6,1.4,5.5,4.2,5.9C710.3,432.1,713.5,430.8,712.9,427.8z M552.4,423.9c0.3-1.1,1.2-2.2,0.3-3.5
			C551.4,421.5,551.9,422.7,552.4,423.9z"/>
		<path class="st0" d="M-2,391.5c11.3,3.6,22.9,1.4,34.4,2c1.4,0.1,2.4-0.7,2.5-1.9c0.5-3.8,3.3-4.1,6.1-4.1c50.3,0,100.6,0,150.9,0
			c7.5,3.7,15.9,0.4,23.3,3.4c-5.2,2.9-11.5,0.2-17.6,3.1c9,2.1,17.4,1.3,25.7,1.4c4.9,0.1,10,1.4,12.6-5.2c0.8-2.1,4.3-3.2,6.5-4.8
			c1.3-0.9,2.9-1.6,3-3.6c0.3,5.9,0.3,5.9,8,5.4c0-1.5-2-0.1-2.1-1.2c-0.1-0.8,0.7-1.5,1.5-1.4c5.3,0.2,10.9-1.3,15.6,3
			c2.1,1.9,3,3.8,2.3,6.5c-2.7-3.6-6.6-3.2-10.7-3.7c4.5,3.7,4.1,7-0.3,10c-1.5,1.1-2.5,0.4-3.3-0.1c-2.1-1.3-3.6-3.8-6.8-2.2
			c-0.8,0.4-1.5-0.8-1.7-1.8c-0.2-1.4,0.5-2.2,1.7-2.7c1.3-0.5,3,0.5,4.5-1.1c-2.4-1.8-4.9-1.4-7.2-0.5c-1.5,0.6-3.4-0.3-4.3,0.6
			c-1.9,2-5.7-1.5-6.1,1.9c-0.3,2.5,3.6,2.4,5.1,4.3c-0.3,0.2-0.6,0.4-0.8,0.7c-2.2-1.7-3.8,1-5.8,0.8c-0.1-1.2-0.5-3-1.7-2.4
			c-1,0.5-0.4,2.2,0.9,3c2.1,2.8,5.1,4.5,7.9,6.4c1.8,1.2,2.3,2.1,0.9,3.8c-0.5,0.6-1,1.4-1,2.2c-0.5,10.7-8.9,9.1-15.6,10
			c-2.4,0.3-5,0.5-5.4-2.9c-2.2,0.9-2.2,2.8-3,4.2c-1,1.7-2.5,2.7-3.9,1.2c-2-2.1-4.2-1.6-6.6-1.5c-3.2,0.1-6.8,0.9-9.5-1.5
			c-3.8-3.4-7.4-3.2-12.3-1.8c-4.7,1.3-6,4.9-8.2,7.7c-3.1,3.9-5.8,6.3-11.4,6.9c-7.5,0.9-13.3,5.8-17.1,12.7
			c-49.2,0-98.3,0-147.5,0.1c-3,0-3.6-0.6-3.6-3.6C-1.9,427.1-2,409.3-2,391.5z"/>
		<path class="st0" d="M-2,56.6c2.4-1.2,5.1-1,7.7-1c21.1,0.5,42.2-0.9,63.2-1.3c12.4-0.3,24.9,0.4,37.2-0.8
			c12.6-1.2,25.2,0.2,37.7-1c12.8-1.3,25.6,0.2,38.3-1c13.9-1.3,27.9,0.2,41.7-1c11.5-1.1,22.9-0.6,34.3-0.6c3.5,0,4.7-2,4.6-4.1
			c-0.3-4.8,2.6-5.8,6.2-6.4c-3-7.4-2.1-8.6,5.8-7.6c0.2,0,0.3,0,0.5,0c3.6,0.1,7.9-2,10.5-1c2.4,0.9,4.8,3.8,7.9,4.9
			c1.7,0.6,3.6,1.7,2.4-1.9c-0.6-1.6,0-3.6-1.1-5.2c-0.6-0.8-1-1.8-2.1-1.8c-1.7,0.1-0.2,2.1-1.5,2.5c-1.1-3.1-2-5.6-6.5-3.8
			c-2.6,1-5.9,0.2-8.9,0.2c-1.5,0-3-0.1-3.8,1.5c-0.3,0.7-0.9,1.9-1.4,0.6c-1.4-4-2.9-1.1-4.1-0.1c-4.8,4.1-8.6,1.4-13-1.6
			c3.8-0.9,5.8-3.4,7.1-6.3c1.3-2.9,4.1-3.1,5.9-2.6c3.3,0.8,6.5,0,9.6,0.5c0.5-1.6-1.8-2-0.8-3.6c0.3-0.5-2.1-0.4-1.3-1.8
			c0.6-1.1,1.9-0.8,2.6-0.6c7.5,2.1,15.6,0.8,22.9,3.8c0.7,0.3,2,0.5,2.3-1c0.8-4.1,1.4-2.5,3.4-0.3c2.7,3.1,4.3,8.1,9.9,7.6
			c0.6,0,1.8,1.1,1.2,1.6c-5,3.3,2.5,5.5,0.7,8.7c-0.5,0.9,3.1,1.4,0.5,4c-2.2,2.2-3.5,1-5.3,0.5c-0.9,2.3,1.4,3.9-0.7,6.7
			c-3.5,4.7-5.3,4.5-8.4,0.4c-1.1-1.5-2.5-0.9-3.9-0.1c-1,0.6-1.6,0.7-1.1,2c0.8,1.7,1.9,2.1,3.8,2.2c16.8,0.6,33.5-1.2,50.2-1.1
			c15.6,0.1,31.2-0.7,46.7-1.3c12.3-0.5,24.6,0.4,36.7-0.8c12.1-1.2,24.2,0.2,36.2-1c10.3-1,20.6,0.2,30.8-0.9
			c12.4-1.4,24.8-0.5,37.3-0.9c0.8,0,2.2,0.2,2.4-0.2c2.1-4.6,5.2-1.1,7.8-1c1.3,0,2.6,0.1,3.9,0.2c17.3,0.5,34.5-0.8,51.7-1.3
			c11.1-0.3,22.2-0.2,33.3-0.7c1.4-0.1,2.8-0.2,4.3-0.8c1.9-0.8,4.5-0.4,5.3,2c1.1,3.1-1.7,3.8-3.8,4.7c-0.9,0.3-2,0.2-3,0.1
			c-13.4-0.7-26.8,1.3-40.2,1c-0.5,0-0.9,0.2-1.4,1c10.7,0,21.4,0,32.1,0c-6.3,1.6-12.8,1.5-19.1,1.7c-10.9,0.4-21.8,1-32.7,1.5
			c-12.9,0.6-25.9,0.2-38.7,1c-16.2,0.9-32.5,1.3-48.7,2c-16.7,0.7-33.3,1.3-50,2.1c-9.4,0.4-18.9-0.2-28.2,0.9
			c-14.3,1.7-28.5,0.7-42.8,0.7c-9.1,0-18.1,1.5-27.3,1.2c-11.7-0.3-23.3-0.5-35,0c-19.6,0.8-39.1,0.8-58.7,1
			c-6,0.1-11.9,1.3-17.9,1.9c-5.3,0.5-10.6-0.6-16-0.2c-26.6,2.4-53.3,2.1-80,2.4c-5.9,0.1-12.1,1.1-18,1.4
			c-6.1,0.3-12.5-1-18.7-0.6c-17.2,1.2-34.5,0.2-51.7,1.2c-10.4,0.6-20.9,0-31.3,0.9c-5.1,0.4-10.1,1.1-15.2,0.8
			c0.5-2.2,2.1-1.9,3.6-1.9c21.2-0.3,42.5-0.7,63.7-1c2.6,0,5.2,0,7.9-1c-2.8,0-5.6,0-8.3,0c-16.8,0-33.7-0.1-50.5,0
			c-5.3,0-10.6,1.9-16,0.2c-1.4-0.4-2.9-1.9-4.7-1.2C-2,60-2,58.3-2,56.6z M277.4,45.8c1.2-0.9,4,3,3.3-0.8c-0.4-2.3,2-6.3-2.3-7.3
			c-2.5-0.5-4.4,1.2-4.2,3.6C274.2,43,273.4,46.7,277.4,45.8z"/>
		<path d="M558.9,448.5c-0.8-4.1-4.5-1.7-6.7-2.7c-2.6-1.2-4.1-1.6-2.5-4.7c0.9-1.6,0.1-3.4-1.4-5.5c2.9,0.9,4.6,1.3,6.5-0.3
			c4.2-3.7,6.8-9.6,13.5-9.9c0.2,0,0.5-0.8,0.5-1.2c0.5-4.4-4.4-9.9-8.4-9.4c-3.1,0.3-3.2,4.4-7.3,5.4c2.8-4,3.4-7.9,4.7-11.7
			c0.3,0.2,0.6,0.4,0.8,0.7c0.4,2.8,2.7,1.5,3.6,1.2c4.3-1.6,8.2-2.4,11.1,2.2c1.7-1.6-2.6-4.8,2.2-5.5c1.5-0.2-2.2-2-1.5-3.8
			c0.6-1.2,3.8,3,3-1.5c-0.3-1.7,1-0.1,1.5-0.2c0.9-0.1,2.4,0.6,2.2-1c-0.6-6.6,5.1-5.9,8.5-6.7c5.1-1.2,10.4-1.7,15.3-4.1
			c0.9-0.5,2.2-1.4,2.8,0.6c0.1,0.3,1.5,0.5,1.1-0.5c-1.4-3.5,1.4-2.8,3-3.4c5.1-2,8.3-0.7,10.4,4.1c0.6,1.4,1,3.1,2.9,3.4
			c2.3,0.3,0.6-2.1,2-2.9c1.2-0.7,1.7-2.6,3.1-4.9c-1.2,3.5,4.4,2.6,2.3,5.5c-2.1,2.8-4.7,5.8-8.8,4.2c-1.8,2,3.2,1.6,0.9,3.7
			c-1.7,1.5-2.5-0.8-4-0.9c0.4,1.4,1.3,3.4,0.9,3.7c-1.4,0.9-2.3,0.1-2.7-1.5c-0.1-0.5-0.9-1.4-1.9-0.4c-1.6,1.6,1.6,1.8,0.6,3.3
			c-1.6-0.8-4.5,1.7-5.1-2.2c0-0.2-0.9-0.5-1.1-0.4c-5.2,4.4-13.1,5.9-15.3,13.7c-0.3-4.7-4.1-7.6-5.2-11.7
			c-3.2,1.8-1.1,4.9-2.6,8.4c0.5-6.1-2.5-2.4-4-2.9c-0.3-0.9-0.9-1.3-1.7-0.7c-0.4,0.3,0,0.7,0.4,0.8c0.1,0.3,0.1,0.6,0,0.9
			c-0.7,0.2-1,0.7-0.8,1.4c0.3,1,1.2,0.6,1.9,0.8c0.1,1.4,1.1,2.7,0.2,4.1c-0.6,1.4-2.1-1-2.7,0.8c-0.3,0.9,0.2,1.2,0.6,1.5
			c1.3,1.3,2-0.4,2.9-0.7c0.9,0.2,1.8,0.4,2.1-0.8c1.7-0.7,3.2,2.6,4.9,0.1c1.6-0.2,1.8-3.1,4-2c0.5,1.6-3.7,2.8-0.4,4.6
			c-1.1,0.8-1.6,3.5-3.7,1.6c-1-1-1.8-1.4-2.6,0c-0.5,1-2.7,0.2-2.2,2.1c0.4,1.6,1.9,1.4,2.9,1.2c2.2-0.5,4.5-0.2,6.7-1.6
			c3-2,6-4.1,9.6-5.3c1.3-0.4,0-4.3,3.3-2.8c-0.3-2.9,3.8-2.4,3.9-5.6c0.1-2.2,2.9-2.6,4.7,1.1c0.2-2.9-0.8-5,1.7-5.3
			c2.1-0.2,3.3,0.8,3.5,3.3c0.1,0.7,1.7,2.6,3.9,1.9c1.9-0.7,3.9,0.1,4.4,1.8c0.5,1.7,0.9,3.9-0.9,5.6c-3.4,3.2-6.3,7.2-11.3,8.2
			c-0.5,0.1-1.2,0-1.4,0.3c-2,3.5-3.3-5.4-3.8-0.6c-0.4,3.5-2.5,2.5-3.7,3.6c-1.8,1.7-3.9,2.7-6.4,3.3c-1.7,0.5-1.3,3.3-3.6,3.7
			c-1,0.2-2.3,1.6-3.1,0.7c-2.5-3-2.5-0.7-2.6,1.1c-0.1,4.5-5.4,8.3-10,7.7c-3.8-0.4,0,2.4-1,3.3
			C575.6,448.5,567.2,448.5,558.9,448.5z M612.7,420.8c-2.8-0.8-4.5,0.3-6.6,1.6c-1.6,1-2.7,5.1-5.9,2.2c-1.2,2-4.8,3.2-4.9,3.7
			c-1,4,5.6-0.8,5.1,3.9c0,0.3,1.1,0,1.6-0.8c1.7-2.9,4.5-5.3,7.4-6.3C611.9,424.1,611.6,422.4,612.7,420.8z M599.5,396.8
			c3.2,1.8,6-0.9,8.7,0.6c0.4,0.2,1.7-1,1.3-1.6c-0.5-0.8-0.3-2.7-2-2.2C604.8,394.2,601.7,393.7,599.5,396.8z M589.7,435.1
			c0.1-0.5,0.2-0.9,0.2-1.4c0.2-2-0.3-3.8-1.8-5.2c-0.2-0.1-1,0.2-1.2,0.5c-1.7,1.9,2,2.6,1.2,4.5
			C587.7,434.2,588.7,434.9,589.7,435.1z"/>
		<path d="M-2,150.6c3.5,0,7,0,10.5,0c-1,4-0.6,7.7-0.5,11.4c0.1,5-0.7,10-1.9,14.8c-0.7,3,2.1,4,2.1,6.8
			c0.1,13.4-1.7,26.8-1.3,40.2c0.1,2.8-1.1,4.4-3.8,3.7c-2.1-0.6-3.3,1.8-5.3,1.1C-2,202.6-2,176.6-2,150.6z"/>
		<path d="M619.9,448.5c-4-2.6-8.1-4.8-12.9-5.3c-0.3-1.9,0.9-2,1.8-1.7c2.3,0.8,4,0.5,6.1-0.9c1.5-1,4.5-1.7,5.6,0.2
			c2.4,4.5,5.8,2.5,8.2,1.1c3.7-2.2,6.4-1.4,9.1,1.2c0.5,0.5,0.8,1.9,1.5,1.2c4.6-4.5,13.1-3,15.8-10c1.2-3,1.2-6.5,1.8-9.8
			c-1.8,1.4-2.8-2.5-5.2-0.5c-2,1.7-5,2.9-5.8-1.8c-0.5-3.1,3.3-5.5,6.9-4.4c1.3,0.4,2.2,1.9,3.8,1.4c1.2-2.1-3.5-2.1-1.3-4.4
			c2.7,0.8,2.5,3.2,2.8,5.3c1,5.3,2,10.6,1.7,16c-0.4,6.4-2.2,7.9-9.7,8.2c-3.1,0.1-6.1,0.4-9.2,0.8c-2.5,0.3-3.3,1.4-4.1,3.2
			C631.2,448.5,625.6,448.5,619.9,448.5z"/>
		<path class="st0" d="M212,448.5c0.4-3.2,1.8-6.2,3.5-8.8c1.6-2.6,4.1-3.9,7.1-1.2c1.2,1.2,1.4,1.8,0,3c-2.1,1.8-2.9,4.3-2.6,7
			C217.3,448.5,214.7,448.5,212,448.5z"/>
		<path class="st0" d="M600,176.6c-10.6-1-23.8,0.9-37,1.1c-7.8,0.1-15.5-2.1-23.2-1c-7.9,1.2-15.6-0.9-23.5-0.1
			c-2.3,0.2-4.5,0.1-4.4-3.1c0.1-3,2.2-2.6,4.2-2.9c14.5-1.9,29.2-0.2,43.7-1c21.6-1.1,43.1-0.9,64.7-1c3,0,5.6-0.3,5.5,4.2
			c-0.1,4.2-2.6,3.8-5.3,3.8C617.4,176.6,610,176.6,600,176.6z"/>
		<path class="st0" d="M759.8,334.5c-2,1.8-3.7,2.6-6,1.5c-2.3-1.1-4.9-0.6-7.4-0.4c-2.6,0.2-3.9,1.2-3.9,4.8
			c0.1,6.6-1.1,13.3-2.3,19.8c-0.4,2.3-0.6,4.6-0.4,6.9c0.5,7.5-3.7,12.7-8.6,17.3c-2.1,1.9-5,2.4-6.4-1.1
			c-3.4-8.3-4.7-17.2-1.4-25.6c2-5.1,5-10,7.7-15c0.2-0.4,0.5-0.8,0.7-1.3c3.2-6.9,2.8-7.8-4.4-8.7
			C738.3,331.2,748.8,334.5,759.8,334.5z"/>
		<path class="st0" d="M488.8,242.5c-4-0.3-8,0-11.6,1.3c-3.6,1.2-7.1,2.4-11.2,1.5c0.3-4.4,2.9-5.8,6.8-5.7c4.8,0,9.7,0.3,14.5-0.1
			c5-0.4,7.9,2.3,8.4,6.3c0.5,5,4.3,6.9,7.1,9.6c3,2.9,6.1,5.5,8.4,9.2c2.1,3.3,6.5,5.1,10.6,5.9c2.1,0.4,3.5,1.4,5.9,3.1
			c-2.2-0.1-3.6,0.2-4.5-0.3c-3.8-2.1-7.9-2.7-12.2-2.8c-3.7-0.1-4.3-1-3.4-4.5c-0.3-0.1-0.6-0.5-0.8-0.4c-2.6,0.9-5.1,4.6-7.1-1.3
			c-1-2.9-4.6-4.9-7-7.3c-1-0.9-2.1-0.6-3.1,0.1c-1.6,1.1-3.6,1.4-5.5,1.7l0.1,0.1c-0.1-3.1,2.7-2.6,4.3-3.4
			c1.6-0.8,3.2-1.5,4.8-2.3c-3.8-1.6-3.8-1.6-10.2,2.3c0.3-3.2,3.1-4.5,4.5-6.6c-2.7-1.8-3.6,2.2-5.8,1.7c-0.3-0.2-0.6-0.4-0.8-0.7
			c2.8-2.3,5.7-4.6,8.5-6.8c0.3-0.5,0.6-0.9,0.9-1.4C489.8,241.4,489.1,241.5,488.8,242.5z"/>
		<path class="st0" d="M562.7,283.2c-0.9,0.9-0.6,3.4-3.3,1.5c-3.3-2.3-7.2-4.1-10.1,1c-1.3,2.2-4.2,0.7-6.1,2.2
			c-2.7,2.1-3.1-1.4-4.4-2.3c-3.7-2.4-8.1-3.9-10.8-7.6c-0.4-0.5-2.6,0-1.2-1.7c0.8-1,1.7-1,2.5,0c3.9,4.8,6.5,2.4,8.3-1.8
			c3.1-7.2,15.2-8.2,19.4-0.6c1.5,2.7,2,6,5.1,7.7C562.3,281.9,562.4,282.7,562.7,283.2z"/>
		<path class="st0" d="M570.9,241.5c-18.1,0-36.3,0-54.4,0c-1.2,0-2.4,0.2-3.5-0.1c-0.7-0.1-1.9-0.9-1.8-1.3c0.1-0.9,0.9-1.6,2-1.6
			c1,0,2,0,3,0c36.4,0,72.8,0,109.3,0c0.8,0,1.7,0,2.5,0c1.1,0,1.9,0.2,1.9,1.6c-0.1,1.5-1.1,1.4-2.1,1.4c-1,0-2,0-3,0
			C606.9,241.5,588.9,241.5,570.9,241.5z"/>
		<path class="st0" d="M354.6,419.1c-2.3-4.7-2.7-9.8-3.5-14.8c-1.3-7.8-1-15.9-4.8-23.1c-0.5-0.9-0.7-2.5,0.3-2.5
			c5.2,0.3,9.3-3.9,14.6-3.4c2.7,0.3,3,1.3,2.7,3.3c-0.3,2.1-0.7,3.2-3.5,2.1c-2.9-1.1-5.5,2.4-8.8,1.9c-1.1-0.2-0.9,2.1-0.6,3
			c1.9,5.5,2,11.2,1.9,17C352.9,408.2,354.2,413.6,354.6,419.1z"/>
		<path class="st0" d="M484.2,258.8c-1.2,1.6-3.8-0.3-5,2.2c1.1,1.5,5.1,0.7,4.1,4.2c0.3,0.1,0.8,0.3,0.9,0.2
			c5-4.2,7.6,2.5,11.6,2.6c1,0,2.9,1.2,3.5,1.1c3.1-0.4,3.2,0.3,1.9,2.8c-0.6,1.2-0.4,2.9-0.6,5.7c-9.5-9.8-22.7-11.5-32.7-19.2
			c0,0-0.1,0.1-0.1,0.1c5.5,0.9,11-1,16.5,0.3C484.3,258.9,484.2,258.8,484.2,258.8z"/>
		<path class="st0" d="M705.6,370.9c-2.9,2.3-6,2.6-9.4,2.7c-11.9,0.3-23.8-0.7-35.7-1.1c-0.6,0-1.3,0-1.6-0.8
			c0-1.2,0.9-1.1,1.7-1.1c9.6,0,19.2,0.6,28.7-1.1C694.9,368.4,700.1,369.6,705.6,370.9z"/>
		<path class="st0" d="M529.9,285.2c-3.4,1-5.8-1.1-8.5-1.7c-4-0.9-8-2.4-12.1-2.9c-4.3-0.4-3.8-3.8-4.9-6.2
			c-0.3-0.6,1.4-1.4,1.9-0.8c3,4.4,6.8,3,10.8,2c2-0.5,4.3-0.1,6.8-0.1c-1.4,1.7-4.5,0.2-4.6,2.3c0,1.8,2.3,2.5,3.9,3.3
			C525.4,282.4,527.9,283,529.9,285.2z"/>
		<path class="st0" d="M672.1,314.5c1.2,0,2.3,0,3.5,0c0.7,0,1.5-0.1,1.9,0.2c0.6,0.4,0.9,1.3,1.3,1.9c-5.6,0.6,2,6-2.4,6.7
			c-2.8,0.5-5.7,0.2-8.5,0c-1.2-0.1-2.6-0.8-1.7-2.7c0.2-0.4,0.7-1,0.6-1.3C664.2,313,669,314.7,672.1,314.5z"/>
		<path class="st0" d="M305.8,62.6c-5.3,4-6.5,8-5.2,13.2c0.7,2.7-3,5.5-5.6,4.7c-1.2-0.3-2.7-0.8-0.4-2.1c5.1-2.9,2.2-7,1-10.5
			c-1.3-3.8-0.9-5.1,3-5.3C300.5,62.5,302.5,62.6,305.8,62.6z"/>
		<path class="st0" d="M508,424.9c6.6-1.6,12.9-3.3,17.9,3c1.2,1.6,3.6-0.3,5.2,1.5c-2.3,2.5-5.4-0.3-7.7,1.2
			c-4.3,2.8-3.9-2-5.5-3.5c-1.6-1.5-2.7-3.9-5.7-1.8C511.7,425.7,509.7,427.1,508,424.9z"/>
		<path class="st0" d="M669.4,37.6c1.7,0.4,5.3-1.2,5.2,2.1c-0.1,2.4-3.4,3-6,2.9c-0.8,0-1.7,0-2.5,0c-1.9,0.1-3.3-0.6-3.2-2.7
			c0.1-1.8,1.5-2.3,3.2-2.3C667.1,37.7,668.1,37.6,669.4,37.6z"/>
		<path class="st0" d="M369.6,396.4c1.6,5.4-2.1,10.5,0,16.8C365.1,406.8,361.9,401.5,369.6,396.4z"/>
		<path class="st0" d="M307.8,279.6c1.1-1.9-1.3-5.7,1.6-5.7c3.5,0,1.3,3.9,1.5,5.9c0.1,1.8,1.7,5.5-1.4,5.5
			C306.5,285.2,308.8,281.5,307.8,279.6z"/>
		<path class="st0" d="M458.1,95.6c3.4,0,3.5,2.7,4.7,4.1c0.1,0.1-0.9,1.1-1.4,1.7c-0.7-2.8-5.7,0.4-5.4-3.8
			C456.1,96.1,457.4,95.5,458.1,95.6z"/>
		<path class="st0" d="M317.4,365.3c0,0-0.2,0-0.2,0c1.2,0.6,1.6,2,3.1,2.3c1.2,0.2,3.4-1.2,3.5,1.2c0.1,1-1.3,1.8-2.6,1.7
			c-1.8-0.1-3.9,0.3-4.1-2.3C316.9,367.3,317.3,366.3,317.4,365.3z"/>
		<path class="st0" d="M451.7,129.3c-1.1,0.5-1.7,0.2-1.8-0.6c-0.3-3.3,3.2-2.5,4.6-4c0.7-0.7,2.4-0.2,2.9,1
			c0.5,1.2-1.2,1.2-1.5,1.1C453.8,126.7,453.1,129,451.7,129.3z"/>
		<path class="st0" d="M471,219.6c-0.2-1.2-2.4,0.1-1.9-1.1c1.9-4.7-0.1-9.7,1.8-14.5c0,5.2,0,10.5,0,15.7
			C470.9,219.7,471,219.6,471,219.6z"/>
		<path class="st0" d="M448,93.3c1.7-2.2,3.8-2.4,5.7-3.1c0.9-0.3,1.7-1.3,2.2,0.3c0.4,1.3-1,3-1.3,2.7
			C452.4,91.3,450.4,94.3,448,93.3z"/>
		<path class="st0" d="M254.8,373.5c0.8,0.3,1.6,0.8,2.5,0.9c1.2,0.2,2.2,0.3,2.3,1.8c-1.7,0-1.8,3.4-4.1,2.1
			c-0.5-0.3-1.9-1.2-0.8-1.6C259.8,374.8,251.3,375.2,254.8,373.5z"/>
		<path class="st0" d="M242.6,246.4c-1.9-1.1-3.9-2.2-4.2-4.6c-0.1-0.6,1-1.6,1.9-1.1C242.6,241.9,242,244.4,242.6,246.4z"/>
		<path class="st0" d="M266.8,376.7c-2,2.3-3.7,3.2-5.7,3.2c-0.7,0-0.7-0.9-0.3-1.9C262.1,374.9,264.1,377,266.8,376.7z"/>
		<path class="st0" d="M241.7,398.9c1.4,0.7,2.7,1.4,4.3,2.2c-2.4,1-3.7-0.4-5.1-1.5C241.2,399.3,241.5,399.1,241.7,398.9z"/>
		<path class="st0" d="M369.9,388.8c-0.1,0.2-0.3,0.6-0.5,1c-0.5-0.4-1.1-0.7-1.3-1.2c-0.2-0.4-0.3-1.4,0.7-1.3
			C369.4,387.4,369.9,387.8,369.9,388.8z"/>
		<path class="st0" d="M372.5,394.3c-0.5-0.9-1.3-2-0.6-2.5c1.1-0.7,1,0.5,1,1.2C372.9,393.4,372.6,393.8,372.5,394.3z"/>
		<path class="st0" d="M366.6,384.6c0.3,0.4,0.6,0.8,0.7,1.1c0,0.2-0.3,0.4-0.4,0.6c-0.3-0.3-0.6-0.6-0.8-0.9
			C366,385.4,366.3,385,366.6,384.6z"/>
		<path class="st0" d="M482,250.6c-0.3,1-0.9,1.1-1.8,0.7c0.3-0.5,0.6-0.9,0.9-1.4C481.4,250.2,481.7,250.4,482,250.6z"/>
		<path d="M244.9,189.7c-4.4-4-10.2-2.2-15.2-3.5c-1.5-0.4-3.4-0.3-4.6-1.1c-2.1-1.4-5.1-3.3-6.4-2.1c-2.3,1.9-4,5.2-4.5,8.2
			c-0.5,3.2-1.8,6.3-1.3,9.7c0.4,3-0.9,6.1,3.4,7.9c2.5,1.1,2.3,5.2,2.9,7.9c0.7,3.2,4.5,5,3.5,9.2c-4.5-2.8-4.4-7.9-7.7-11.1
			c0.9,3.4,1.9,6.8,2.9,10.4c-51.2,2.3-102.4,1-152.9,1.4c0-7.3,0-14.2,0-21.1c0-5.5,0.2-11-0.1-16.5c-0.2-3.6,1.3-4.8,4.7-4.5
			c2.1,0.2,4.3,0,6.5,0.1c1.4,0.1,3,0,3.6-1c2.6-4.5,6.8-3,10.6-3c33.5,0,67,0,100.5-0.1c5.8,0,11.5,0.6,17.3-0.9
			c7.9-2,14.7,2.6,22,4.4c5.4,1.3,10.7,2.6,16.4,0.8c3.4-1.1,5-3,5.5-6c0.3-1.9,0.8-3.9,1.3-5.6c1.5-5.2-1.5-7.3-5.2-8.6
			c-5.2-1.7-10.5-2.9-15.8-4c-1.4-0.3-2.6-0.8-3.8-1.7c9-2.1,16,4.4,24.3,5.1c4.1,0.3,8.2,0.3,12.3,0.4c2,0.1,3.7,0.5,4.6,2.2
			c2.5,4.6,6.7,6.9,11.1,9c3.5,1.7,6.8,3.4,5.2,8.7c2.1-1.4,0.3-3.5,2.1-4.6c0,2.1,0.4,4.2-0.1,6c-0.4,1.4-0.3,2.3,0.9,2.5
			c1.6,0.3,1.1-1.1,1.3-2c0.5-1.9-1.4-4.9,1.2-5.7c2.7-0.8,5.6,0,8.3,1.7c4.8,2.9,7.8,5.9,7.7,12.1c-0.1,6.8,7.7,13.5,14.1,14.1
			c7.4,0.6,14.3-7.3,14.5-16c0.1-2.8,2.6-7.4-3.3-8.2c-0.7-0.1-0.6-1.6-0.5-1.6c3.3,0.3-0.3-4.5,3.8-4.3c9.3,0.5,18.7,0.2,28,0.1
			c9.1-0.1,18.1,0.6,27.2-0.4c2.3-0.3,3,0.1,2,2.6c-5.4,13-8.1,26.5-8,40.6c0,2.5-0.6,3.5-3.3,3.3c-19.1-0.8-38.1,1.5-57.2,1
			c-4.3-0.1-8.7-0.3-13,0.1c-4.9,0.4-8.4-1.5-11.1-5.3c-1.2-1.7-1.9-4.6-4.5-4c-3,0.7-5.3,2.8-5.9,6.1c-0.1,0.7,0.3,1.7-1.2,2.1
			c-2.6-2.5,1.8-7.9-3.6-9.3c1.3-1,3.1-0.6,3.8-2.1c0.3-0.5,1.1-0.8,0.5-1.6c-0.6-0.7-1-0.5-1.9-0.2c-3.2,0.9-5.8-0.1-7.3-3.4
			c-0.3-0.8-0.9-0.7-2.2,0.5c0-2.7,0-5.1,0-7.4c-1,4-5,4-7.5,5.3c-0.9,0.5-3-2.3-5-3.2c-1.3-0.6,1.3-3.4,0.8-6
			c-5.7,5.3-12.4,8.1-18.9,11.6c-2.5,1.3-3.5,3.4-3.6,6.3c0,1.6,1.5,4.1-1.6,5c-0.1,0-0.2,0.9,0,1.3c1.8,3.9,1.8,4.3,0.6,4.3
			c-2.4-0.1-6.1,1.7-6.3-2.8c-0.3-6.1-3-12.7,0.7-18.2c2.3-3.4,6.8-5.3,10.1-8.1c1.4-1.2,6.8-0.4,4-5.1c0,0,0.5-0.6,0.6-0.5
			c1.7,0.7,3.5,0.6,2.7-1.7c-0.6-1.7-2.3-1.7-4.2-0.7c-1.4,0.8-2.9-1.3-4.6-0.7c-1.2,0.4-0.3,0.9-0.1,1.4
			C245.5,189.2,245.2,189.4,244.9,189.7z M292.9,205.9c-2.6-0.2,1-4.5-2.9-4.3c-1.3,0.1-2.6,0.2-2,1.8c0.6,1.7,0.8,4,3.4,4.2
			C292.4,207.6,293,207.3,292.9,205.9z M296.5,198.5c-1.3,2.2,0.6,3.5,1,5.1c0.3,1.1,2,2,0.6,3.3c-0.9,0.8-1.2,1.7,0,2.2
			c1.1,0.4,1.7-0.6,1.8-1.7C300.4,203.9,298.5,201.3,296.5,198.5z M282.3,190.4c2.3,1.7,2.9,4.9,6.1,4c0.7-0.2,0.4-1,0.2-1.6
			C287.5,190.2,286.1,188.6,282.3,190.4z M270.6,202.6c1.2,0,2.1-0.8,2.3-1.7c0.3-1.3-0.7-2.1-1.9-2.3c-1.3-0.3-2.5,0.4-2.8,1.5
			C267.6,202.1,270.1,201.3,270.6,202.6z"/>
		<path d="M96.5,138.5c-9.1,0.9-18.7-1.1-28.2,1.1c-1.9,0.4-3.2-0.5-3.3-2.7c0-2.5,0-5,0-7.5c0-0.8,0.2-1.3,1.1-1.8
			c9.1-4.5,18.8-4.7,28.8-5.2c29.6-1.4,59.1,0,88.7-1c7.9-0.3,15.8-0.4,23.7-0.9c3.2-0.2,4.3,1,3.6,3.9c-0.8,3.1-1.1,6.1-1,9.2
			c0.1,2.1-1,3-3.1,2.9c-0.3,0-0.7,0-1,0c-17.9-0.5-35.8,1.8-53.7,1C133.8,136.8,115.4,139.4,96.5,138.5z"/>
		<path d="M304.4,165.6c3.5-0.3,14.6,7.8,15,11.2c0.3,2.4-1.7,3.4-3.8,2.6c-4.2-1.5-8.5-2.9-12.2-5.3c-2.4-1.5-0.3-4.5,0.2-6.8
			C303.8,166.7,302.5,165.4,304.4,165.6z"/>
		<path d="M246,183.5c-5-5.5-1.1-11.3-1.5-16.9c-0.2-2,1.3-1.1,1.7-1c3.5,0.7,6.7,5.1,5.6,8.4C250.7,177.6,250,181.6,246,183.5z"/>
		<path d="M224.7,189.8c0.4,5.9,2.2,11.4,3.9,16.9c0.4,1.3,0.9,3-0.2,3.5c-1.4,0.7-1.7-1.3-2.6-2.1c-1.7-1.8-2.1-3.6-1.8-5.8
			c0.4-3.6-2.9-6.7-1.1-10.5C223.3,191.1,223.5,190.4,224.7,189.8z"/>
		<path d="M480.3,122.4c3.3,0.1,6.4-1,10.6-1.5C486.9,124.3,483.6,124,480.3,122.4z"/>
		<path d="M224.4,153.8c1.2,0.8,1.3,2.8,2.3,4.1c0.8,1.1-0.2,1.8-0.9,2.4c-0.6,0.5-1.7,0.3-1.5-0.2c0.8-2.2-0.9-3.7-1.1-5.5
			C223,154.1,223.3,153.5,224.4,153.8z"/>
		<path d="M223.9,163.2c1.8,3.9,0.8,5.6-1.1,6.9c-0.8,0.6-1.3-0.4-1.4-0.7C220.5,166.9,223.4,166.3,223.9,163.2z"/>
		<path d="M541.6,70.4c-2.3-2-4.3-2.8-3.5-5.3C540.6,65.6,541.6,67.1,541.6,70.4z"/>
		<path d="M413,158.7c-0.2,2.2-1.7,3.7-2.8,5.5c0-2.4,0.2-4.7,2.1-6.4C412.6,158.1,412.8,158.4,413,158.7z"/>
		<path d="M413.9,155.5c-0.1-1.2,0.5-2.1,1.5-2.7c0.2,0.3,0.4,0.6,0.7,0.8c0.1,1.2-0.5,2.1-1.5,2.7
			C414.3,156.1,414.1,155.8,413.9,155.5z"/>
		<path d="M414.5,156.4c-0.8,0.6-0.2,2.1-1.5,2.3c-0.2-0.3-0.4-0.6-0.7-0.8c0.8-0.6,0.2-2.1,1.5-2.3
			C414.1,155.8,414.3,156.1,414.5,156.4z"/>
		<path d="M417.5,151.4c-0.8,0.6-0.2,2.1-1.5,2.3c-0.2-0.3-0.4-0.6-0.7-0.8c0.8-0.6,0.2-2.1,1.5-2.3
			C417.1,150.8,417.3,151.1,417.5,151.4z"/>
		<path d="M245.8,189c0.3,0.4,0.6,0.9,0.9,1.3c-0.8,0.4-1.5,0.3-1.7-0.7C245.2,189.4,245.5,189.2,245.8,189z"/>
		<path d="M331.4,181c-0.3,0.2-0.5,0.4-0.7,0.6c-0.2-0.4-0.5-0.7-0.6-1.1c0-0.2,0.4-0.4,0.6-0.6C330.9,180.2,331.1,180.6,331.4,181z
			"/>
		<path d="M152.3,288.5c-20.2,0.5-39.1-1-58-1.3c-9.4-0.1-18.8-0.4-28.2-0.6c-2.4,0-3-0.7-3.1-3.1c-0.6-11.6,1.6-23.1,1.1-34.7
			c-0.1-1.7,0.9-1.7,2.1-2.4c3.4-1.8,9.1,1.8,10.5-4.6c0.1-0.3,1.9-0.3,2.8-0.3c9,0,18-0.4,27,0.1c36.9,2.1,73.8,0.3,110.7,0.8
			c3.7,0.1,4.9,1,6.1,4.8c3.1,9.5,1.7,19,1.5,28.5c-0.2,10.3,3.6,11.5,13.8,10.4c1.2-0.1,2.7-1.2,3.6-0.3c0.6,0.7,0.6,2.4,0.3,3.4
			c-0.5,1.5-2.2,1.1-3.5,1.2c-20.3,0.3-40.5-1-60.7-1.3C169.2,289,160.1,289.2,152.3,288.5z"/>
		<path d="M245.4,304.2c-1,2.5-1.5,5.3-2.4,5.5c-4,0.7-8.3,1.2-12.3,0.6c-2.1-0.3-4.2-0.7-6.3-0.7c-52.6,0-105.3-0.1-157.9,0.1
			c-3.7,0-5-0.8-4.6-4.6c0.2-1.9,0.6-2.6,2.6-2.5c17.9,0.4,35.6-3.3,53.5-1.9c15.1,1.2,30.2,0.2,45.2,1.1
			c22.2,1.4,44.3,1.8,66.5,1.9C234.6,303.6,239.5,305.2,245.4,304.2z"/>
		<path d="M237.1,260c2.1,4.1,4,7.3,7.6,8.9c1.5,0.6,0.9,2.6,0.7,3c-0.7,1.7-2.1,0-2.4-0.4C240.5,268.4,236.8,265.9,237.1,260z"/>
		<path d="M277.2,276.3c-0.6-4.1-0.6-7.4,2.5-10.1c1.6-1.4,2.5-0.4,3.2,0.7c1.4,2.2-0.7,1.4-1.5,1.6c-1.9,0.3-2,2.1-2.2,3.3
			C278.9,273.5,278.4,274.9,277.2,276.3z"/>
		<path d="M287.9,278.2c-1.4-2.9-2.7-5.8-4.1-8.6C287.4,271.5,289.1,274.4,287.9,278.2z"/>
		<path d="M242.8,284.9c2.4-1.8,5-3.1,9.2-1.6C248.4,284.6,245.7,285.4,242.8,284.9z"/>
		<path d="M711.9,439.4c-5,0.6-9.1,3.2-14,3.1c-6.5-0.1-12.9,0-19.4-0.1c-0.6,0-2,1.2-2-1.3c0-2,0.7-1.4,1.6-1.7
			c4.2-1.4,8.4,2.4,12.6,0.1c0,1.5,0.6,2.7,2.2,1.9c1.6-0.8,3.9-0.4,4.5-2.8c0.6,0.2,1.2,0.4,1.7,0.7c2,1.2,3.6,1.1,5.3-0.9
			C706.9,435.8,708.8,436.1,711.9,439.4z"/>
		<path d="M712.9,427.8c0.6,3-2.6,4.2-3.5,4.1c-2.9-0.5-4.2-3.3-4.2-5.9c0-2.4,3.1-4.7,4.4-4.2C711.5,422.5,712.5,425.4,712.9,427.8
			z"/>
		<path d="M557.8,408.4c-0.1-1.7,0.9-2.6,2.8-3.2c-0.6,1.7-0.7,3.1-2,3.8C558.4,408.8,558.1,408.6,557.8,408.4z"/>
		<path d="M552.4,423.9c-0.5-1.2-1-2.4,0.3-3.5C553.7,421.7,552.7,422.8,552.4,423.9z"/>
		<path d="M234.2,401.1c-1.2-0.8-1.9-2.5-0.9-3c1.2-0.6,1.7,1.1,1.7,2.4C234.8,400.6,234.5,400.8,234.2,401.1z"/>
		<path d="M277.4,45.8c-4,0.9-3.1-2.8-3.2-4.5c-0.1-2.4,1.7-4.1,4.2-3.6c4.4,0.9,2,4.9,2.3,7.3C281.3,48.7,278.6,44.9,277.4,45.8z"
			/>
		<path class="st0" d="M584.1,415.7c0.9-1.4-0.1-2.7-0.2-4.1c0-0.9-0.2-1.7-1.1-2.2c0.1-0.3,0.1-0.6,0-0.9c0.4,0,0.8-0.1,1.2-0.1
			c1.5,0.5,4.4-3.2,4,2.9c1.5-3.5-0.6-6.5,2.6-8.4c1.2,4.1,4.9,7.1,5.2,11.7c0,0,0.1-0.1,0.1-0.1c-2.2-1.1-2.4,1.8-4,2
			c-0.2-1.8-0.9-3.3-3-2.9c-1,0.2-3.2,0.6-2,2.8c-0.4,1.2-1.2,1-2.1,0.8C584.6,416.8,584.3,416.2,584.1,415.7z"/>
		<path class="st0" d="M612.7,420.8c-1.2,1.6-0.9,3.3-3.4,4.3c-2.8,1-5.6,3.4-7.4,6.3c-0.5,0.9-1.6,1.2-1.6,0.8
			c0.6-4.7-6,0.1-5.1-3.9c0.1-0.5,3.7-1.7,4.9-3.7c3.2,2.9,4.3-1.3,5.9-2.2C608.3,421.1,609.9,420,612.7,420.8z"/>
		<path class="st0" d="M599.5,396.8c2.2-3.1,5.3-2.6,7.9-3.3c1.7-0.4,1.5,1.4,2,2.2c0.4,0.6-0.9,1.8-1.3,1.6
			C605.5,395.9,602.7,398.6,599.5,396.8z"/>
		<path class="st0" d="M587,416.5c-1.2-2.2,0.9-2.6,2-2.8c2-0.5,2.8,1.1,3,2.9C590.3,419.1,588.7,415.9,587,416.5z"/>
		<path class="st0" d="M589.7,435.1c-1-0.2-1.9-0.9-1.7-1.6c0.8-1.9-2.8-2.5-1.2-4.5c0.3-0.3,1.1-0.6,1.2-0.5c1.5,1.4,2,3.2,1.8,5.2
			C589.8,434.2,589.7,434.7,589.7,435.1z"/>
		<path class="st0" d="M584.1,415.7c0.3,0.5,0.6,1.1,0.8,1.6c-1,0.3-1.6,2-2.9,0.7c-0.4-0.4-0.9-0.7-0.6-1.5
			C581.9,414.7,583.5,417.1,584.1,415.7z"/>
		<path class="st0" d="M582.8,409.4c0.9,0.4,1.1,1.3,1.1,2.2c-0.6-0.2-1.6,0.2-1.9-0.8C581.8,410.1,582.1,409.6,582.8,409.4z"/>
		<path class="st0" d="M584,408.4c-0.4,0-0.8,0.1-1.2,0.1c-0.5-0.1-0.8-0.5-0.4-0.8C583.1,407.2,583.7,407.5,584,408.4z"/>
		<path d="M488.8,242.5c0.3-1,0.9-1.1,1.8-0.7c-0.3,0.5-0.6,0.9-0.9,1.4C489.4,242.9,489.1,242.7,488.8,242.5z"/>
		<path class="st0" d="M292.9,205.9c0.1,1.4-0.5,1.8-1.5,1.7c-2.5-0.2-2.7-2.5-3.4-4.2c-0.6-1.6,0.7-1.8,2-1.8
			C293.9,201.4,290.3,205.7,292.9,205.9z"/>
		<path class="st0" d="M296.5,198.5c2,2.7,3.9,5.4,3.5,8.9c-0.1,1-0.7,2-1.8,1.7c-1.3-0.4-1-1.3,0-2.2c1.5-1.3-0.3-2.2-0.6-3.3
			C297.1,202,295.2,200.8,296.5,198.5z"/>
		<path class="st0" d="M282.3,190.4c3.8-1.8,5.2-0.2,6.3,2.3c0.3,0.7,0.6,1.4-0.2,1.6C285.2,195.2,284.6,192.1,282.3,190.4z"/>
		<path class="st0" d="M270.6,202.6c-0.5-1.2-3-0.5-2.5-2.4c0.3-1.1,1.4-1.9,2.8-1.5c1.2,0.3,2.3,1,1.9,2.3
			C272.6,201.8,271.7,202.6,270.6,202.6z"/>
	</g>
</g>
</svg>
