<?xml version="1.0" encoding="utf-8"?>
<!-- Generator: Adobe Illustrator 25.2.1, SVG Export Plug-In . SVG Version: 6.00 Build 0)  -->
<svg version="1.1" id="Laag_1" xmlns="http://www.w3.org/2000/svg" xmlns:xlink="http://www.w3.org/1999/xlink" x="0px" y="0px"
	 viewBox="0 0 29.1 18" style="enable-background:new 0 0 29.1 18;" xml:space="preserve">
<style type="text/css">
	.st0{fill:#FFFFFF;}
</style>
<g>
	<path class="st0" d="M25.5,14.5l-2-2V1.7h0.4c0.2,0,0.4-0.2,0.4-0.4S24,1,23.8,1h-0.4V0.7c0-0.2-0.2-0.4-0.4-0.4
		c-0.2,0-0.4,0.2-0.4,0.4V1h-4.2V0.7c0-0.2-0.2-0.4-0.4-0.4c-0.2,0-0.4,0.2-0.4,0.4V1h-4.2V0.7c0-0.2-0.2-0.4-0.4-0.4
		c-0.2,0-0.4,0.2-0.4,0.4V1H8.7V0.7c0-0.2-0.2-0.4-0.4-0.4C8.1,0.3,8,0.5,8,0.7V1H7.6C7.4,1,7.3,1.2,7.3,1.4s0.2,0.4,0.4,0.4H8v10.8
		l-2,2c-0.1,0.1-0.1,0.4,0,0.5c0.1,0.1,0.4,0.1,0.5,0c0,0,0,0,0,0L8,13.5v1.3c0,0.2,0.2,0.4,0.4,0.4c0.2,0,0.4-0.2,0.4-0.4v-1.3
		l0.7,0.7v0.5l-1.4,2c-0.1,0.2-0.1,0.4,0.1,0.5c0.1,0,0.1,0.1,0.2,0.1h14.8c0.2,0,0.4-0.2,0.4-0.4c0-0.1,0-0.1-0.1-0.2l-1.4-2v-0.5
		l0.7-0.7v1.3c0,0.2,0.2,0.4,0.4,0.4c0.2,0,0.4-0.2,0.4-0.4v-1.3L25,15c0.1,0.1,0.4,0.1,0.5,0C25.6,14.9,25.6,14.7,25.5,14.5z
		 M8.7,12.5V1.7h0.7v11.5L8.7,12.5z M22.5,16.5H9l1-1.6c0-0.1,0.1-0.1,0.1-0.2v-13h11.3v13c0,0.1,0,0.1,0.1,0.2L22.5,16.5z
		 M22.1,13.2V1.7h0.7v10.8L22.1,13.2z"/>
</g>
</svg>
